<?xml version="1.0" encoding="utf-8"?>
<!-- Generator: Adobe Illustrator 16.0.0, SVG Export Plug-In . SVG Version: 6.00 Build 0)  -->
<!DOCTYPE svg PUBLIC "-//W3C//DTD SVG 1.1//EN" "http://www.w3.org/Graphics/SVG/1.1/DTD/svg11.dtd">
<svg version="1.1"
	 id="svg1" xmlns:inkscape="http://www.inkscape.org/namespaces/inkscape" xmlns:svg="http://www.w3.org/2000/svg" xmlns:sodipodi="http://sodipodi.sourceforge.net/DTD/sodipodi-0.dtd" inkscape:export-xdpi="96" inkscape:export-ydpi="96" sodipodi:docname="am24logo.svg" inkscape:version="1.3 (1:1.3+202307231459+0e150ed6c4)" inkscape:export-filename="am24logo.pdf"
	 xmlns="http://www.w3.org/2000/svg" xmlns:xlink="http://www.w3.org/1999/xlink" x="0px" y="0px" width="673.2754px"
	 height="673.2754px" viewBox="0 0 673.2754 673.2754" enable-background="new 0 0 673.2754 673.2754" xml:space="preserve">
<g id="g22" inkscape:label="visible">
	<rect id="rect1" inkscape:label="bg" display="none" fill="#FFFFFF" width="673.2754" height="673.2754">
	</rect>
	<g id="g3" transform="translate(-3.0814084,-2.4261857)" inkscape:label="broken_circle">
		
			<path id="ellipse2" inkscape:label="circle_bottom" sodipodi:open="true" sodipodi:arc-type="arc" sodipodi:ry="81.466301" sodipodi:type="arc" sodipodi:end="2.6711952" sodipodi:rx="80.91584" sodipodi:cy="145.23247" sodipodi:cx="140.37061" sodipodi:start="0.46863983" fill="none" stroke="#000000" stroke-width="20" stroke-linecap="round" d="
			M612.5697,478.1284c-52.0283,103.4697-157.3906,168.7295-272.582,168.832c-115.1909,0.1016-220.667-64.9717-272.8765-168.3496"/>
		
			<path id="ellipse3" inkscape:label="circle_top" sodipodi:open="true" sodipodi:arc-type="arc" sodipodi:ry="81.466301" sodipodi:type="arc" sodipodi:end="0.16391056" sodipodi:rx="80.91584" sodipodi:cy="145.23247" sodipodi:cx="140.37061" sodipodi:start="2.977958" fill="none" stroke="#000000" stroke-width="20" stroke-linecap="round" d="
			M37.9803,389.2153C18.2235,268.7407,71.0433,147.895,172.619,81.1772C274.1947,14.4599,405.3324,14.478,506.89,81.2241
			c101.5566,66.7456,154.3438,187.606,134.5537,308.0742"/>
	</g>
	<path id="path3" inkscape:label="horz_line" fill="none" stroke="#000000" stroke-width="12" stroke-linecap="round" d="
		M26.2847,430.5273h620.7056"/>
	<path id="text1" inkscape:label="amtext" d="M158.5557,493.8223c0-2.9541,0.6636-5.3711,1.9907-7.249
		c1.3521-1.8779,3.1299-3.2676,5.3335-4.1689c2.2285-0.9014,4.6699-1.3516,7.3237-1.3516c1.252,0,2.7417,0.0498,4.4697,0.1504
		c1.7524,0.0742,3.355,0.2744,4.8076,0.6006v6.3477c-1.2021-0.2754-2.604-0.4385-4.2065-0.4883
		c-1.5776-0.0752-2.98-0.1133-4.2065-0.1133c-1.9785,0-3.4556,0.5137-4.4321,1.54c-0.9766,1.002-1.4648,2.3535-1.4648,4.0566
		c0,1.2773,0.3633,2.3408,1.0894,3.1924c0.751,0.8516,1.8027,1.2773,3.1548,1.2773c1.6523,0,3.3677-0.5889,5.1455-1.7656
		c1.8027-1.1768,3.3179-2.8418,4.5449-4.9951l1.4268,6.6855c-0.9512,1.1016-2.0654,2.2412-3.3423,3.418
		c-1.2773,1.1514-2.7798,2.1152-4.5073,2.8916c-1.7026,0.7764-3.6685,1.1641-5.8965,1.1641c-2.5293,0-4.6323-0.5508-6.3101-1.6523
		c-1.6528-1.127-2.8921-2.541-3.7183-4.2441C158.9565,497.3906,158.5557,495.625,158.5557,493.8223L158.5557,493.8223z
		 M191.3071,499.5313c-0.2002,0.877-0.626,1.8154-1.2769,2.8174c-0.626,1.001-1.2773,1.7402-1.9531,2.2158
		c-1.9033-0.1758-3.4678-0.7139-4.6948-1.6152c-1.2021-0.9014-2.1157-1.9902-2.7417-3.2676
		c-0.626-1.3018-1.0269-2.6162-1.2021-3.9434V479.25c0-1.9531-0.4634-3.3809-1.3896-4.2822
		c-0.9263-0.9268-2.291-1.3896-4.0938-1.3896c-1.7529,0-3.606,0.2754-5.5591,0.8262c-1.9526,0.5264-3.9185,1.127-5.8965,1.8027
		c-0.7261-0.8008-1.3145-1.8525-1.7651-3.1543c-0.4258-1.3027-0.6885-2.5791-0.7891-3.8311
		c1.5776-0.6514,3.3179-1.2275,5.2207-1.7275c1.9282-0.501,3.8687-0.8896,5.8218-1.165c1.9531-0.2998,3.7559-0.4502,5.4087-0.4502
		c2.3286,0,4.457,0.4258,6.3848,1.2773c1.9282,0.8506,3.4805,2.2158,4.6572,4.0938c1.1768,1.8525,1.7656,4.2939,1.7656,7.3232
		v15.3242c0,1.252,0.1499,2.3535,0.4502,3.3057C189.98,498.1289,190.5308,498.9053,191.3071,499.5313z M225.0303,493.3721
		c0,1.3271,0.1626,2.5537,0.4883,3.6807c0.3506,1.127,0.8887,1.9775,1.6147,2.5537c-0.2002,0.9014-0.626,1.8408-1.2769,2.8174
		c-0.626,0.9512-1.2896,1.665-1.9907,2.1406c-2.9043-0.251-5.0825-1.4023-6.5352-3.4551c-1.4272-2.0537-2.1406-4.4697-2.1406-7.249
		v-27.1553c0.6758-0.125,1.4521-0.2129,2.3286-0.2627c0.876-0.0752,1.7402-0.1133,2.5913-0.1133
		c0.8516,0,1.7026,0.0381,2.5542,0.1133c0.8765,0.0498,1.665,0.1377,2.3662,0.2627V493.3721z M194.0439,475.3809
		c0-1.377-0.125-2.6787-0.3755-3.9063c-0.2251-1.2266-0.626-2.291-1.2017-3.1924c0.7261-0.626,1.6274-1.127,2.7041-1.502
		c1.0767-0.4004,2.2158-0.6006,3.418-0.6016c1.9531,0.001,3.3174,0.5264,4.0938,1.5781c0.7764,1.0264,1.1646,2.541,1.1646,4.5439
		v17.5029c0,2.0781,0.2754,3.6055,0.8262,4.582s1.5776,1.4648,3.0796,1.4648c1.0269,0,2.1538-0.25,3.3804-0.751
		c1.2271-0.5264,2.4165-1.3018,3.5684-2.3291c1.1768-1.0264,2.1406-2.291,2.8921-3.793v8.8643
		c-1.7026,1.8271-3.6807,3.4297-5.9346,4.8066c-2.2285,1.3525-4.6948,2.0283-7.3989,2.0283c-2.3037,0-4.2192-0.5508-5.7466-1.6523
		c-1.5024-1.127-2.6289-2.6543-3.3804-4.582c-0.7261-1.9531-1.0894-4.1689-1.0894-6.6484V475.3809z M260.1431,493.2969
		c0,1.3271,0.1626,2.5537,0.4883,3.6807c0.3506,1.1016,0.8887,1.9531,1.6147,2.5537c-0.2002,0.877-0.626,1.8154-1.2769,2.8174
		c-0.626,1.001-1.2769,1.7402-1.9531,2.2158c-2.9043-0.251-5.0454-1.3896-6.4224-3.418c-1.3521-2.0283-2.0283-4.4316-2.0283-7.2109
		v-44.6953l0.4883-0.4883h3.7935c1.978,0,3.355,0.4629,4.1313,1.3896c0.7764,0.9014,1.1646,2.4541,1.1646,4.6572V493.2969z
		 M228.1426,485.7852c0-4.3818,0.689-8.0381,2.0659-10.9678c1.3774-2.9287,3.1802-5.1201,5.4087-6.5723
		c2.2534-1.4775,4.6699-2.2158,7.2485-2.2158c2.5044,0,4.7578,0.5127,6.7607,1.54c2.0034,1.0264,3.8687,2.1025,5.5962,3.2295
		l-1.3896,7.2861c-1.4521-1.1514-3.0049-2.2031-4.6572-3.1543c-1.6274-0.9521-3.2051-1.4277-4.7324-1.4277
		c-1.3018,0-2.416,0.4756-3.3428,1.4277c-0.9263,0.9268-1.6523,2.3154-2.1782,4.1689c-0.501,1.8281-0.7515,4.0811-0.7515,6.7607
		c0,2.6289,0.2505,4.7695,0.7515,6.4219c0.5005,1.6533,1.1768,2.8672,2.0278,3.6436c0.8765,0.751,1.8154,1.127,2.8174,1.127
		c1.0264,0,2.1406-0.2881,3.3428-0.8643c1.2266-0.5752,2.3911-1.5645,3.4927-2.9668s1.9653-3.3174,2.5913-5.7471l2.1787,6.1973
		c-0.3506,1.8779-1.1895,3.6816-2.5166,5.4092c-1.3018,1.7275-2.9419,3.1543-4.9199,4.2813
		c-1.9785,1.1016-4.1816,1.6523-6.6104,1.6523c-2.9297,0-5.3838-0.8135-7.3618-2.4404c-1.9531-1.6279-3.418-3.8818-4.394-6.7607
		C228.6187,492.9082,228.1426,489.5654,228.1426,485.7852L228.1426,485.7852z M276.6714,504.001
		c-0.6763,0.125-1.4521,0.2129-2.3286,0.2627c-0.8516,0.0508-1.7026,0.0752-2.5537,0.0752c-0.8516,0-1.7153-0.0244-2.5918-0.0752
		c-0.8516-0.0498-1.6401-0.1377-2.3662-0.2627v-26.1406c0-1.3027-0.2505-2.3164-0.7515-3.043
		c-0.4756-0.7256-1.3521-1.0889-2.6289-1.0889h-1.0142c-0.2754-1.1016-0.4131-2.2285-0.4131-3.3799
		c0-0.5762,0.0376-1.165,0.1128-1.7656c0.0747-0.6006,0.1753-1.2021,0.3003-1.8027c1.0767-0.125,2.1284-0.2129,3.1553-0.2627
		c1.0264-0.0508,1.8901-0.0762,2.5913-0.0762h1.3145c2.2285,0,3.9814,0.7012,5.2583,2.1035s1.9155,3.3184,1.9155,5.7471V504.001z
		 M264.5776,456.4141c0-0.626,0.0625-1.2773,0.1875-1.9531c0.1504-0.7012,0.3506-1.3525,0.6011-1.9531
		c0.5508-0.3008,1.2769-0.5381,2.1787-0.7139c0.9263-0.2002,1.8276-0.2998,2.7041-0.2998c0.876,0,1.79,0.0996,2.7417,0.2998
		c0.9517,0.1758,1.665,0.4131,2.1411,0.7139c0.25,0.6006,0.438,1.252,0.563,1.9531c0.1504,0.7012,0.2256,1.3516,0.2256,1.9531
		c0,0.6006-0.0752,1.252-0.2256,1.9531c-0.125,0.7012-0.313,1.3398-0.563,1.915c-0.4761,0.3008-1.1895,0.5508-2.1411,0.751
		c-0.9517,0.2012-1.8657,0.3008-2.7417,0.3008c-0.8765,0-1.7905-0.0879-2.7422-0.2627c-0.9263-0.2002-1.6396-0.4639-2.1406-0.7891
		c-0.2505-0.5762-0.4507-1.2139-0.6011-1.915C264.6401,457.666,264.5776,457.0146,264.5776,456.4141L264.5776,456.4141z
		 M313.0615,485.334c0,3.9316-0.6387,7.3867-1.916,10.3662c-1.2764,2.9551-3.167,5.2461-5.6709,6.874
		c-2.479,1.627-5.5464,2.4404-9.2021,2.4404c-3.7061,0-6.8105-0.8262-9.3145-2.4785c-2.479-1.6523-4.3442-3.9561-5.5962-6.9111
		c-1.2524-2.9541-1.8784-6.3848-1.8784-10.291s0.626-7.3359,1.8784-10.291c1.2769-2.9541,3.1548-5.2578,5.6338-6.9102
		c2.5039-1.6533,5.5962-2.4795,9.2769-2.4795s6.7734,0.8389,9.2769,2.5166c2.5044,1.6523,4.3823,3.9561,5.6343,6.9111
		C312.4355,478.0107,313.0615,481.4277,313.0615,485.334L313.0615,485.334z M289.5493,485.334c0,2.2041,0.1753,4.2441,0.5259,6.1221
		c0.3755,1.8535,1.0518,3.3555,2.0283,4.5068c0.9766,1.127,2.3662,1.6904,4.1689,1.6904c1.853,0,3.2549-0.5635,4.2065-1.6904
		c0.9517-1.1514,1.6025-2.6533,1.9531-4.5068c0.3506-1.8779,0.5259-3.9189,0.5259-6.1221c0-2.1777-0.1753-4.2061-0.5259-6.084
		s-1.0015-3.3809-1.9531-4.5078c-0.9517-1.1514-2.3535-1.7275-4.2065-1.7275c-1.8027,0-3.1924,0.5762-4.1689,1.7275
		c-0.9766,1.127-1.6523,2.6299-2.0283,4.5078C289.7246,481.1279,289.5493,483.1563,289.5493,485.334z M331.6436,466.292
		c1.9531,0,3.3799,0.6387,4.2813,1.915c0.9268,1.252,1.3896,2.9678,1.3896,5.1455v30.6484
		c-0.6758,0.125-1.4521,0.2129-2.3281,0.2627c-0.8516,0.0508-1.7031,0.0752-2.5537,0.0752c-0.8262,0-1.6777-0.0244-2.5547-0.0752
		c-0.8506-0.0498-1.6396-0.1377-2.3662-0.2627v-37.1836L328,466.292H331.6436z M347.7559,480.9395
		c0-2.3027-0.375-3.8936-1.126-4.7695c-0.7266-0.876-1.6533-1.3145-2.7803-1.3145c-1.1514,0.0254-2.3906,0.4385-3.7178,1.2393
		c-1.3018,0.8018-2.5039,1.8281-3.6055,3.0801c-1.0771,1.2266-1.8906,2.541-2.4414,3.9434v-8.9014
		c1.1514-1.4277,2.4287-2.7666,3.8311-4.0186c1.4268-1.252,2.9541-2.2539,4.582-3.0049c1.6279-0.7764,3.3047-1.1641,5.0332-1.1641
		c2.1777,0,4.0186,0.5127,5.5205,1.54c1.5029,1.0264,2.6299,2.4287,3.3809,4.2061c0.751,1.7783,1.126,3.7813,1.126,6.0098v26.2158
		c-0.6758,0.125-1.4521,0.2129-2.3281,0.2627c-0.8516,0.0508-1.7031,0.0752-2.5537,0.0752c-0.8262,0-1.6777-0.0244-2.5547-0.0752
		c-0.8506-0.0498-1.6396-0.1377-2.3662-0.2627V480.9395z M367.9629,480.8643c0-2.3037-0.3877-3.8809-1.1641-4.7324
		c-0.751-0.8506-1.6904-1.2764-2.8174-1.2764c-1.0762,0-2.2529,0.4004-3.5303,1.2012c-1.252,0.8018-2.4541,1.8535-3.6055,3.1553
		c-1.127,1.2773-2.041,2.6797-2.7422,4.207v-9.8027c1.1768-1.3525,2.5039-2.6045,3.9814-3.7559
		c1.502-1.1523,3.0928-2.0791,4.7695-2.7793c1.7031-0.7012,3.4053-1.0518,5.1084-1.0518c2.2031,0,4.0313,0.5254,5.4834,1.5771
		s2.542,2.4668,3.2676,4.2441c0.7266,1.7773,1.0898,3.793,1.0898,6.0469v17.4277c0,1.377,0.0996,2.6787,0.2998,3.9053
		c0.2256,1.2275,0.6387,2.3037,1.2402,3.2305c-0.7012,0.5762-1.5908,1.0771-2.667,1.502c-1.0771,0.4014-2.2285,0.6016-3.4561,0.6016
		c-1.9531,0-3.3174-0.5264-4.0938-1.5771c-0.7764-1.0518-1.1641-2.5674-1.1641-4.5449V480.8643z M414.043,485.334
		c0,3.9316-0.6387,7.3867-1.915,10.3662c-1.2773,2.9551-3.168,5.2461-5.6719,6.874c-2.4785,1.627-5.5459,2.4404-9.2021,2.4404
		c-3.7061,0-6.8105-0.8262-9.3145-2.4785c-2.4785-1.6523-4.3438-3.9561-5.5967-6.9111c-1.252-2.9541-1.8779-6.3848-1.8779-10.291
		s0.626-7.3359,1.8779-10.291c1.2773-2.9541,3.1553-5.2578,5.6338-6.9111c2.5039-1.6523,5.5967-2.4785,9.2773-2.4785
		s6.7734,0.8389,9.2773,2.5166c2.5039,1.6523,4.3818,3.9561,5.6338,6.9111C413.417,478.0107,414.043,481.4277,414.043,485.334
		L414.043,485.334z M390.5313,485.334c0,2.2031,0.1748,4.2441,0.5254,6.1221c0.376,1.8535,1.0518,3.3555,2.0283,4.5068
		c0.9766,1.127,2.3662,1.6904,4.1689,1.6904c1.8535,0,3.2549-0.5635,4.207-1.6904c0.9512-1.1514,1.6025-2.6533,1.9531-4.5068
		c0.3506-1.8779,0.5254-3.9189,0.5254-6.1221c0-2.1777-0.1748-4.2061-0.5254-6.084s-1.002-3.3809-1.9531-4.5078
		c-0.9521-1.1514-2.3535-1.7275-4.207-1.7275c-1.8027,0-3.1924,0.5762-4.1689,1.7275c-0.9766,1.127-1.6523,2.6299-2.0283,4.5078
		C390.7061,481.1279,390.5313,483.1563,390.5313,485.334z M413.7002,501.334c0.0498-1.0762,0.3633-2.2656,0.9385-3.5684
		c0.5762-1.3262,1.2529-2.3652,2.0283-3.1172c1.6025,0.8516,3.293,1.6025,5.0713,2.2539c1.7773,0.626,3.5674,0.9395,5.3701,0.9395
		c1.7285,0,3.0674-0.3389,4.0195-1.0146c0.9766-0.6758,1.4766-1.54,1.502-2.5918c0-0.9014-0.3379-1.7148-1.0137-2.4414
		c-0.6768-0.7256-1.6904-1.3271-3.043-1.8027l-4.2813-1.54c-1.7275-0.6504-3.3174-1.4521-4.7705-2.4033
		c-1.4268-0.9766-2.5664-2.166-3.417-3.5684c-0.8271-1.4023-1.2402-3.0801-1.2402-5.0322c0-2.4297,0.5889-4.5195,1.7656-6.2725
		c1.1768-1.7783,2.8164-3.1426,4.9199-4.0938c2.1035-0.9521,4.5195-1.4277,7.249-1.4277c2.2031,0,4.5322,0.3008,6.9863,0.9014
		c2.4531,0.5762,4.4697,1.252,6.0469,2.0283c0.0498,0.7764-0.0498,1.6279-0.3008,2.5537c-0.2256,0.9268-0.5508,1.791-0.9766,2.5918
		c-0.4258,0.7764-0.9141,1.3896-1.4648,1.8398c-1.4521-0.6504-3.0801-1.252-4.8828-1.8027
		c-1.7773-0.5752-3.5801-0.8633-5.4082-0.8633c-1.3018,0-2.3281,0.3252-3.0801,0.9766c-0.7256,0.626-1.0889,1.4141-1.0889,2.3662
		c0,0.8506,0.3008,1.5645,0.9014,2.1406s1.5273,1.0889,2.7793,1.54l4.6572,1.6904c2.8291,1.001,5.1582,2.4404,6.9863,4.3193
		c1.8525,1.8525,2.7793,4.3184,2.7793,7.3984c0,3.6055-1.3896,6.46-4.1689,8.5635c-2.7793,2.0781-6.5479,3.1172-11.3057,3.1172
		c-2.6787,0-5.1826-0.3623-7.5117-1.0889C417.4189,503.1992,415.4033,502.3359,413.7002,501.334L413.7002,501.334z
		 M446.5596,461.334c0-2.1787,0.3877-3.7305,1.1641-4.6572s2.1533-1.3896,4.1318-1.3896h3.7559l0.5254,0.5254v37.5596
		c0,1.0518,0.2383,1.8779,0.7139,2.4785c0.501,0.6006,1.3398,0.9014,2.5166,0.9014h4.6572c0.25,0.7012,0.4385,1.4775,0.5635,2.3291
		c0.125,0.8262,0.1875,1.6396,0.1875,2.4414c0,0.3506-0.0127,0.7256-0.0371,1.126c0,0.376-0.0508,0.7393-0.1504,1.0898
		c-1.3271,0.1504-2.8047,0.2881-4.4316,0.4131c-1.6025,0.125-3.1553,0.1875-4.6582,0.1875c-2.9795,0-5.2207-0.7383-6.7227-2.2158
		c-1.4775-1.502-2.2158-3.8057-2.2158-6.9111V461.334z M465.2266,466.6299c0.2998,1.1514,0.4502,2.3164,0.4502,3.4932
		c0,0.6006-0.0371,1.2012-0.1123,1.8027c-0.0752,0.6006-0.1875,1.2021-0.3379,1.8027l-13.1836-0.2256l-11.1924,0.2256
		c-0.2754-1.1514-0.4131-2.3535-0.4131-3.6055c0-1.127,0.1377-2.291,0.4131-3.4932l11.418,0.1875L465.2266,466.6299z
		 M482.3486,496.752c0.2246,0.7012,0.4131,1.4648,0.5635,2.291c0.1494,0.8262,0.2246,1.6523,0.2246,2.4795
		c0,0.3506-0.0127,0.7256-0.0371,1.126c-0.0254,0.376-0.0879,0.7393-0.1885,1.0898c-1.001,0.1504-2.1533,0.2881-3.4551,0.4131
		s-2.5791,0.1875-3.8311,0.1875c-2.9297,0-5.0703-0.7383-6.4229-2.2158c-1.3271-1.502-1.9902-3.8057-1.9902-6.9111v-45.9717
		l0.5254-0.4883h3.7939c1.9775,0,3.3555,0.4629,4.1309,1.3896c0.7764,0.9014,1.165,2.4541,1.165,4.6572v38.5352
		c0,1.1016,0.25,1.9531,0.751,2.5547c0.501,0.5752,1.2891,0.8633,2.3662,0.8633H482.3486z M487.5264,520.4141
		c-1.3516,0-2.8291-0.1504-4.4316-0.4502c-1.6025-0.2754-2.8545-0.5762-3.7559-0.9014c-0.1006-1.127,0.0498-2.3916,0.4502-3.7939
		c0.4014-1.4023,0.9268-2.4785,1.5781-3.2295c0.7012,0.2246,1.627,0.4502,2.7793,0.6758c1.1514,0.25,2.2783,0.375,3.3799,0.375
		c1.5029,0,2.7666-0.3125,3.7939-0.9385c1.0264-0.626,1.8906-1.5146,2.5918-2.667c0.7256-1.127,1.3262-2.4658,1.8027-4.0186
		l0.2627-1.0518c-1.8027,0-3.2803-0.3125-4.4316-0.9385c-1.127-0.6514-1.9287-1.791-2.4043-3.418l-9.2764-32.6016
		c1.0264-0.4756,2.0781-0.8135,3.1543-1.0137c1.0771-0.2256,2.0283-0.3379,2.8545-0.3379c1.1768,0,2.166,0.2998,2.9678,0.9014
		c0.8008,0.6006,1.4141,1.7148,1.8398,3.3428l4.2813,15.8496c0.3008,0.9766,0.5762,2.1162,0.8271,3.418
		c0.2754,1.2773,0.5381,2.542,0.7881,3.793c0.251,1.2275,0.4512,2.291,0.6016,3.1934c0.0752,0.3506,0.2998,0.5254,0.6758,0.5254
		l7.3613-30.4229c0.5508-0.125,1.1895-0.2129,1.916-0.2627c0.751-0.0752,1.4395-0.1123,2.0654-0.1133
		c0.8516,0.001,1.7148,0.0508,2.5918,0.1504c0.876,0.0752,1.7402,0.251,2.5908,0.5264l0.3379,0.6006l-9.5771,35.3057
		c-1.002,3.6055-2.1787,6.71-3.5303,9.3145c-1.3525,2.6289-3.1299,4.6445-5.334,6.0469
		C494.0742,519.7002,491.1572,520.4141,487.5264,520.4141L487.5264,520.4141z"/>
	<g id="text13" inkscape:label="2024text">
		<path id="path4" d="M265.6772,539.3818c0.6509-2.3291,1.7026-4.4443,3.1548-6.3477c1.4775-1.9287,3.3052-3.4561,5.4839-4.582
			c2.2031-1.1523,4.707-1.7275,7.5117-1.7275c3.2046,0,5.9966,0.626,8.3755,1.877c2.3789,1.2275,4.2192,2.9678,5.521,5.2217
			c1.3271,2.2285,1.9907,4.8574,1.9907,7.8867c0,2.1035-0.4131,4.0068-1.2393,5.709c-0.8262,1.7031-1.9155,3.2803-3.2676,4.7324
			c-1.3525,1.4521-2.8423,2.8672-4.4697,4.2441l-5.3711,4.207c-0.876,0.7256-1.8149,1.5146-2.8164,2.3662
			c-1.002,0.8506-1.8657,1.6777-2.5918,2.4785s-1.1016,1.4902-1.127,2.0654l-0.4131,7.9248h-7.2861
			c-1.0269-1.2012-1.9531-2.4033-2.7793-3.6055c-0.8018-1.2012-1.2021-2.5039-1.2021-3.9063c0-1.377,0.3882-2.7666,1.1641-4.1689
			c0.8018-1.4023,1.853-2.8037,3.1553-4.2061c1.3271-1.4277,2.7544-2.8301,4.2817-4.207l8.1499-7.0234
			c1.1021-0.9512,2.0283-1.9902,2.7798-3.1172c0.751-1.127,1.1265-2.4043,1.1265-3.8311c0-1.4277-0.4507-2.6289-1.3521-3.6055
			c-0.9014-1.002-2.1782-1.5029-3.8311-1.5029c-1.8027,0-3.2549,0.7012-4.3569,2.1035c-1.1016,1.377-1.8652,2.8799-2.291,4.5068
			c-1.377-0.0244-2.9297-0.3379-4.6572-0.9385c-1.7026-0.626-2.917-1.4775-3.6431-2.5547V539.3818z M298.9922,565.4473
			c0,3.7813-0.5762,6.3975-1.728,7.8496c-1.1265,1.4277-3.0171,2.1416-5.6714,2.1416h-21.709l-3.1172-6.9492
			c1.9277-0.7002,4.2188-1.2637,6.873-1.6895c2.6543-0.4512,5.3208-0.7891,8-1.0146c2.6792-0.2246,5.0205-0.3379,7.0234-0.3379
			H298.9922z"/>
		<path id="path6" d="M300.1514,551.5879c0-4.0059,0.3008-7.7119,0.9014-11.1172c0.6011-3.4307,2.0659-6.4355,4.3945-9.0137
			c1.4521-1.3779,3.1172-2.5049,4.9951-3.3809c1.8779-0.9014,4.332-1.3516,7.3623-1.3516c3.0791,0,5.5459,0.4502,7.3984,1.3516
			c1.8535,0.876,3.5059,2.0029,4.958,3.3809c2.3037,2.5781,3.7559,5.583,4.3564,9.0137c0.626,3.4053,0.9395,7.1113,0.9395,11.1172
			c0,3.9814-0.3135,7.6875-0.9395,11.1172c-0.6006,3.4063-2.0527,6.4102-4.3564,9.0146c-1.4521,1.377-3.1045,2.5166-4.958,3.418
			c-1.8525,0.876-4.3193,1.3145-7.3984,1.3145c-3.0303,0-5.4844-0.4385-7.3623-1.3145c-1.8779-0.9014-3.543-2.041-4.9951-3.418
			c-2.3037-2.6045-3.7686-5.6084-4.3945-9.0146C300.4521,559.2754,300.1514,555.5693,300.1514,551.5879z M312.1699,551.5879
			c0,3.3301,0.1006,6.0977,0.3008,8.3008c0.2256,2.2031,0.5762,3.8438,1.0518,4.9199c0.4004,0.9766,0.9893,1.6777,1.7656,2.1035
			c0.7754,0.4258,1.6143,0.6387,2.5166,0.6387c0.9512,0,1.8145-0.2002,2.5908-0.6016c0.7764-0.4248,1.3398-1.1387,1.6904-2.1406
			c0.4258-1.0762,0.751-2.7168,0.9766-4.9199c0.25-2.2031,0.376-4.9707,0.376-8.3008c0-3.4053-0.126-6.1846-0.376-8.3379
			c-0.2256-2.1787-0.5508-3.8057-0.9766-4.8828c-0.4004-0.9766-0.9766-1.6777-1.7275-2.1035s-1.6025-0.6377-2.5537-0.6377
			c-0.9023,0-1.7412,0.2119-2.5166,0.6377c-0.7764,0.4258-1.3652,1.127-1.7656,2.1035c-0.4258,1.0771-0.7637,2.7041-1.0137,4.8828
			c-0.2256,2.1533-0.3379,4.9326-0.3379,8.3379H312.1699z M336.8047,539.3818c0.6504-2.3291,1.7021-4.4453,3.1543-6.3477
			c1.4775-1.9287,3.3057-3.4561,5.4834-4.582c2.2041-1.1523,4.708-1.7285,7.5117-1.7285c3.2051,0,5.9971,0.626,8.376,1.8779
			c2.3789,1.2275,4.2188,2.9678,5.5215,5.2207c1.3271,2.2285,1.9902,4.8584,1.9902,7.8877c0,2.1035-0.4131,4.0068-1.2393,5.709
			c-0.8262,1.7031-1.916,3.2803-3.2676,4.7324c-1.3525,1.4521-2.8418,2.8672-4.4697,4.2441l-5.3711,4.207
			c-0.876,0.7256-1.8154,1.5146-2.8164,2.3662c-1.002,0.8506-1.8652,1.6777-2.5918,2.4785s-1.1016,1.4902-1.127,2.0654
			l-0.4131,7.9248h-7.2861c-1.0273-1.2012-1.9531-2.4033-2.7793-3.6055c-0.8018-1.2021-1.2021-2.5039-1.2021-3.9063
			c0-1.377,0.3877-2.7666,1.1641-4.1689c0.8018-1.4023,1.8535-2.8037,3.1553-4.2061c1.3271-1.4277,2.7539-2.8301,4.2813-4.207
			l8.1504-7.0234c1.1016-0.9512,2.0283-1.9902,2.7793-3.1172c0.752-1.127,1.127-2.4043,1.127-3.8311
			c0-1.4277-0.4502-2.6289-1.3516-3.6055c-0.9023-1.002-2.1787-1.5029-3.8311-1.5029c-1.8037,0-3.2559,0.7012-4.3574,2.1035
			c-1.1016,1.377-1.8652,2.8799-2.291,4.5068c-1.377-0.0244-2.9297-0.3379-4.6572-0.9385c-1.7031-0.626-2.917-1.4775-3.6436-2.5547
			L336.8047,539.3818z M370.1191,565.4473c0,3.7813-0.5762,6.3975-1.7275,7.8496c-1.127,1.4277-3.0176,2.1406-5.6719,2.1406h-21.709
			l-3.1172-6.9482c1.9277-0.7012,4.2188-1.2646,6.873-1.6895c2.6543-0.4512,5.3213-0.7891,8-1.0146
			c2.6797-0.2246,5.0205-0.3379,7.0234-0.3379H370.1191z M373.0811,566.9121c-0.7012-1.1523-1.3018-2.3789-1.8027-3.6807
			c-0.4756-1.3271-0.7139-2.5166-0.7139-3.5684c0-0.8262,0.1631-1.6904,0.4883-2.5918c0.3262-0.9014,0.626-1.6777,0.9023-2.3281
			l12.2813-27.4932c1.127-0.2256,2.4043-0.2627,3.8311-0.1133c1.4521,0.126,2.8047,0.4014,4.0566,0.8271
			c1.2764,0.4248,2.2158,0.9883,2.8164,1.6895l-5.0322,11.3428c-0.6016,1.377-1.3779,3.1055-2.3291,5.1836
			c-0.9512,2.0527-1.9658,4.1064-3.042,6.1592c-1.0771,2.0283-2.0908,3.6934-3.043,4.9961l0.2256,0.375
			c1.0264-0.125,2.2412-0.2256,3.6436-0.2998c1.4023-0.0752,2.7041-0.1377,3.9063-0.1885c1.2012-0.0498,2.0029-0.0752,2.4033-0.0752
			h9.0146c0.9512,0,1.6523-0.0127,2.1025-0.0371c0.4512-0.0254,1.1768-0.0381,2.1787-0.0381h2.0283
			c0.125,0.7012,0.2002,1.4023,0.2256,2.1035c0.0244,0.7002,0.0371,1.4014,0.0371,2.1025c0,0.7764-0.0498,1.666-0.1494,2.667
			c-0.1006,1.002-0.2881,1.9404-0.5635,2.8174h-1.5781c-1.001,0-1.7275,0-2.1777,0c-0.4512,0-1.1523,0-2.1035,0h-11.1924
			c-0.9766,0-1.9033,0.0244-2.7793,0.0752c-0.8516,0.0498-1.7783,0.0752-2.7793,0.0752H373.0811z M389.4199,572.208
			c0-1.002,0.0117-1.916,0.0371-2.7422c0.0254-0.8506,0.0381-1.7529,0.0381-2.7041v-7.7373c0-0.2754-0.0127-0.8135-0.0381-1.6143
			c-0.0254-0.8018-0.0371-1.3652-0.0371-1.6904v-2.4414c0-2.8545,0.7002-5.1211,2.1025-6.7979
			c1.4277-1.7031,3.4307-2.5547,6.0098-2.5547h2.7041l0.5264,0.5264v7.2861c0,1.002-0.0127,1.916-0.0381,2.7422
			s-0.0381,1.7148-0.0381,2.666v9.6152c0,0.9512,0.0127,1.8535,0.0381,2.7041c0.0254,0.8262,0.0381,1.7402,0.0381,2.7422v3.1553
			c-1.0273,0.1748-2.0283,0.2871-3.0049,0.3379c-0.9521,0.0498-1.8535,0.0752-2.7041,0.0752c-0.8271,0-1.7158-0.0254-2.667-0.0752
			c-0.9512-0.0508-1.9404-0.1631-2.9668-0.3379V572.208z"/>
	</g>
	<linearGradient id="path7_2_" gradientUnits="userSpaceOnUse" x1="255.6348" y1="130.6846" x2="342.5192" y2="324.7681">
		<stop  offset="0" style="stop-color:#000000"/>
		<stop  offset="1" style="stop-color:#FFFFFF"/>
	</linearGradient>
	
		<path id="path7" inkscape:label="duomostrroke_" sodipodi:nodetypes="cccccccccccccccccccccccccccccccccccccccccc" opacity="0.3" fill="url(#path7_2_)" d="
		M546.3994,270.8018l-27.3672-21.0928v-47.0176l-10.5088-81.772l-10.5098,81.772v30.8149l-38.4775-29.6587v-35.937l-10.5098-81.7715
		l-10.5088,81.7715l-10.5107-81.7715l-10.5078,81.7715v3.5356l-55.875-43.0654l-55.874,43.0654v-3.5356l-10.5098-81.7715
		l-10.5093,81.7715l-10.5098-81.7715l-10.5098,81.7715v35.937l-38.4761,29.6582v-30.8145l-10.5098-81.772l-10.5098,81.772v47.0176
		l-37.8057,29.1401v-31.5815l-10.5098-81.7715l-10.5093,81.7715l-10.5098-81.7715l-10.5103,81.7715v67.9482v96.9229"/>
	
		<path id="path35" inkscape:label="spectrum_carved" sodipodi:nodetypes="ccccccccccccccccccccccccccccccscscscscscccccssscsssccsssscscscscssccssccssccscccssssscscsscscsssscssssccscccscssssssccccccsssscscssccsccccsccsscscssccsccssssscsssccsssssccsccssssccssccssccscccssssssccscscccssscsssssccscscccssscsccscccccscsccsccss" fill="#FF6F69" d="
		M242.1797,199.5938v214.8887h36.5762V199.5938H242.1797z M442.6309,199.5938v214.8887h36.5762V199.5938H442.6309z
		 M292.293,249.8867v164.5957h36.5762V249.8867H292.293z M392.5176,263.6035v150.8789h36.5781V263.6035H392.5176z
		 M192.0664,291.0352v123.4473h36.5781V291.0352H192.0664z M492.7441,291.0352v123.4473h36.5762V291.0352H492.7441z
		 M460.375,316.7441c1.4717,0,3.3281,0.3203,4.1602,0.832c0.4482,1.0239,0.6406,2.3042,0.6406,3.3281
		c0,1.0879-0.1924,2.3042-0.6406,3.3281c-0.832,0.5122-2.6885,0.8965-4.1602,0.8965s-3.3281-0.3843-4.1602-0.8965
		c-0.4482-1.0239-0.6387-2.2402-0.6387-3.3281s0.1904-2.3042,0.6387-3.3281C457.1748,317.0645,458.9033,316.7441,460.375,316.7441z
		 M342.4063,321.5283v92.9541h36.5762v-92.9541H342.4063z M512.248,329.0313c7.4883,0,12.0313,4.7373,12.0313,10.1133
		c0,2.8154-1.5986,4.2871-4.1582,4.2871c-1.4082,0-2.3682-0.0645-3.3926-0.3203c0.0645-4.5439-0.7041-7.8066-4.6719-7.8066
		c-3.5195,0-5.1211,3.3916-5.1211,10.623s2.2402,9.9844,6.3359,9.9844c2.6875,0,5.3115-1.4072,7.4238-2.9434
		c1.3438,0.832,2.8818,3.0713,3.2656,4.7988c-2.8799,2.8799-7.3604,4.8008-11.9688,4.8008c-9.2158,0-13.6328-7.1045-13.6328-16.6406
		C498.3594,333.7676,505.3359,329.0313,512.248,329.0313z M360.5977,329.3516c3.9043,0,7.2334,1.1519,9.793,3.584
		c3.3916,3.3921,4.543,7.7432,4.543,13.1836s-1.1514,9.7295-4.543,13.1211c-2.5596,2.4961-5.8887,3.6484-9.793,3.6484
		c-3.8398,0-7.168-1.1523-9.7285-3.6484c-3.3916-3.3916-4.543-7.6807-4.543-13.1211s1.1514-9.7915,4.543-13.1836
		C353.4297,330.5034,356.7578,329.3516,360.5977,329.3516z M311.4453,329.6074c3.584,0,8.3848,1.1523,11.1367,2.4961
		c0.0645,1.9839-1.0254,4.8008-2.3691,5.8887c-2.4316-1.0879-5.6318-2.2402-8.7676-2.2402c-2.2402,0-3.584,1.2168-3.584,2.8809
		c0,1.4082,1.0234,2.3027,3.1992,3.1348l3.9043,1.4082c4.7998,1.792,8.3203,4.7998,8.3203,9.9844
		c0,6.1436-5.1191,9.9844-12.6074,9.9844c-4.8643,0-9.2803-1.4727-12.1602-3.1367c0.064-1.8564,1.2158-4.4795,2.4961-5.7598
		c2.752,1.4717,6.1426,2.752,8.8945,2.752c3.0078,0,4.6719-1.2803,4.7363-3.0723c0-1.5361-1.1514-2.752-3.4551-3.584L307.6055,349
		c-4.48-1.6641-8.0645-4.3525-8.0645-9.4082C299.541,333.4478,304.4053,329.6074,311.4453,329.6074z M458.6484,329.6719h1.0879
		c3.7764,0,6.1426,2.5605,6.1426,6.7207v25.2793c-1.1523,0.1924-2.6885,0.3203-4.1602,0.3203s-3.0068-0.1279-4.2227-0.3203v-22.2715
		c0-2.1758-0.7051-3.5195-2.8809-3.5195h-0.832c-0.2559-0.96-0.3828-1.8569-0.3828-2.8809c0-0.96,0.126-2.0479,0.3828-3.0078
		C455.5752,329.8003,457.4326,329.6719,458.6484,329.6719z M414.2305,329.9277c5.8877,0,8.7051,4.6074,8.7051,10.9434v13.9531
		c0,2.3682,0.3193,4.5439,1.3438,6.0801c-1.2158,1.0244-3.2002,1.791-5.248,1.791c-3.3281,0-4.4805-1.792-4.4805-5.1836v-14.9121
		c0-3.584-0.7041-5.1836-3.3281-5.1836c-1.8555,0-4.3516,1.0244-6.3359,3.0723v21.7598c-1.1523,0.1924-2.6885,0.3203-4.1602,0.3203
		c-1.4082,0-3.0078-0.1279-4.1602-0.3203v-31.6797l0.3848-0.4492h3.1992c2.5605,0,3.9688,1.4097,4.4805,3.8418
		C407.3193,331.6572,410.5186,329.9277,414.2305,329.9277L414.2305,329.9277z M360.6621,335.625
		c-4.7363,0-5.7598,4.8623-5.7598,10.4941c0,5.5674,1.0234,10.4336,5.7598,10.4336c4.6719,0,5.6953-4.8662,5.6953-10.4336
		C366.3574,340.4873,365.334,335.625,360.6621,335.625z M141.9551,341.3281v73.1543h36.5762v-73.1543H141.9551z M254.1328,363.0586
		h3.1992c3.3921,0,4.5449,1.4717,4.5449,5.1836v32.832c0,1.9199,0.7676,2.9434,2.6875,2.9434h1.9844
		c0.4482,1.1523,0.7031,2.623,0.7031,4.0313c0,0.6396-0.064,1.3457-0.1914,1.8574c-1.728,0.2559-4.0972,0.5762-6.209,0.5762
		c-4.9922,0-7.168-2.4961-7.168-7.8086v-39.168L254.1328,363.0586z M309.5566,368.6895h3.2012l0.4473,0.3848v9.4082l7.7441-0.1289
		c0.2559,1.0244,0.3848,1.9834,0.3848,2.9434c0,1.0879-0.1299,2.0479-0.3848,3.0723l-7.7441-0.127v16.832
		c0,1.8555,0.7676,2.9434,2.752,2.9434h3.9688c0.3838,1.1523,0.6387,2.6875,0.6387,4.0313c0,0.6396,0.001,1.3457-0.1914,1.8574
		c-2.1758,0.3203-5.1836,0.5762-7.6797,0.5762c-5.1201,0-7.6797-2.4971-7.6797-7.8086v-18.3672l-4.8652,0.0625
		c-0.2559-1.0244-0.3184-1.9844-0.3184-3.0723c0-0.96,0.062-1.9189,0.3184-2.9434l4.8652,0.0645v-4.6074
		C305.0137,370.0986,306.165,368.6895,309.5566,368.6895L309.5566,368.6895z M161.1699,376.9453
		c7.4878,0,12.0332,4.7373,12.0332,10.1133c0,2.8154-1.6001,4.2871-4.1602,4.2871c-1.4082,0-2.3687-0.0645-3.3926-0.3203
		c0.064-4.5439-0.7041-7.8086-4.6719-7.8086c-3.52,0-5.1191,3.3936-5.1191,10.625c0,7.2324,2.2402,9.9844,6.3359,9.9844
		c2.688,0,5.312-1.4092,7.4238-2.9453c1.3438,0.832,2.8799,3.0732,3.2637,4.8008c-2.8799,2.8799-7.3608,4.8008-11.9688,4.8008
		c-9.2158,0-13.6309-7.1045-13.6309-16.6406C147.2832,381.6816,154.2578,376.9453,161.1699,376.9453z M461.3027,376.9453
		c8.3838,0,13.0566,5.8887,13.0566,13.5684c0,2.4961-0.1914,3.9053-0.7031,5.8887h-17.6641
		c0.2559,4.3516,1.6631,7.5508,6.5273,7.5508c3.0723,0,5.9531-0.96,8.6406-2.1758c1.2803,1.2803,2.1113,3.3926,2.3672,5.0566
		c-3.2002,2.3037-7.8066,3.6484-12.2871,3.6484c-10.752,0-13.7598-8.0645-13.7598-16.6406
		C447.4805,384.2412,451.7666,376.9453,461.3027,376.9453z M511.5762,376.9453c3.584,0,8.3848,1.1523,11.1367,2.4961
		c0.0635,1.9834-1.0254,4.8008-2.3691,5.8887c-2.4316-1.0879-5.6318-2.2402-8.7676-2.2402c-2.2402,0-3.584,1.2148-3.584,2.8789
		c0,1.4082,1.0234,2.3047,3.1992,3.1367l3.9043,1.4082c4.7998,1.792,8.3203,4.7998,8.3203,9.9844
		c0,6.1436-5.1191,9.9844-12.6074,9.9844c-4.8643,0-9.2803-1.4727-12.1602-3.1367c0.0635-1.8555,1.2158-4.4795,2.4961-5.7598
		c2.752,1.4717,6.1445,2.752,8.8965,2.752c3.0078,0,4.6699-1.2803,4.7344-3.0723c0-1.5361-1.1514-2.752-3.4551-3.584l-3.584-1.3438
		c-4.4805-1.6641-8.0645-4.3525-8.0645-9.4082C499.6719,380.7861,504.5361,376.9453,511.5762,376.9453z M200.8203,377.6504
		c3.3281,0,4.4785,1.8564,4.4785,5.248v14.9121c0,3.584,0.7041,5.1191,3.3281,5.1191c1.792,0,4.3521-0.959,6.3359-2.9434v-21.8242
		c1.1519-0.2559,2.688-0.3203,4.1602-0.3203c1.4717,0,3.0088,0.0645,4.2246,0.3203v22.7188c0,2.2402,0.5752,4.2891,1.791,5.3125
		c-0.3838,1.4717-1.5986,3.3926-2.8145,4.2246c-3.2002-0.3203-5.377-2.0488-6.4648-4.5449
		c-2.752,2.5596-6.208,4.6094-10.1758,4.6094c-5.9521,0-8.7676-4.6729-8.7676-10.9453v-14.0156
		c0-2.3682-0.3198-4.4795-1.3438-6.0801C196.7881,378.417,198.7725,377.6504,200.8203,377.6504L200.8203,377.6504z
		 M351.1582,377.6504c3.3281,0,4.4805,1.8564,4.4805,5.248v14.9121c0,3.584,0.7041,5.1191,3.3281,5.1191
		c1.792,0,4.3516-0.959,6.3359-2.9434v-21.8242c1.1523-0.2559,2.6865-0.3203,4.1582-0.3203s3.0088,0.0645,4.2246,0.3203v22.7188
		c0,2.2402,0.5771,4.2891,1.793,5.3125c-0.3838,1.4717-1.6006,3.3926-2.8164,4.2246c-3.2002-0.3203-5.377-2.0488-6.4648-4.5449
		c-2.752,2.5596-6.208,4.6094-10.1758,4.6094c-5.9521,0-8.7676-4.6729-8.7676-10.9453v-14.0156
		c0-2.3682-0.3203-4.4795-1.3438-6.0801C347.126,378.417,349.1104,377.6504,351.1582,377.6504L351.1582,377.6504z
		 M402.6152,377.9063c3.584,0.4482,5.8877,2.5596,7.1035,5.7598c1.4082-3.2637,3.9053-5.6973,8.1289-5.6973
		c1.5996,0,2.624,0.1299,3.8398,0.4492c0,2.0479-0.6406,5.5049-2.0488,7.8086c-0.96-0.3193-1.9834-0.3857-2.9434-0.4492
		c-2.8799,0-4.6738,1.665-6.0176,3.9688v20.416c-1.1523,0.1924-2.751,0.3203-4.2227,0.3203c-1.4082,0-2.9443-0.1279-4.1602-0.3203
		v-21.3125c0-3.584-1.3447-5.6963-2.3691-6.5918C400.2461,380.7861,401.4629,378.7383,402.6152,377.9063z M461.3027,382.9609
		c-3.4561,0-5.1191,2.6885-5.375,7.5527h10.623v-0.7676C466.5508,386.0342,465.0791,382.9609,461.3027,382.9609z"/>
	
		<path id="path7_1_" inkscape:label="duomostrroke_" sodipodi:nodetypes="cccccccccccccccccccccccccccccccccccccccccc" display="none" fill="none" stroke="#000000" stroke-width="5" stroke-linecap="round" stroke-linejoin="round" d="
		M336.6377,128.3809l-49.7539,43.0654v-3.5356l-9.3589-81.7715l-9.3584,81.7715l-9.3584-81.7715l-9.3589,81.7715v35.937
		l-34.2617,29.6582v-30.8145l-9.3584-81.772l-9.3589,81.772v47.0176l-33.6646,29.1401v-31.5815l-9.3589-81.7715l-9.3584,81.7715
		l-9.3584-81.7715l-9.3589,81.7715v67.9482v96.9229 M336.6377,128.3809l49.7539,43.0654v-3.5356l9.3584-81.7715l9.3584,81.7715
		l9.3584-81.7715l9.3584,81.7715v35.937l34.2627,29.6587v-30.8149l9.3584-81.772l9.3584,81.772v47.0176l33.665,29.1401v-31.5815
		l9.3584-81.7715l9.3584,81.7715l9.3584-81.7715l9.3584,81.7715v67.9482v96.9229"/>
	
		<path id="path35_1_" inkscape:label="spectrum_carved" sodipodi:nodetypes="ccccccccccccccccccccccccccccccscscscscscccccssscsssccsssscscscscssccssccssccscccssssscscsscscsssscssssccscccscssssssccccccsssscscssccsccccsccsscscssccsccssssscsssccsssssccsccssssccssccssccscccssssssccscscccssscsssssccscscccssscsccscccccscsccsccss" display="none" fill="#FF6F69" d="
		M243.1797,199.5938v214.8887h36.5762V199.5938H243.1797z M443.6309,199.5938v214.8887h36.5762V199.5938H443.6309z
		 M293.293,249.8867v164.5957h36.5762V249.8867H293.293z M393.5176,263.6035v150.8789h36.5781V263.6035H393.5176z
		 M193.0664,291.0352v123.4473h36.5781V291.0352H193.0664z M493.7441,291.0352v123.4473h36.5762V291.0352H493.7441z
		 M461.375,316.7441c1.4717,0,3.3281,0.3203,4.1602,0.832c0.4482,1.0239,0.6406,2.3042,0.6406,3.3281
		c0,1.0879-0.1924,2.3042-0.6406,3.3281c-0.832,0.5122-2.6885,0.8965-4.1602,0.8965s-3.3281-0.3843-4.1602-0.8965
		c-0.4482-1.0239-0.6387-2.2402-0.6387-3.3281s0.1904-2.3042,0.6387-3.3281C458.1748,317.0645,459.9033,316.7441,461.375,316.7441z
		 M343.4063,321.5283v92.9541h36.5762v-92.9541H343.4063z M513.248,329.0313c7.4883,0,12.0313,4.7373,12.0313,10.1133
		c0,2.8154-1.5986,4.2871-4.1582,4.2871c-1.4082,0-2.3682-0.0645-3.3926-0.3203c0.0645-4.5439-0.7041-7.8066-4.6719-7.8066
		c-3.5195,0-5.1211,3.3916-5.1211,10.623s2.2402,9.9844,6.3359,9.9844c2.6875,0,5.3115-1.4072,7.4238-2.9434
		c1.3438,0.832,2.8818,3.0713,3.2656,4.7988c-2.8799,2.8799-7.3604,4.8008-11.9688,4.8008c-9.2158,0-13.6328-7.1045-13.6328-16.6406
		C499.3594,333.7676,506.3359,329.0313,513.248,329.0313z M361.5977,329.3516c3.9043,0,7.2334,1.1519,9.793,3.584
		c3.3916,3.3921,4.543,7.7432,4.543,13.1836s-1.1514,9.7295-4.543,13.1211c-2.5596,2.4961-5.8887,3.6484-9.793,3.6484
		c-3.8398,0-7.168-1.1523-9.7285-3.6484c-3.3916-3.3916-4.543-7.6807-4.543-13.1211s1.1514-9.7915,4.543-13.1836
		C354.4297,330.5034,357.7578,329.3516,361.5977,329.3516z M312.4453,329.6074c3.584,0,8.3848,1.1523,11.1367,2.4961
		c0.0645,1.9839-1.0254,4.8008-2.3691,5.8887c-2.4316-1.0879-5.6318-2.2402-8.7676-2.2402c-2.2402,0-3.584,1.2168-3.584,2.8809
		c0,1.4082,1.0234,2.3027,3.1992,3.1348l3.9043,1.4082c4.7998,1.792,8.3203,4.7998,8.3203,9.9844
		c0,6.1436-5.1191,9.9844-12.6074,9.9844c-4.8643,0-9.2803-1.4727-12.1602-3.1367c0.064-1.8564,1.2158-4.4795,2.4961-5.7598
		c2.752,1.4717,6.1426,2.752,8.8945,2.752c3.0078,0,4.6719-1.2803,4.7363-3.0723c0-1.5361-1.1514-2.752-3.4551-3.584L308.6055,349
		c-4.48-1.6641-8.0645-4.3525-8.0645-9.4082C300.541,333.4478,305.4053,329.6074,312.4453,329.6074z M459.6484,329.6719h1.0879
		c3.7764,0,6.1426,2.5605,6.1426,6.7207v25.2793c-1.1523,0.1924-2.6885,0.3203-4.1602,0.3203s-3.0068-0.1279-4.2227-0.3203v-22.2715
		c0-2.1758-0.7051-3.5195-2.8809-3.5195h-0.832c-0.2559-0.96-0.3828-1.8569-0.3828-2.8809c0-0.96,0.126-2.0479,0.3828-3.0078
		C456.5752,329.8003,458.4326,329.6719,459.6484,329.6719z M415.2305,329.9277c5.8877,0,8.7051,4.6074,8.7051,10.9434v13.9531
		c0,2.3682,0.3193,4.5439,1.3438,6.0801c-1.2158,1.0244-3.2002,1.791-5.248,1.791c-3.3281,0-4.4805-1.792-4.4805-5.1836v-14.9121
		c0-3.584-0.7041-5.1836-3.3281-5.1836c-1.8555,0-4.3516,1.0244-6.3359,3.0723v21.7598c-1.1523,0.1924-2.6885,0.3203-4.1602,0.3203
		c-1.4082,0-3.0078-0.1279-4.1602-0.3203v-31.6797l0.3848-0.4492h3.1992c2.5605,0,3.9688,1.4097,4.4805,3.8418
		C408.3193,331.6572,411.5186,329.9277,415.2305,329.9277L415.2305,329.9277z M361.6621,335.625
		c-4.7363,0-5.7598,4.8623-5.7598,10.4941c0,5.5674,1.0234,10.4336,5.7598,10.4336c4.6719,0,5.6953-4.8662,5.6953-10.4336
		C367.3574,340.4873,366.334,335.625,361.6621,335.625z M142.9551,341.3281v73.1543h36.5762v-73.1543H142.9551z M255.1328,363.0586
		h3.1992c3.3921,0,4.5449,1.4717,4.5449,5.1836v32.832c0,1.9199,0.7676,2.9434,2.6875,2.9434h1.9844
		c0.4482,1.1523,0.7031,2.623,0.7031,4.0313c0,0.6396-0.064,1.3457-0.1914,1.8574c-1.728,0.2559-4.0972,0.5762-6.209,0.5762
		c-4.9922,0-7.168-2.4961-7.168-7.8086v-39.168L255.1328,363.0586z M310.5566,368.6895h3.2012l0.4473,0.3848v9.4082l7.7441-0.1289
		c0.2559,1.0244,0.3848,1.9834,0.3848,2.9434c0,1.0879-0.1299,2.0479-0.3848,3.0723l-7.7441-0.127v16.832
		c0,1.8555,0.7676,2.9434,2.752,2.9434h3.9688c0.3838,1.1523,0.6387,2.6875,0.6387,4.0313c0,0.6396,0.001,1.3457-0.1914,1.8574
		c-2.1758,0.3203-5.1836,0.5762-7.6797,0.5762c-5.1201,0-7.6797-2.4971-7.6797-7.8086v-18.3672l-4.8652,0.0625
		c-0.2559-1.0244-0.3184-1.9844-0.3184-3.0723c0-0.96,0.062-1.9189,0.3184-2.9434l4.8652,0.0645v-4.6074
		C306.0137,370.0986,307.165,368.6895,310.5566,368.6895L310.5566,368.6895z M162.1699,376.9453
		c7.4878,0,12.0332,4.7373,12.0332,10.1133c0,2.8154-1.6001,4.2871-4.1602,4.2871c-1.4082,0-2.3687-0.0645-3.3926-0.3203
		c0.064-4.5439-0.7041-7.8086-4.6719-7.8086c-3.52,0-5.1191,3.3936-5.1191,10.625c0,7.2324,2.2402,9.9844,6.3359,9.9844
		c2.688,0,5.312-1.4092,7.4238-2.9453c1.3438,0.832,2.8799,3.0732,3.2637,4.8008c-2.8799,2.8799-7.3608,4.8008-11.9688,4.8008
		c-9.2158,0-13.6309-7.1045-13.6309-16.6406C148.2832,381.6816,155.2578,376.9453,162.1699,376.9453z M462.3027,376.9453
		c8.3838,0,13.0566,5.8887,13.0566,13.5684c0,2.4961-0.1914,3.9053-0.7031,5.8887h-17.6641
		c0.2559,4.3516,1.6631,7.5508,6.5273,7.5508c3.0723,0,5.9531-0.96,8.6406-2.1758c1.2803,1.2803,2.1113,3.3926,2.3672,5.0566
		c-3.2002,2.3037-7.8066,3.6484-12.2871,3.6484c-10.752,0-13.7598-8.0645-13.7598-16.6406
		C448.4805,384.2412,452.7666,376.9453,462.3027,376.9453z M512.5762,376.9453c3.584,0,8.3848,1.1523,11.1367,2.4961
		c0.0635,1.9834-1.0254,4.8008-2.3691,5.8887c-2.4316-1.0879-5.6318-2.2402-8.7676-2.2402c-2.2402,0-3.584,1.2148-3.584,2.8789
		c0,1.4082,1.0234,2.3047,3.1992,3.1367l3.9043,1.4082c4.7998,1.792,8.3203,4.7998,8.3203,9.9844
		c0,6.1436-5.1191,9.9844-12.6074,9.9844c-4.8643,0-9.2803-1.4727-12.1602-3.1367c0.0635-1.8555,1.2158-4.4795,2.4961-5.7598
		c2.752,1.4717,6.1445,2.752,8.8965,2.752c3.0078,0,4.6699-1.2803,4.7344-3.0723c0-1.5361-1.1514-2.752-3.4551-3.584l-3.584-1.3438
		c-4.4805-1.6641-8.0645-4.3525-8.0645-9.4082C500.6719,380.7861,505.5361,376.9453,512.5762,376.9453z M201.8203,377.6504
		c3.3281,0,4.4785,1.8564,4.4785,5.248v14.9121c0,3.584,0.7041,5.1191,3.3281,5.1191c1.792,0,4.3521-0.959,6.3359-2.9434v-21.8242
		c1.1519-0.2559,2.688-0.3203,4.1602-0.3203c1.4717,0,3.0088,0.0645,4.2246,0.3203v22.7188c0,2.2402,0.5752,4.2891,1.791,5.3125
		c-0.3838,1.4717-1.5986,3.3926-2.8145,4.2246c-3.2002-0.3203-5.377-2.0488-6.4648-4.5449
		c-2.752,2.5596-6.208,4.6094-10.1758,4.6094c-5.9521,0-8.7676-4.6729-8.7676-10.9453v-14.0156
		c0-2.3682-0.3198-4.4795-1.3438-6.0801C197.7881,378.417,199.7725,377.6504,201.8203,377.6504L201.8203,377.6504z
		 M352.1582,377.6504c3.3281,0,4.4805,1.8564,4.4805,5.248v14.9121c0,3.584,0.7041,5.1191,3.3281,5.1191
		c1.792,0,4.3516-0.959,6.3359-2.9434v-21.8242c1.1523-0.2559,2.6865-0.3203,4.1582-0.3203s3.0088,0.0645,4.2246,0.3203v22.7188
		c0,2.2402,0.5771,4.2891,1.793,5.3125c-0.3838,1.4717-1.6006,3.3926-2.8164,4.2246c-3.2002-0.3203-5.377-2.0488-6.4648-4.5449
		c-2.752,2.5596-6.208,4.6094-10.1758,4.6094c-5.9521,0-8.7676-4.6729-8.7676-10.9453v-14.0156
		c0-2.3682-0.3203-4.4795-1.3438-6.0801C348.126,378.417,350.1104,377.6504,352.1582,377.6504L352.1582,377.6504z
		 M403.6152,377.9063c3.584,0.4482,5.8877,2.5596,7.1035,5.7598c1.4082-3.2637,3.9053-5.6973,8.1289-5.6973
		c1.5996,0,2.624,0.1299,3.8398,0.4492c0,2.0479-0.6406,5.5049-2.0488,7.8086c-0.96-0.3193-1.9834-0.3857-2.9434-0.4492
		c-2.8799,0-4.6738,1.665-6.0176,3.9688v20.416c-1.1523,0.1924-2.751,0.3203-4.2227,0.3203c-1.4082,0-2.9443-0.1279-4.1602-0.3203
		v-21.3125c0-3.584-1.3447-5.6963-2.3691-6.5918C401.2461,380.7861,402.4629,378.7383,403.6152,377.9063z M462.3027,382.9609
		c-3.4561,0-5.1191,2.6885-5.375,7.5527h10.623v-0.7676C467.5508,386.0342,466.0791,382.9609,462.3027,382.9609z"/>
</g>
</svg>
