<?xml version='1.0' encoding='UTF-8' standalone='no'?>
<!-- Created with Fritzing (https://fritzing.org/) -->
<svg xmlns="http://www.w3.org/2000/svg" x="0in" height="1.60767in" width="3.61209in" xmlns:svg="http://www.w3.org/2000/svg" viewBox="0 0 260.07 115.752"  y="0in" version="1.2" baseProfile="tiny">
 <g  id="watermark">
  <g >
   <g >
    <path  fill="#8C8C8C" d="M235.338,109.552c-0.604,0,-1.131,0.325,-1.422,0.809l-2.796,0l3.96,-4.071c0.146,-0.146,0.289,-0.322,0.428,-0.521c0.149,-0.222,0.228,-0.479,0.228,-0.768c0,-0.279,-0.097,-0.518,-0.287,-0.71c-0.19,-0.188,-0.444,-0.287,-0.754,-0.287l-4.636,0c-0.305,0,-0.555,0.06,-0.742,0.17c-0.219,0.13,-0.33,0.368,-0.33,0.707c0,0.329,0.111,0.562,0.33,0.692c0.188,0.111,0.438,0.168,0.742,0.168l3.148,0l-3.974,4.086c-0.146,0.147,-0.289,0.315,-0.425,0.504c-0.153,0.212,-0.23,0.472,-0.23,0.771c0,0.28,0.096,0.521,0.288,0.711c0.188,0.188,0.442,0.285,0.754,0.285l4.315,0c0.293,0.467,0.812,0.776,1.4,0.776c0.916,0,1.66,-0.744,1.66,-1.661C236.997,110.297,236.252,109.552,235.338,109.552zM235.338,111.815c-0.334,0,-0.604,-0.271,-0.604,-0.604c0,-0.333,0.27,-0.604,0.604,-0.604c0.332,0,0.604,0.271,0.604,0.604C235.941,111.546,235.67,111.815,235.338,111.815z"/>
    <path  fill="#8C8C8C" d="M218.395,99.5101c-0.914,0,-1.659,0.745,-1.659,1.66c0,0.916,0.745,1.66,1.659,1.66s1.658,-0.744,1.658,-1.66C220.055,100.255,219.311,99.5101,218.395,99.5101zM218.396,101.773c-0.333,0,-0.604,-0.27,-0.604,-0.603s0.271,-0.603,0.604,-0.603c0.331,0,0.604,0.27,0.604,0.603S218.727,101.773,218.396,101.773z"/>
    <path  fill="#8C8C8C" d="M226.916,104.172c-0.193,-0.111,-0.439,-0.169,-0.732,-0.169l-1.465,0L224.719,101.481c0,-0.292,-0.057,-0.538,-0.166,-0.729C224.463,100.595,224.27,100.41,223.86,100.41c-0.34,0,-0.578,0.116,-0.709,0.342c-0.109,0.193,-0.167,0.438,-0.167,0.729l0,2.521l-0.481,0c-0.295,0,-0.539,0.06,-0.731,0.169c-0.228,0.129,-0.341,0.368,-0.341,0.708c0,0.412,0.185,0.603,0.341,0.692c0.192,0.111,0.438,0.168,0.731,0.168l0.481,0l0,4.362c0,0.277,0.026,0.533,0.081,0.768c0.056,0.246,0.154,0.464,0.298,0.645c0.146,0.186,0.345,0.332,0.595,0.436c0.241,0.098,0.555,0.146,0.93,0.146l0.896,0c0.292,0,0.539,-0.054,0.731,-0.166c0.154,-0.089,0.341,-0.281,0.341,-0.693c0,-0.338,-0.114,-0.578,-0.341,-0.709c-0.192,-0.109,-0.439,-0.168,-0.731,-0.168l-0.821,0c-0.138,0,-0.19,-0.019,-0.207,-0.024c-0.014,-0.034,-0.035,-0.103,-0.035,-0.231L224.721,105.74l1.465,0c0.295,0,0.541,-0.057,0.734,-0.168c0.152,-0.09,0.34,-0.28,0.34,-0.692C227.256,104.54,227.143,104.301,226.916,104.172z"/>
    <path  fill="#8C8C8C" d="M218.461,104.002l-1.191,0c-0.292,0,-0.538,0.059,-0.731,0.169c-0.226,0.129,-0.341,0.368,-0.341,0.708c0,0.412,0.188,0.604,0.341,0.691c0.193,0.113,0.439,0.168,0.731,0.168l0.544,0l0,5.362c0,0.293,0.057,0.539,0.167,0.73c0.131,0.227,0.367,0.341,0.708,0.341c0.411,0,0.604,-0.187,0.692,-0.341c0.111,-0.191,0.168,-0.438,0.168,-0.73L219.549,105.09c0,-0.386,-0.084,-0.656,-0.256,-0.83C219.118,104.088,218.848,104.002,218.461,104.002z"/>
    <path  fill="#8C8C8C" d="M214.626,104.172c-0.193,-0.111,-0.44,-0.169,-0.732,-0.169l-0.604,0c-0.25,0,-0.498,0.063,-0.734,0.187c-0.226,0.119,-0.433,0.271,-0.616,0.453l-0.644,0.604l0,-0.247c0,-0.291,-0.055,-0.538,-0.168,-0.729c-0.128,-0.228,-0.368,-0.34,-0.707,-0.34c-0.41,0,-0.604,0.184,-0.693,0.34c-0.11,0.191,-0.167,0.438,-0.167,0.729l0,4.801c-0.475,0.293,-0.791,0.816,-0.791,1.412c0,0.917,0.745,1.661,1.658,1.661c0.916,0,1.66,-0.744,1.66,-1.661c0,-0.596,-0.317,-1.119,-0.792,-1.412l0,-2.21l1.738,-1.564c0.1,-0.09,0.199,-0.164,0.297,-0.217c0.084,-0.045,0.174,-0.067,0.274,-0.067l0.288,0c0.292,0,0.539,-0.056,0.732,-0.169c0.155,-0.088,0.339,-0.279,0.339,-0.691C214.966,104.54,214.851,104.301,214.626,104.172zM210.427,111.815c-0.332,0,-0.603,-0.271,-0.603,-0.604c0,-0.333,0.271,-0.604,0.603,-0.604c0.333,0,0.604,0.271,0.604,0.604C211.031,111.546,210.76,111.815,210.427,111.815z"/>
    <path  fill="#8C8C8C" d="M207.91,100.653c-0.193,-0.111,-0.44,-0.167,-0.731,-0.167l-0.59,0c-0.2,0,-0.389,0.004,-0.562,0.016c-0.176,0.009,-0.345,0.035,-0.506,0.07c-0.168,0.041,-0.336,0.109,-0.496,0.202c-0.158,0.093,-0.319,0.222,-0.48,0.382c-0.334,0.314,-0.554,0.656,-0.652,1.017c-0.094,0.348,-0.143,0.735,-0.143,1.151l0,0.678l-0.483,0c-0.292,0,-0.539,0.059,-0.73,0.169c-0.227,0.13,-0.342,0.369,-0.342,0.708c0,0.412,0.185,0.604,0.341,0.693c0.191,0.111,0.438,0.166,0.73,0.166l0.483,0l0,5.362c0,0.293,0.057,0.539,0.167,0.73c0.13,0.227,0.367,0.341,0.708,0.341c0.411,0,0.603,-0.187,0.692,-0.341c0.111,-0.191,0.168,-0.438,0.168,-0.73l0,-5.36l0.92,0c0.293,0,0.54,-0.057,0.732,-0.168c0.155,-0.09,0.34,-0.28,0.34,-0.692c0,-0.34,-0.114,-0.579,-0.34,-0.708c-0.189,-0.111,-0.436,-0.17,-0.729,-0.17l-0.92,0l0,-0.678c0,-0.218,0.019,-0.41,0.056,-0.571c0.032,-0.141,0.103,-0.261,0.218,-0.367l0.002,-0.004l0.002,-0.002c0.082,-0.082,0.176,-0.126,0.29,-0.136c0.15,-0.015,0.339,-0.022,0.564,-0.022l0.56,0c0.291,0,0.539,-0.058,0.731,-0.168c0.154,-0.088,0.339,-0.281,0.339,-0.693C208.25,101.022,208.135,100.783,207.91,100.653z"/>
    <path  fill="#8C8C8C" d="M259.903,104.27c-0.089,-0.156,-0.282,-0.34,-0.693,-0.34c-0.339,0,-0.578,0.113,-0.707,0.34c-0.078,0.133,-0.127,0.293,-0.152,0.477l-0.021,-0.021c-0.216,-0.236,-0.466,-0.42,-0.747,-0.539c-0.277,-0.119,-0.563,-0.183,-0.849,-0.183l-0.709,0c-0.249,0,-0.466,0.015,-0.64,0.041c-0.182,0.026,-0.352,0.074,-0.51,0.14c-0.158,0.066,-0.313,0.15,-0.459,0.254c-0.139,0.097,-0.303,0.226,-0.486,0.377c-0.188,0.156,-0.342,0.302,-0.463,0.434c-0.127,0.141,-0.23,0.293,-0.306,0.455c-0.069,0.16,-0.122,0.337,-0.147,0.523c-0.026,0.178,-0.041,0.391,-0.041,0.631l0,2.386c0,0.24,0.015,0.451,0.041,0.631c0.025,0.188,0.078,0.361,0.147,0.521c0.074,0.164,0.179,0.318,0.306,0.457c0.119,0.129,0.274,0.274,0.463,0.433c0.186,0.153,0.35,0.28,0.486,0.379c0.146,0.103,0.299,0.188,0.459,0.254c0.158,0.065,0.329,0.112,0.51,0.14c0.174,0.026,0.389,0.039,0.64,0.039l0.709,0c0.298,0,0.591,-0.066,0.87,-0.199c0.244,-0.114,0.492,-0.291,0.73,-0.523l0,1.434c0,0.18,-0.025,0.334,-0.072,0.465c-0.043,0.119,-0.159,0.258,-0.344,0.406c-0.154,0.127,-0.309,0.217,-0.457,0.264c-0.15,0.049,-0.341,0.074,-0.563,0.074l-2.203,0c-0.293,0,-0.538,0.055,-0.732,0.166c-0.152,0.088,-0.34,0.282,-0.34,0.692c0,0.341,0.115,0.579,0.34,0.71c0.194,0.109,0.439,0.167,0.732,0.167l2.326,0c0.247,0,0.463,-0.015,0.638,-0.041c0.179,-0.026,0.351,-0.073,0.513,-0.14c0.153,-0.064,0.31,-0.15,0.455,-0.254c0.143,-0.101,0.305,-0.227,0.487,-0.379c0.185,-0.153,0.343,-0.299,0.463,-0.431c0.128,-0.141,0.229,-0.294,0.304,-0.456c0.071,-0.162,0.123,-0.338,0.148,-0.523c0.025,-0.182,0.041,-0.393,0.041,-0.631l0,-7.898C260.07,104.708,260.016,104.461,259.903,104.27zM258.334,108.73c0,0.188,-0.062,0.35,-0.188,0.49c-0.15,0.172,-0.394,0.403,-0.716,0.686l-0.002,0.003l-0.002,0.004c-0.139,0.13,-0.291,0.237,-0.453,0.325c-0.148,0.082,-0.325,0.121,-0.526,0.121L256.146,110.359c-0.222,0,-0.41,-0.021,-0.563,-0.072c-0.148,-0.049,-0.301,-0.137,-0.453,-0.264c-0.231,-0.186,-0.315,-0.322,-0.346,-0.404c-0.049,-0.131,-0.072,-0.285,-0.072,-0.465l0,-2.206c0,-0.18,0.023,-0.336,0.072,-0.467c0.029,-0.082,0.113,-0.217,0.346,-0.403c0.152,-0.127,0.305,-0.216,0.453,-0.265c0.153,-0.049,0.342,-0.072,0.563,-0.072l0.301,0c0.212,0,0.388,0.037,0.526,0.113c0.152,0.082,0.308,0.191,0.457,0.324c0.322,0.293,0.564,0.529,0.716,0.7c0.128,0.146,0.188,0.304,0.188,0.492L258.334,108.73z"/>
    <path  fill="#8C8C8C" d="M239.924,99.5101c-0.914,0,-1.66,0.745,-1.66,1.66c0,0.916,0.746,1.66,1.66,1.66s1.66,-0.744,1.66,-1.66C241.584,100.255,240.838,99.5101,239.924,99.5101zM239.924,101.773c-0.332,0,-0.604,-0.27,-0.604,-0.603s0.271,-0.603,0.604,-0.603s0.604,0.27,0.604,0.603C240.528,101.503,240.256,101.773,239.924,101.773z"/>
    <path  fill="#8C8C8C" d="M250.61,109.778l-0.107,-3.419c-0.011,-0.178,-0.021,-0.338,-0.031,-0.489c-0.01,-0.162,-0.037,-0.322,-0.082,-0.476c-0.045,-0.158,-0.11,-0.309,-0.198,-0.453c-0.093,-0.146,-0.216,-0.289,-0.37,-0.42c-0.225,-0.192,-0.443,-0.334,-0.646,-0.416c-0.207,-0.084,-0.461,-0.127,-0.754,-0.127l-1.012,0c-0.259,0,-0.501,0.058,-0.716,0.164c-0.197,0.098,-0.39,0.203,-0.572,0.315l-0.003,0.002l-0.003,0.003l-0.837,0.555l0,-0.041c0,-0.291,-0.057,-0.539,-0.168,-0.733c-0.129,-0.226,-0.367,-0.339,-0.707,-0.339c-0.411,0,-0.604,0.185,-0.693,0.339c-0.109,0.194,-0.168,0.438,-0.168,0.733l0,6.099c0,0.295,0.059,0.539,0.168,0.734c0.09,0.153,0.282,0.338,0.693,0.338c0.34,0,0.578,-0.114,0.707,-0.338c0.111,-0.195,0.168,-0.439,0.168,-0.734L245.279,107.04l1.953,-1.215c0.04,-0.024,0.082,-0.048,0.121,-0.063c0.031,-0.016,0.07,-0.025,0.115,-0.031c0.049,-0.012,0.117,-0.016,0.195,-0.016l0.362,0c0.188,0,0.334,0.021,0.435,0.059c0.082,0.029,0.143,0.076,0.18,0.143c0.05,0.078,0.08,0.18,0.098,0.303c0.02,0.139,0.034,0.309,0.045,0.504l0.096,3.097c-0.457,0.297,-0.762,0.811,-0.762,1.394c0,0.917,0.746,1.661,1.66,1.661c0.916,0,1.66,-0.744,1.66,-1.661C251.436,110.603,251.103,110.065,250.61,109.778zM249.776,111.815c-0.334,0,-0.602,-0.271,-0.602,-0.604c0,-0.333,0.268,-0.604,0.602,-0.604c0.333,0,0.604,0.271,0.604,0.604C250.381,111.546,250.109,111.815,249.776,111.815z"/>
    <path  fill="#8C8C8C" d="M239.987,104.002l-1.193,0c-0.293,0,-0.539,0.059,-0.731,0.169c-0.226,0.129,-0.341,0.368,-0.341,0.708c0,0.412,0.186,0.604,0.341,0.691c0.192,0.113,0.438,0.168,0.731,0.168l0.545,0l0,5.362c0,0.293,0.055,0.539,0.168,0.73c0.127,0.227,0.365,0.341,0.707,0.341c0.41,0,0.604,-0.187,0.691,-0.341c0.111,-0.191,0.17,-0.438,0.17,-0.73L241.075,105.09c0,-0.386,-0.085,-0.656,-0.259,-0.83C240.644,104.088,240.371,104.002,239.987,104.002z"/>
   </g>
  </g>
 </g>
 <path stroke="#8c8c8c" stroke-linecap="round" stroke-width="2.0952" fill="none" d="M68.9333,21.4927L67.8857,21.4927" stroke-linejoin="round"/>
 <path stroke="#8c8c8c" stroke-linecap="round" stroke-width="2.0952" fill="none" d="M95.6432,21.4927L96.6908,21.4927" stroke-linejoin="round"/>
 <g partID="57870">
  <g transform="translate(66.8381,17.8603)">
   <g  id="breadboard">
    <rect x="0.36" height="0.72" width="0.72"  y="2.5848" id="connector0pin" fill="none"/>
    <rect x="29.8202" height="0.72" width="0.72"  y="2.5848" id="connector1pin" fill="none"/>
    <line x1="1.0476" stroke-linecap="round" stroke="#8C8C8C" y2="3.6324" stroke-width="2.0952" x2="2.0952"  y1="3.6324" id="connector0leg" fill="none"/>
    <line x1="29.8526" stroke-linecap="round" stroke="#8C8C8C" y2="3.6324" stroke-width="2.0952" x2="28.805"  y1="3.6324" id="connector1leg" fill="none"/>
    <path stroke="#8C8C8C" stroke-width="2.0952"  fill="none" d="M1.0476,3.6324l28.3666,0"/>
    <path  id="body" fill="#D9B477" d="M10.2478,0.49536c-0.36,-0.1656,-0.9792,-0.2952,-1.3752,-0.2952l-1.9872,0c-0.396,0,-0.72,0.324,-0.72,0.72l0,5.35608c0,0.39672,0.324,0.72,0.72,0.72l1.9872,0c0.396,0,1.0152,-0.13608,1.3752,-0.2952l0.072,-0.03528c0.36,-0.1656,0.9792,-0.2952,1.3752,-0.2952l7.1856,0c0.39672,0,1.01448,0.13608,1.37448,0.2952l0.07272,0.03528c0.36,0.1656,0.97776,0.2952,1.3752,0.2952l1.9872,0c0.39744,0,0.72,-0.32328,0.72,-0.72L24.4102,0.92016c0,-0.396,-0.32256,-0.72,-0.72,-0.72l-1.9872,0c-0.39744,0,-1.0152,0.1368,-1.3752,0.2952l-0.07272,0.036c-0.36,0.1656,-0.97776,0.2952,-1.37448,0.2952l-7.1856,0c-0.396,0,-1.0152,-0.1368,-1.3752,-0.2952L10.2478,0.49536z"/>
    <rect x="22.019" height="6.79536" width="0.70272"  y="0.19368" id="gold_band" fill="#ad9f4e"/>
    <rect x="16.1726" height="5.5368" width="1.8504"  y="0.82656" id="band_rd_multiplier" fill="#ff4d00"/>
    <rect x="12.4726" height="5.5368" width="1.8504"  y="0.82656" id="band_2_nd" fill="#000000"/>
    <path  id="band_1_st" fill="#8a3d06" d="M10.6286,0.63936c-0.1152,-0.036,-0.2232,-0.072,-0.3096,-0.1152l-0.072,-0.036c-0.36,-0.16488,-0.9792,-0.2952,-1.3752,-0.2952l-0.0864,0l0,6.79608l0.0864,0c0.396,0,1.0152,-0.13608,1.3752,-0.2952l0.072,-0.03528c0.0864,-0.04464,0.1944,-0.07992,0.3096,-0.1152L10.6286,0.63936z"/>
    <path opacity="0.3"  id="Shadow" d="M23.711,4.0896L23.711,4.0896c0,0.37944,-0.13032,0.69912,-0.2952,0.69912l-1.9224,0c-0.38016,0,-0.97776,-0.05616,-1.33272,-0.1224L20.088,4.65048c-0.34488,-0.0648,-0.94896,-0.1224,-1.33344,-0.1224L11.808,4.52808c-0.3816,0,-0.9792,0.0576,-1.332,0.1224l-0.072,0.01512c-0.3456,0.06552,-0.9432,0.1224,-1.332,0.1224l-0.3168,0l-1.0008,0l-0.3096,0c-0.3816,0,-0.6984,0.29376,-0.6984,0.64512l0,0.24696L6.7464,5.8392l0,0.1728c0,0.36,0.3168,0.64512,0.6984,0.64512l1.62,0c0.3816,0,0.9792,-0.1224,1.332,-0.26712l0.072,-0.02808c0.3456,-0.14112,0.9504,-0.26496,1.332,-0.26496l6.94656,0c0.37944,0,0.97704,0.12384,1.33416,0.26568l0.07416,0.02808c0.34488,0.14472,0.94464,0.26712,1.33344,0.26712l2.2248,0c0.38088,0,0.69912,-0.2952,0.69912,-0.64512L24.413,5.472L24.413,4.49928L24.413,2.65536C24.1358,2.76336,23.711,3.06576,23.711,4.0896z"/>
    <rect x="22.019" height="3.15288" width="0.70272" opacity="0.4"  y="3.48336" id="ShadowExtra"/>
    <path opacity="0.25"  id="ReflexRight" fill="#FFFFFF" d="M19.751,1.08576c0.22968,0,0.49104,-0.1008,0.6624,-0.1728c0.2016,-0.0792,0.57672,-0.144,0.96624,-0.144l1.46088,0c0.22464,0,0.22464,0.2448,0.22464,0.3744c0,0.1296,-0.01512,0.3816,-0.22464,0.3816l-3.06,0c-0.10728,0,-0.2304,-0.1152,-0.2304,-0.22392C19.5566,1.21536,19.6286,1.08576,19.751,1.08576z"/>
    <circle cy="1.13616" r="0.432" opacity="0.35" cx="6.99984"  id="ReflexLeft" fill="#FFFFFF"/>
    <rect x="22.019" height="1.62" width="0.70272" opacity="0.5"  y="0.42336" id="Reflex_gold" fill="#FFFF33"/>
    <rect x="22.019" height="0.7488" width="0.70272" opacity="0.5"  y="0.78336" id="Reflex_extra" fill="#FFFFFF"/>
   </g>
  </g>
 </g>
 <g partID="59500">
  <g transform="translate(62.6802,68.2927)">
   <g transform="matrix(-1,0,0,-1,0,0)">
    <g id="breadboard">
     <g id="icon">
      <path stroke="none" stroke-width="0" fill="#1F7A34" d="M0,0L0,12.24A2.16,2.16,0,0,1,0,16.56L0,28.8L47.189,28.8L47.189,0L0,0z"/>
      <g transform="matrix(1, 0, 0, 1, 7.2, 7.61054)">
       <g>
        <g>
         <rect height="13.584" width="28.704" fill="#333333"/>
         <polygon points="28.42,3.848,28.42,3.848,28.42,9.74102,28.42,9.74102,28.42,11.092,31.46,11.092,31.46,2.495,28.42,2.495" fill="#2B2B2B"/>
         <polygon points="28.42,9.54302,28.42,9.74102,28.42,9.74102,28.42,10.786,31.46,10.786,31.46,9.54302" fill="#292929"/>
         <polygon points="28.42,4.258,28.42,3.825,28.42,3.825,28.42,2.778,31.46,2.778,31.46,4.258" fill="#292929"/>
         <rect x="28.42" height="2.286" width="3.025" y="5.248" fill="#333333"/>
         <rect x="28.42" height="1.254" width="3.025" y="5.906" fill="#383838"/>
         <rect x="28.42" height="0.311" width="3.041" y="10.784" fill="#212121"/>
         <rect x="28.42" height="0.282" width="3.041" y="2.496" fill="#212121"/>
         <rect x="31.448" height="8.59399" width="1.341" y="2.496" fill="#A1A1A1"/>
         <rect x="31.448" height="5.29" width="1.341" y="4.256" fill="#ABABAB"/>
         <rect x="31.448" height="2.286" width="1.341" y="5.248" fill="#C7C7C7"/>
         <rect x="31.448" height="1.254" width="1.341" y="5.906" fill="#E6E6E6"/>
         <rect x="31.448" height="0.282" width="1.341" y="2.496" fill="#737373"/>
         <rect x="31.448" height="0.283" width="1.341" y="10.795" fill="#737373"/>
         <rect x="20.961" height="1.799" width="3.693" y="0.005"/>
         <rect x="17.264" height="1.801" width="3.696" y="11.784"/>
         <rect x="20.961" height="0.595" width="3.693" y="0.005" fill="#C7C7C7"/>
         <rect x="17.264" height="0.594" width="3.696" y="12.991" fill="#C7C7C7"/>
        </g>
       </g>
      </g>
     </g>
     <g transform="matrix(1, 0, 0, 1, 15.2451, 24.0516)">
      <g>
       <rect x="0" height="2.2968" width="2.29896" y="0" fill="#8D8C8C" id="connector0pin"/>
       <rect x="0.56099" height="1.18189" width="1.18398" y="0.556952" fill="#8C8663"/>
       <polygon points="0,2.2968,0.56099,1.73785,0.56099,0.501957,0,0" fill="#B8AF82"/>
       <polygon points="1.74297,0.558951,0.56899,0.558951,0,0,2.29896,0" fill="#80795B"/>
       <polygon points="1.74297,1.73785,1.74297,0.558951,2.29896,0,2.29896,2.2968" fill="#5E5B43"/>
       <polygon points="0,2.2968,0.56699,1.73785,1.74297,1.73785,2.29896,2.2968" fill="#9A916C"/>
      </g>
     </g>
     <g transform="matrix(1, 0, 0, 1, 22.445, 24.0516)">
      <g>
       <rect x="0" height="2.2968" width="2.29896" y="0" fill="#8D8C8C" id="connector1pin"/>
       <rect x="0.56099" height="1.18189" width="1.18398" y="0.556952" fill="#8C8663"/>
       <polygon points="0,2.2968,0.56099,1.73785,0.56099,0.501957,0,0" fill="#B8AF82"/>
       <polygon points="1.74297,0.558951,0.56899,0.558951,0,0,2.29896,0" fill="#80795B"/>
       <polygon points="1.74297,1.73785,1.74297,0.558951,2.29896,0,2.29896,2.2968" fill="#5E5B43"/>
       <polygon points="0,2.2968,0.56699,1.73785,1.74297,1.73785,2.29896,2.2968" fill="#9A916C"/>
      </g>
     </g>
     <g transform="matrix(1, 0, 0, 1, 22.445, 2.4516)">
      <g>
       <rect x="0" height="2.2968" width="2.29896" y="0" fill="#8D8C8C" id="connector4pin"/>
       <rect x="0.56099" height="1.18189" width="1.18398" y="0.556952" fill="#8C8663"/>
       <polygon points="0,2.2968,0.56099,1.73785,0.56099,0.501957,0,0" fill="#B8AF82"/>
       <polygon points="1.74297,0.558951,0.56899,0.558951,0,0,2.29896,0" fill="#80795B"/>
       <polygon points="1.74297,1.73785,1.74297,0.558951,2.29896,0,2.29896,2.2968" fill="#5E5B43"/>
       <polygon points="0,2.2968,0.56699,1.73785,1.74297,1.73785,2.29896,2.2968" fill="#9A916C"/>
      </g>
     </g>
     <g transform="matrix(1, 0, 0, 1, 29.645, 24.0516)">
      <g>
       <rect x="0" height="2.2968" width="2.29896" y="0" fill="#8D8C8C" id="connector2pin"/>
       <rect x="0.56099" height="1.18189" width="1.18398" y="0.556952" fill="#8C8663"/>
       <polygon points="0,2.2968,0.56099,1.73785,0.56099,0.501957,0,0" fill="#B8AF82"/>
       <polygon points="1.74297,0.558951,0.56899,0.558951,0,0,2.29896,0" fill="#80795B"/>
       <polygon points="1.74297,1.73785,1.74297,0.558951,2.29896,0,2.29896,2.2968" fill="#5E5B43"/>
       <polygon points="0,2.2968,0.56699,1.73785,1.74297,1.73785,2.29896,2.2968" fill="#9A916C"/>
      </g>
     </g>
     <g transform="matrix(1, 0, 0, 1, 29.645, 2.4516)">
      <g>
       <rect x="0" height="2.2968" width="2.29896" y="0" fill="#8D8C8C" id="connector3pin"/>
       <rect x="0.56099" height="1.18189" width="1.18398" y="0.556952" fill="#8C8663"/>
       <polygon points="0,2.2968,0.56099,1.73785,0.56099,0.501957,0,0" fill="#B8AF82"/>
       <polygon points="1.74297,0.558951,0.56899,0.558951,0,0,2.29896,0" fill="#80795B"/>
       <polygon points="1.74297,1.73785,1.74297,0.558951,2.29896,0,2.29896,2.2968" fill="#5E5B43"/>
       <polygon points="0,2.2968,0.56699,1.73785,1.74297,1.73785,2.29896,2.2968" fill="#9A916C"/>
      </g>
     </g>
    </g>
   </g>
  </g>
 </g>
 <g partID="81240">
  <g transform="translate(0.384798,83.3502)">
   <g  id="breadboard">
    <text x="36" text-anchor="middle" xmlns:xml="http://www.w3.org/XML/1998/namespace" stroke-width="0" xml:space="preserve" font-family="Droid Sans"  y="6.48" id="label" fill="#787878" font-size="7.2">ground (-)</text>
   </g>
  </g>
 </g>
 <g partID="81530">
  <g transform="translate(7.91376,25.435)">
   <g  id="breadboard">
    <text x="14.4" text-anchor="middle" xmlns:xml="http://www.w3.org/XML/1998/namespace" stroke-width="0" xml:space="preserve" font-family="Droid Sans"  y="6.48" id="label" fill="#787878" font-size="7.2">ring</text>
   </g>
  </g>
 </g>
 <g partID="82280">
  <g transform="translate(69.3038,45.1262)">
   <g  id="breadboard">
    <text x="21.6" text-anchor="middle" xmlns:xml="http://www.w3.org/XML/1998/namespace" stroke-width="0" xml:space="preserve" font-family="Droid Sans"  y="6.48" id="label" fill="#787878" font-size="7.2">tip(+)</text>
   </g>
  </g>
 </g>
 <g partID="82330">
  <g transform="translate(260.071,0)">
   <g transform="matrix(0,1,-1,0,0,0)">
    <g  id="breadboard">
     <g  id="g9">
      <rect x="15.4685" height="106.219" width="19.4666" opacity="0.75"  y="41.04" id="rect11" fill="#00947E" enable-background="new    "/>
      <circle cy="25.2" r="25.2" cx="25.2007"  id="circle13"/>
      <rect x="15.4678" height="7.50096" width="19.4659"  y="43.2734" id="rect15"/>
      <path  id="path17" fill="#808080" d="M4.716,25.2c0,9.31752,6.22368,17.172,14.7384,19.6567l0,112.465l4.32,0L23.7744,45.63l0,-1.01664l0,-0.22248c-3.01752,-0.22248,-5.84064,-1.14192,-8.3124,-2.59488l15.2424,0c0.39672,-0.13248,0.78624,-0.27432,1.16856,-0.43344L14.7614,41.3626c-1.1016,-0.71136,-2.12832,-1.53144,-3.05928,-2.44656l24.336,0c0.17856,-0.1404,0.35352,-0.28512,0.5256,-0.43344L11.2795,38.4826c-0.72576,-0.7596,-1.38816,-1.57752,-1.98216,-2.44656l29.6208,0c0.11304,-0.14328,0.22608,-0.28512,0.33696,-0.43344L9.0072,35.6026c-0.50184,-0.77904,-0.94896,-1.59624,-1.33632,-2.44656l33.0991,0c0.07488,-0.14328,0.14832,-0.28656,0.21816,-0.43344L7.48512,32.7226c-0.33696,-0.79056,-0.62064,-1.60704,-0.85032,-2.44656l35.3002,0c0.0432,-0.14328,0.08136,-0.288,0.1224,-0.43344L6.51816,29.8426c-0.198,-0.79704,-0.342,-1.61424,-0.4356,-2.44656L42.5448,27.396c0.01584,-0.14472,0.04032,-0.288,0.05328,-0.43344L6.03504,26.9626C5.98248,26.383,5.95296,25.7947,5.95296,25.2c0,-0.2304,0.02232,-0.45576,0.03096,-0.68328l36.6854,0c-0.00648,-0.14472,-0.01368,-0.28944,-0.02088,-0.43416L6.00336,24.0826c0.04752,-0.82944,0.1332,-1.64952,0.28296,-2.44584l36.0338,0c-0.02952,-0.14616,-0.06624,-0.288,-0.10008,-0.43416L6.38496,21.2026c0.17712,-0.83664,0.40392,-1.65384,0.68544,-2.44584l34.3836,0c-0.05688,-0.14472,-0.11304,-0.28944,-0.17424,-0.43416l-34.056,0c0.32472,-0.84816,0.71568,-1.66248,1.15272,-2.44584l31.613,0c-0.09144,-0.14472,-0.18216,-0.29088,-0.27936,-0.43416L8.60688,15.4426c0.50904,-0.86328,1.09224,-1.67616,1.72512,-2.44584l27.3838,0c-0.14112,-0.1476,-0.28872,-0.29088,-0.43632,-0.43416l-26.5824,0c0.78048,-0.89424,1.6452,-1.71,2.57688,-2.44584l20.7655,0c-0.25488,-0.15048,-0.51768,-0.2952,-0.78192,-0.43416L13.8384,9.68256c1.368,-1.00296,2.87064,-1.83096,4.48056,-2.44584l8.7804,0L27.0994,6.80328L19.5998,6.80328c0.74736,-0.22536,1.50624,-0.42624,2.2896,-0.56232L21.8894,4.98672C12.1507,6.57,4.716,15.0149,4.716,25.2z"/>
      <path  id="path19" fill="#808080" d="M28.5142,6.24096c2.08008,0.36144,4.03488,1.06848,5.82912,2.03904L20.7814,8.28c-0.47664,0.12384,-0.94464,0.27,-1.40328,0.43344l15.7298,0c1.16496,0.70056,2.24568,1.5228,3.2328,2.44656L14.7794,11.16c-0.18792,0.1404,-0.37224,0.28512,-0.5544,0.43344l24.5815,0c0.75888,0.75672,1.45512,1.57392,2.0772,2.44656L11.7418,14.04c-0.11736,0.14184,-0.22968,0.28656,-0.34272,0.43344l29.7662,0c0.52488,0.77904,1.00584,1.59192,1.41696,2.44656L9.7992,16.92c-0.07632,0.14184,-0.14904,0.288,-0.22176,0.43344l33.1891,0c0.3528,0.79056,0.65952,1.60488,0.90576,2.44656L8.56944,19.8c-0.04608,0.14328,-0.09,0.288,-0.13392,0.43344l35.3578,0c0.2124,0.7956,0.36288,1.61424,0.4716,2.44656L7.89912,22.68c-0.02016,0.14328,-0.03744,0.288,-0.05472,0.43344l36.4802,0c0.07488,0.68616,0.12528,1.38096,0.12528,2.08656c0,0.12096,-0.0072,0.24048,-0.01008,0.36L7.7256,25.56c0.00288,0.14472,0.00504,0.28944,0.0108,0.43344L44.4312,25.9934c-0.03384,0.83088,-0.1224,1.64664,-0.25704,2.44656L8.0208,28.44c0.02736,0.14472,0.054,0.28944,0.08496,0.43344l35.9928,0c-0.16272,0.83664,-0.38088,1.6524,-0.64584,2.44656L8.82,31.32c0.054,0.14616,0.11232,0.28944,0.16992,0.43344L43.3008,31.7534c-0.30672,0.84528,-0.67032,1.66248,-1.0872,2.44656L10.2096,34.2c0.08784,0.14616,0.18072,0.28944,0.27288,0.43344l31.4964,0c-0.48384,0.85896,-1.03176,1.67616,-1.63656,2.44656L12.3768,37.08c0.13536,0.14616,0.27144,0.29088,0.41184,0.43344l27.2009,0c-0.73872,0.88704,-1.5588,1.70568,-2.44512,2.44656L15.8328,39.96c0.23472,0.15048,0.47376,0.29376,0.71712,0.43344l20.4581,0c-1.26288,0.98136,-2.65608,1.8,-4.14288,2.44656L24.1286,42.84l0,0.43344l7.66008,0c-1.63152,0.59472,-3.35808,0.98568,-5.15952,1.11816l0,0.22248l0,1.01664L26.6292,157.32l4.32,0l0,-112.464C39.4632,42.372,45.6862,34.5175,45.6862,25.2c0,-10.1851,-7.43472,-18.63,-17.1742,-20.2133l0,1.25424L28.5142,6.24096z"/>
      <rect x="19.4544" height="10.08" width="4.32"  y="147.24" id="rect21" fill="#B8B135"/>
      <rect x="26.6263" height="10.08" width="4.32"  y="147.24" id="rect23" fill="#B8B135"/>
     </g>
    </g>
   </g>
  </g>
 </g>
 <g partID="77880">
  <line x1="32.1593" stroke-linecap="round" stroke="#1b5bb3" y2="79.3429" stroke-width="3.2" x2="3.20177" y1="79.3429"/>
  <line x1="32.1593" stroke-linecap="round" stroke="#418dd9" y2="79.3429" stroke-width="1.6" x2="3.20177" y1="79.3429"/>
 </g>
 <g partID="78660">
  <line x1="3.20177" stroke-linecap="round" stroke="#1b5bb3" y2="21.4278" stroke-width="3.2" x2="3.20177" y1="79.3429"/>
  <line x1="3.20177" stroke-linecap="round" stroke="#418dd9" y2="21.4278" stroke-width="1.6" x2="3.20177" y1="79.3429"/>
 </g>
 <g partID="82170">
  <line x1="3.20177" stroke-linecap="round" stroke="#1b5bb3" y2="21.4927" stroke-width="3.2" x2="67.8857" y1="21.4278"/>
  <line x1="3.20177" stroke-linecap="round" stroke="#418dd9" y2="21.4927" stroke-width="1.6" x2="67.8857" y1="21.4278"/>
 </g>
 <g partID="77890">
  <line x1="31.8857" stroke-linecap="round" stroke="#1b5bb3" y2="79.3429" stroke-width="3.2" x2="32.1593" y1="64.6927"/>
  <line x1="31.8857" stroke-linecap="round" stroke="#418dd9" y2="79.3429" stroke-width="1.6" x2="32.1593" y1="64.6927"/>
 </g>
 <g partID="82360">
  <line x1="96.6908" stroke-linecap="round" stroke="#1b5bb3" y2="21.4927" stroke-width="3.2" x2="103.886" y1="21.4927"/>
  <line x1="96.6908" stroke-linecap="round" stroke="#418dd9" y2="21.4927" stroke-width="1.6" x2="103.886" y1="21.4927"/>
 </g>
 <g partID="82820">
  <line x1="103.974" stroke-linecap="round" stroke="#1b5bb3" y2="28.6942" stroke-width="3.2" x2="103.886" y1="42.8564"/>
  <line x1="103.974" stroke-linecap="round" stroke="#418dd9" y2="28.6942" stroke-width="1.6" x2="103.886" y1="42.8564"/>
 </g>
 <g partID="82430">
  <line x1="46.2857" stroke-linecap="round" stroke="#1b5bb3" y2="42.8564" stroke-width="3.2" x2="103.974" y1="43.0927"/>
  <line x1="46.2857" stroke-linecap="round" stroke="#418dd9" y2="42.8564" stroke-width="1.6" x2="103.974" y1="43.0927"/>
 </g>
 <g partID="82910">
  <line x1="96.4451" stroke-linecap="round" stroke="#1b5bb3" y2="21.4927" stroke-width="3.2" x2="96.6908" y1="28.9567"/>
  <line x1="96.4451" stroke-linecap="round" stroke="#418dd9" y2="21.4927" stroke-width="1.6" x2="96.6908" y1="28.9567"/>
 </g>
 <g partID="82920">
  <line x1="31.8857" stroke-linecap="round" stroke="#1b5bb3" y2="28.9567" stroke-width="3.2" x2="32.1593" y1="43.0927"/>
  <line x1="31.8857" stroke-linecap="round" stroke="#418dd9" y2="28.9567" stroke-width="1.6" x2="32.1593" y1="43.0927"/>
 </g>
 <g partID="82990">
  <line x1="32.1593" stroke-linecap="round" stroke="#1b5bb3" y2="28.9567" stroke-width="3.2" x2="96.4451" y1="28.9567"/>
  <line x1="32.1593" stroke-linecap="round" stroke="#418dd9" y2="28.9567" stroke-width="1.6" x2="96.4451" y1="28.9567"/>
 </g>
</svg>
