<?xml version='1.0' encoding='UTF-8' standalone='no'?>
<!-- Created with Fritzing (https://fritzing.org/) -->
<svg xmlns="http://www.w3.org/2000/svg" x="0in" height="1.00878in" width="4.67986in" xmlns:svg="http://www.w3.org/2000/svg" viewBox="0 0 336.95 72.6323"  y="0in" version="1.2" baseProfile="tiny">
 <g  id="watermark">
  <g >
   <g >
    <path  fill="#8C8C8C" d="M312.218,66.4323c-0.604,0,-1.131,0.325,-1.422,0.809l-2.796,0l3.96,-4.071c0.146,-0.146,0.289,-0.322,0.428,-0.521c0.149,-0.222,0.228,-0.479,0.228,-0.768c0,-0.279,-0.097,-0.518,-0.287,-0.71c-0.19,-0.188,-0.444,-0.287,-0.754,-0.287l-4.636,0c-0.305,0,-0.555,0.06,-0.742,0.17c-0.219,0.13,-0.33,0.368,-0.33,0.707c0,0.329,0.111,0.562,0.33,0.692c0.188,0.111,0.438,0.168,0.742,0.168l3.148,0l-3.974,4.086c-0.146,0.147,-0.289,0.315,-0.425,0.504c-0.153,0.212,-0.23,0.472,-0.23,0.771c0,0.28,0.096,0.521,0.288,0.711c0.188,0.188,0.442,0.285,0.754,0.285l4.315,0c0.293,0.467,0.812,0.776,1.4,0.776c0.916,0,1.66,-0.744,1.66,-1.661C313.877,67.1773,313.132,66.4323,312.218,66.4323zM312.218,68.6953c-0.334,0,-0.604,-0.271,-0.604,-0.604c0,-0.333,0.27,-0.604,0.604,-0.604c0.332,0,0.604,0.271,0.604,0.604C312.821,68.4263,312.55,68.6953,312.218,68.6953z"/>
    <path  fill="#8C8C8C" d="M295.275,56.3903c-0.914,0,-1.659,0.745,-1.659,1.66c0,0.916,0.745,1.66,1.659,1.66s1.658,-0.744,1.658,-1.66C296.935,57.1353,296.191,56.3903,295.275,56.3903zM295.276,58.6533c-0.333,0,-0.604,-0.27,-0.604,-0.603s0.271,-0.603,0.604,-0.603c0.331,0,0.604,0.27,0.604,0.603S295.607,58.6533,295.276,58.6533z"/>
    <path  fill="#8C8C8C" d="M303.796,61.0523c-0.193,-0.111,-0.439,-0.169,-0.732,-0.169l-1.465,0L301.599,58.3613c0,-0.292,-0.057,-0.538,-0.166,-0.729C301.343,57.4753,301.15,57.2903,300.74,57.2903c-0.34,0,-0.578,0.116,-0.709,0.342c-0.109,0.193,-0.167,0.438,-0.167,0.729l0,2.521l-0.481,0c-0.295,0,-0.539,0.06,-0.731,0.169c-0.228,0.129,-0.341,0.368,-0.341,0.708c0,0.412,0.185,0.603,0.341,0.692c0.192,0.111,0.438,0.168,0.731,0.168l0.481,0l0,4.362c0,0.277,0.026,0.533,0.081,0.768c0.056,0.246,0.154,0.464,0.298,0.645c0.146,0.186,0.345,0.332,0.595,0.436c0.241,0.098,0.555,0.146,0.93,0.146l0.896,0c0.292,0,0.539,-0.054,0.731,-0.166c0.154,-0.089,0.341,-0.281,0.341,-0.693c0,-0.338,-0.114,-0.578,-0.341,-0.709c-0.192,-0.109,-0.439,-0.168,-0.731,-0.168l-0.821,0c-0.138,0,-0.19,-0.019,-0.207,-0.024c-0.014,-0.034,-0.035,-0.103,-0.035,-0.231L301.601,62.6203l1.465,0c0.295,0,0.541,-0.057,0.734,-0.168c0.152,-0.09,0.34,-0.28,0.34,-0.692C304.136,61.4203,304.023,61.1813,303.796,61.0523z"/>
    <path  fill="#8C8C8C" d="M295.341,60.8823l-1.191,0c-0.292,0,-0.538,0.059,-0.731,0.169c-0.226,0.129,-0.341,0.368,-0.341,0.708c0,0.412,0.188,0.604,0.341,0.691c0.193,0.113,0.439,0.168,0.731,0.168l0.544,0l0,5.362c0,0.293,0.057,0.539,0.167,0.73c0.131,0.227,0.367,0.341,0.708,0.341c0.411,0,0.604,-0.187,0.692,-0.341c0.111,-0.191,0.168,-0.438,0.168,-0.73L296.429,61.9703c0,-0.386,-0.084,-0.656,-0.256,-0.83C295.998,60.9683,295.728,60.8823,295.341,60.8823z"/>
    <path  fill="#8C8C8C" d="M291.506,61.0523c-0.193,-0.111,-0.44,-0.169,-0.732,-0.169l-0.604,0c-0.25,0,-0.498,0.063,-0.734,0.187c-0.226,0.119,-0.433,0.271,-0.616,0.453l-0.644,0.604l0,-0.247c0,-0.291,-0.055,-0.538,-0.168,-0.729c-0.128,-0.228,-0.368,-0.34,-0.707,-0.34c-0.41,0,-0.604,0.184,-0.693,0.34c-0.11,0.191,-0.167,0.438,-0.167,0.729l0,4.801c-0.475,0.293,-0.791,0.816,-0.791,1.412c0,0.917,0.745,1.661,1.658,1.661c0.916,0,1.66,-0.744,1.66,-1.661c0,-0.596,-0.317,-1.119,-0.792,-1.412l0,-2.21l1.738,-1.564c0.1,-0.09,0.199,-0.164,0.297,-0.217c0.084,-0.045,0.174,-0.067,0.274,-0.067l0.288,0c0.292,0,0.539,-0.056,0.732,-0.169c0.155,-0.088,0.339,-0.279,0.339,-0.691C291.846,61.4203,291.731,61.1813,291.506,61.0523zM287.307,68.6953c-0.332,0,-0.603,-0.271,-0.603,-0.604c0,-0.333,0.271,-0.604,0.603,-0.604c0.333,0,0.604,0.271,0.604,0.604C287.911,68.4263,287.64,68.6953,287.307,68.6953z"/>
    <path  fill="#8C8C8C" d="M284.79,57.5333c-0.193,-0.111,-0.44,-0.167,-0.731,-0.167l-0.59,0c-0.2,0,-0.389,0.004,-0.562,0.016c-0.176,0.009,-0.345,0.035,-0.506,0.07c-0.168,0.041,-0.336,0.109,-0.496,0.202c-0.158,0.093,-0.319,0.222,-0.48,0.382c-0.334,0.314,-0.554,0.656,-0.652,1.017c-0.094,0.348,-0.143,0.735,-0.143,1.151l0,0.678l-0.483,0c-0.292,0,-0.539,0.059,-0.73,0.169c-0.227,0.13,-0.342,0.369,-0.342,0.708c0,0.412,0.185,0.604,0.341,0.693c0.191,0.111,0.438,0.166,0.73,0.166l0.483,0l0,5.362c0,0.293,0.057,0.539,0.167,0.73c0.13,0.227,0.367,0.341,0.708,0.341c0.411,0,0.603,-0.187,0.692,-0.341c0.111,-0.191,0.168,-0.438,0.168,-0.73l0,-5.36l0.92,0c0.293,0,0.54,-0.057,0.732,-0.168c0.155,-0.09,0.34,-0.28,0.34,-0.692c0,-0.34,-0.114,-0.579,-0.34,-0.708c-0.189,-0.111,-0.436,-0.17,-0.729,-0.17l-0.92,0l0,-0.678c0,-0.218,0.019,-0.41,0.056,-0.571c0.032,-0.141,0.103,-0.261,0.218,-0.367l0.002,-0.004l0.002,-0.002c0.082,-0.082,0.176,-0.126,0.29,-0.136c0.15,-0.015,0.339,-0.022,0.564,-0.022l0.56,0c0.291,0,0.539,-0.058,0.731,-0.168c0.154,-0.088,0.339,-0.281,0.339,-0.693C285.13,57.9023,285.015,57.6633,284.79,57.5333z"/>
    <path  fill="#8C8C8C" d="M336.783,61.1503c-0.089,-0.156,-0.282,-0.34,-0.693,-0.34c-0.339,0,-0.578,0.113,-0.707,0.34c-0.078,0.133,-0.127,0.293,-0.152,0.477l-0.021,-0.021c-0.216,-0.236,-0.466,-0.42,-0.747,-0.539c-0.277,-0.119,-0.563,-0.183,-0.849,-0.183l-0.709,0c-0.249,0,-0.466,0.015,-0.64,0.041c-0.182,0.026,-0.352,0.074,-0.51,0.14c-0.158,0.066,-0.313,0.15,-0.459,0.254c-0.139,0.097,-0.303,0.226,-0.486,0.377c-0.188,0.156,-0.342,0.302,-0.463,0.434c-0.127,0.141,-0.23,0.293,-0.306,0.455c-0.069,0.16,-0.122,0.337,-0.147,0.523c-0.026,0.178,-0.041,0.391,-0.041,0.631l0,2.386c0,0.24,0.015,0.451,0.041,0.631c0.025,0.188,0.078,0.361,0.147,0.521c0.074,0.164,0.179,0.318,0.306,0.457c0.119,0.129,0.274,0.274,0.463,0.433c0.186,0.153,0.35,0.28,0.486,0.379c0.146,0.103,0.299,0.188,0.459,0.254c0.158,0.065,0.329,0.112,0.51,0.14c0.174,0.026,0.389,0.039,0.64,0.039l0.709,0c0.298,0,0.591,-0.066,0.87,-0.199c0.244,-0.114,0.492,-0.291,0.73,-0.523l0,1.434c0,0.18,-0.025,0.334,-0.072,0.465c-0.043,0.119,-0.159,0.258,-0.344,0.406c-0.154,0.127,-0.309,0.217,-0.457,0.264c-0.15,0.049,-0.341,0.074,-0.563,0.074l-2.203,0c-0.293,0,-0.538,0.055,-0.732,0.166c-0.152,0.088,-0.34,0.282,-0.34,0.692c0,0.341,0.115,0.579,0.34,0.71c0.194,0.109,0.439,0.167,0.732,0.167l2.326,0c0.247,0,0.463,-0.015,0.638,-0.041c0.179,-0.026,0.351,-0.073,0.513,-0.14c0.153,-0.064,0.31,-0.15,0.455,-0.254c0.143,-0.101,0.305,-0.227,0.487,-0.379c0.185,-0.153,0.343,-0.299,0.463,-0.431c0.128,-0.141,0.229,-0.294,0.304,-0.456c0.071,-0.162,0.123,-0.338,0.148,-0.523c0.025,-0.182,0.041,-0.393,0.041,-0.631l0,-7.898C336.95,61.5883,336.896,61.3413,336.783,61.1503zM335.214,65.6103c0,0.188,-0.062,0.35,-0.188,0.49c-0.15,0.172,-0.394,0.403,-0.716,0.686l-0.002,0.003l-0.002,0.004c-0.139,0.13,-0.291,0.237,-0.453,0.325c-0.148,0.082,-0.325,0.121,-0.526,0.121L333.026,67.2393c-0.222,0,-0.41,-0.021,-0.563,-0.072c-0.148,-0.049,-0.301,-0.137,-0.453,-0.264c-0.231,-0.186,-0.315,-0.322,-0.346,-0.404c-0.049,-0.131,-0.072,-0.285,-0.072,-0.465l0,-2.206c0,-0.18,0.023,-0.336,0.072,-0.467c0.029,-0.082,0.113,-0.217,0.346,-0.403c0.152,-0.127,0.305,-0.216,0.453,-0.265c0.153,-0.049,0.342,-0.072,0.563,-0.072l0.301,0c0.212,0,0.388,0.037,0.526,0.113c0.152,0.082,0.308,0.191,0.457,0.324c0.322,0.293,0.564,0.529,0.716,0.7c0.128,0.146,0.188,0.304,0.188,0.492L335.214,65.6103z"/>
    <path  fill="#8C8C8C" d="M316.804,56.3903c-0.914,0,-1.66,0.745,-1.66,1.66c0,0.916,0.746,1.66,1.66,1.66s1.66,-0.744,1.66,-1.66C318.464,57.1353,317.718,56.3903,316.804,56.3903zM316.804,58.6533c-0.332,0,-0.604,-0.27,-0.604,-0.603s0.271,-0.603,0.604,-0.603s0.604,0.27,0.604,0.603C317.408,58.3833,317.136,58.6533,316.804,58.6533z"/>
    <path  fill="#8C8C8C" d="M327.49,66.6583l-0.107,-3.419c-0.011,-0.178,-0.021,-0.338,-0.031,-0.489c-0.01,-0.162,-0.037,-0.322,-0.082,-0.476c-0.045,-0.158,-0.11,-0.309,-0.198,-0.453c-0.093,-0.146,-0.216,-0.289,-0.37,-0.42c-0.225,-0.192,-0.443,-0.334,-0.646,-0.416c-0.207,-0.084,-0.461,-0.127,-0.754,-0.127l-1.012,0c-0.259,0,-0.501,0.058,-0.716,0.164c-0.197,0.098,-0.39,0.203,-0.572,0.315l-0.003,0.002l-0.003,0.003l-0.837,0.555l0,-0.041c0,-0.291,-0.057,-0.539,-0.168,-0.733c-0.129,-0.226,-0.367,-0.339,-0.707,-0.339c-0.411,0,-0.604,0.185,-0.693,0.339c-0.109,0.194,-0.168,0.438,-0.168,0.733l0,6.099c0,0.295,0.059,0.539,0.168,0.734c0.09,0.153,0.282,0.338,0.693,0.338c0.34,0,0.578,-0.114,0.707,-0.338c0.111,-0.195,0.168,-0.439,0.168,-0.734L322.159,63.9203l1.953,-1.215c0.04,-0.024,0.082,-0.048,0.121,-0.063c0.031,-0.016,0.07,-0.025,0.115,-0.031c0.049,-0.012,0.117,-0.016,0.195,-0.016l0.362,0c0.188,0,0.334,0.021,0.435,0.059c0.082,0.029,0.143,0.076,0.18,0.143c0.05,0.078,0.08,0.18,0.098,0.303c0.02,0.139,0.034,0.309,0.045,0.504l0.096,3.097c-0.457,0.297,-0.762,0.811,-0.762,1.394c0,0.917,0.746,1.661,1.66,1.661c0.916,0,1.66,-0.744,1.66,-1.661C328.316,67.4833,327.983,66.9453,327.49,66.6583zM326.656,68.6953c-0.334,0,-0.602,-0.271,-0.602,-0.604c0,-0.333,0.268,-0.604,0.602,-0.604c0.333,0,0.604,0.271,0.604,0.604C327.261,68.4263,326.989,68.6953,326.656,68.6953z"/>
    <path  fill="#8C8C8C" d="M316.867,60.8823l-1.193,0c-0.293,0,-0.539,0.059,-0.731,0.169c-0.226,0.129,-0.341,0.368,-0.341,0.708c0,0.412,0.186,0.604,0.341,0.691c0.192,0.113,0.438,0.168,0.731,0.168l0.545,0l0,5.362c0,0.293,0.055,0.539,0.168,0.73c0.127,0.227,0.365,0.341,0.707,0.341c0.41,0,0.604,-0.187,0.691,-0.341c0.111,-0.191,0.17,-0.438,0.17,-0.73L317.955,61.9703c0,-0.386,-0.085,-0.656,-0.259,-0.83C317.524,60.9683,317.251,60.8823,316.867,60.8823z"/>
   </g>
  </g>
 </g>
 <g partID="57870">
  <g transform="translate(145.626,17.4118)">
   <g  id="schematic">
    <line x1="7.55002" stroke="#000000" stroke-linecap="round" y2="0.216" stroke-width="0.432002" x2="8.63003" class="other"  y1="3.096"/>
    <line x1="8.63003" stroke="#000000" stroke-linecap="round" y2="5.976" stroke-width="0.432002" x2="10.43" class="other"  y1="0.216"/>
    <line x1="10.43" stroke="#000000" stroke-linecap="round" y2="0.216" stroke-width="0.432002" x2="12.23" class="other"  y1="5.976"/>
    <line x1="12.23" stroke="#000000" stroke-linecap="round" y2="5.976" stroke-width="0.432002" x2="14.03" class="other"  y1="0.216"/>
    <line x1="14.03" stroke="#000000" stroke-linecap="round" y2="0.216" stroke-width="0.432002" x2="15.8301" class="other"  y1="5.976"/>
    <line x1="15.8301" stroke="#000000" stroke-linecap="round" y2="5.976" stroke-width="0.432002" x2="17.6301" class="other"  y1="0.216"/>
    <line x1="17.6301" stroke="#000000" stroke-linecap="round" y2="0.216" stroke-width="0.432002" x2="19.4301" class="other"  y1="5.976"/>
    <line x1="19.4301" stroke="#000000" stroke-linecap="round" y2="5.976" stroke-width="0.432002" x2="21.2301" class="other"  y1="0.216"/>
    <line x1="21.2301" stroke="#000000" stroke-linecap="round" y2="3.096" stroke-width="0.432002" x2="21.9501" class="other"  y1="5.976"/>
    <line x1="29.1502" stroke="#787878" stroke-linecap="round" y2="3.096" stroke-width="0.700001" x2="21.9501" class="pin" connectorname="2"  y1="3.096" id="connector1pin"/>
    <g x="29.1502" stroke="none" height="0.000283465" width="0.000283466" stroke-width="0" class="terminal"  y="3.096" id="connector1terminal" fill="none"/>
    <text x="25.5501" text-anchor="middle" stroke="none" stroke-width="0" font-family="'Droid Sans'" class="text"  y="2.046" fill="#8c8c8c" font-size="2.50001">2</text>
    <line x1="0.350001" stroke="#787878" stroke-linecap="round" y2="3.096" stroke-width="0.700001" x2="7.55002" class="pin" connectorname="1"  y1="3.096" id="connector0pin"/>
    <g x="0.350001" stroke="none" height="0.000283465" width="0.000283466" stroke-width="0" class="terminal"  y="3.096" id="connector0terminal" fill="none"/>
    <text x="3.95001" text-anchor="middle" stroke="none" stroke-width="0" font-family="'Droid Sans'" class="text"  y="2.046" fill="#8c8c8c" font-size="2.50001">1</text>
   </g>
  </g>
 </g>
 <g partID="59500">
  <g transform="translate(109.976,14.9814)">
   <g id="schematic">
    <line x1="18" stroke="#000000" stroke-linecap="round" stroke-width="0.9" y2="16.326" x2="21.601" y1="19.926" fill="none" stroke-linejoin="round"/>
    <line x1="21.601" stroke="#000000" stroke-linecap="round" stroke-width="0.9" y2="19.926" x2="25.2" y1="16.326" fill="none" stroke-linejoin="round"/>
    <line x1="25.2" stroke="#000000" stroke-linecap="round" stroke-width="0.9" y2="19.926" x2="28.8" y1="19.926" fill="none" stroke-linejoin="round"/>
    <line x1="28.8" stroke="#000000" stroke-linecap="round" stroke-width="0.9" y2="12.726" x2="18" y1="12.726" fill="none" stroke-linejoin="round"/>
    <line x1="18" stroke="#000000" stroke-linecap="round" stroke-width="0.9" y2="16.326" x2="14.4" y1="12.726" fill="none" stroke-linejoin="round"/>
    <line x1="14.4" stroke="#000000" stroke-linecap="round" stroke-width="0.9" y2="12.726" x2="10.8" y1="16.326" fill="none" stroke-linejoin="round"/>
    <line x1="28.8" stroke="#000000" stroke-linecap="round" stroke-width="0.9" y2="5.527" x2="7.2" y1="5.527" fill="none" stroke-linejoin="round"/>
    <rect height="4.319" width="14.4" y="10.567"/>
    <line x1="36" stroke="#787878" stroke-linecap="round" stroke-width="0.75" y2="12.726" x2="28.8" y1="12.726" id="connector0pin" fill="none"/>
    <g x="36" height="0.001" width="0.001" y="12.726" id="connector0terminal" fill="none"/>
    <g transform="matrix(1, 0, 0, 1, 25.7002, 11.0022)">
     <text font-family="'DroidSans'" font-size="3.024">RIGHT</text>
    </g>
    <line x1="36" stroke="#787878" stroke-linecap="round" stroke-width="0.75" y2="19.926" x2="28.8" y1="19.926" id="connector3pin" fill="none"/>
    <g x="36" height="0" width="0.001" y="19.926" id="connector3terminal" fill="none"/>
    <g transform="matrix(1, 0, 0, 1, 25.7002, 18.2034)">
     <text font-family="'DroidSans'" font-size="3.024">LEFT</text>
    </g>
    <line x1="36" stroke="#787878" stroke-linecap="round" stroke-width="0.75" y2="5.527" x2="28.8" y1="5.527" id="connector2pin" fill="none"/>
    <g x="36" height="0" width="0.001" y="5.527" id="connector2terminal" fill="none"/>
    <g transform="matrix(1, 0, 0, 1, 25.7002, 3.802)">
     <text font-family="'DroidSans'" font-size="3.024">SLEEVE</text>
    </g>
   </g>
  </g>
 </g>
 <g partID="82330">
  <g transform="translate(206.165,2.28491)">
   <g id="schematic">
    <polyline stroke="#000000" stroke-linecap="round" points="4.611,36.225,4.611,34.781,1.73,32.624,8.21,29.021,1.73,25.422,8.21,21.823,1.73,18.223,8.21,14.623,1.73,11.023,4.611,8.863,4.611,7.423" stroke-width="0.7" fill="none"/>
    <line x1="4.611" stroke="#787878" stroke-linecap="round" stroke-width="0.7" y2="36.225" x2="4.611" y1="43.422" id="connector1pin" fill="none"/>
    <g id="connector1terminal" fill="none" d="M4.611,43.422L4.611,43.422L4.611,43.422z"/>
    <g transform="matrix(1, 0, 0, 1, 0.9906, 14.0462)">
     <g>
      <g transform="rotate(270)">
       <g>
        <g transform="matrix(1, 0, 0, 1, -26.6159, 2.1058)">
         <text font-family="'Droid Sans'" fill="#787878" font-size="2">1</text>
        </g>
       </g>
      </g>
     </g>
    </g>
    <line x1="4.611" stroke="#787878" stroke-linecap="round" stroke-width="0.7" y2="7.423" x2="4.611" y1="0.223" id="connector0pin" fill="none"/>
    <g id="connector0terminal" fill="none" d="M4.611,0.223L4.611,0.223L4.611,0.223z"/>
    <g transform="matrix(1, 0, 0, 1, 0.9906, 1.3462)">
     <g>
      <g transform="rotate(270)">
       <g>
        <g transform="matrix(1, 0, 0, 1, -3.3179, 2.1058)">
         <text font-family="'Droid Sans'" fill="#787878" font-size="2">2</text>
        </g>
       </g>
      </g>
     </g>
    </g>
   </g>
  </g>
 </g>
 <g partID="82850">
  <line x1="142.376" stroke-linecap="round" stroke="#00a527" y2="42.1084" stroke-width="0.4" x2="210.776" y1="34.9074"/>
 </g>
 <g partID="60410">
  <line x1="142.376" stroke-linecap="round" stroke="#404040" y2="20.5079" stroke-width="0.699998" x2="145.976" y1="20.5084"/>
 </g>
 <g partID="82580">
  <line x1="174.965" stroke-linecap="round" stroke="#404040" y2="6.10791" stroke-width="0.699998" x2="210.776" y1="20.6491"/>
 </g>
 <g partID="82590">
  <line x1="174.777" stroke-linecap="round" stroke="#404040" y2="20.6491" stroke-width="0.699998" x2="174.965" y1="20.5079"/>
 </g>
 <circle cy="20.5079" stroke="none" stroke-width="0" r="1.44" cx="174.777" fill="black"/>
 <g partID="82730">
  <line x1="174.965" stroke-linecap="round" stroke="#404040" y2="20.5079" stroke-width="0.699998" x2="174.777" y1="27.7079"/>
 </g>
 <circle cy="20.5079" stroke="none" stroke-width="0" r="1.44" cx="174.777" fill="black"/>
 <g partID="82640">
  <line x1="145.976" stroke-linecap="round" stroke="#404040" y2="27.7079" stroke-width="0.699998" x2="174.965" y1="27.7079"/>
 </g>
 <g partID="57870" id="partLabel">
  <g transform="translate(155.362,0)">
   <g stroke="none" font-weight="normal" font-family="'DroidSans'" font-style="normal" fill="#000000" id="schematicLabel" font-size="5" fill-opacity="1">
    <text x="0" y="3.75">R1</text>
    <text x="0" y="8.75">0.25</text>
    <text x="0" y="13.75">10k&#x3a9;</text>
   </g>
  </g>
 </g>
 <g partID="59500" id="partLabel">
  <g transform="translate(88.6776,38.0873)">
   <g stroke="none" font-weight="normal" font-family="'DroidSans'" font-style="normal" fill="#000000" id="schematicLabel" font-size="5" fill-opacity="1">
    <text x="0" y="3.75">stereo mini jack female</text>
   </g>
  </g>
 </g>
 <g partID="82330" id="partLabel">
  <g transform="translate(224.95,18.332)">
   <g stroke="none" font-weight="normal" font-family="'DroidSans'" font-style="normal" fill="#000000" id="schematicLabel" font-size="5" fill-opacity="1">
    <text x="0" y="3.75">Force Sensitive Resistor (FSR)</text>
   </g>
  </g>
 </g>
 <g partID="77770">
  <g transform="translate(0,5.59026)">
   <g>
    <rect x="2.8" stroke="#fabc4f" height="38.4" width="66.8706" stroke-width="5.6" y="2.8" fill="#ffe9c8"/>
    <g text-anchor="left" stroke="none" font-family="Droid Sans" fill="#000000" font-size="6.675">
     <text x="8.8" y="15.475" fill="#000000">SLEEVE = Ground</text>
    </g>
    <g text-anchor="left" stroke="none" font-family="Droid Sans" fill="#000000" font-size="6.675">
     <text x="8.8" y="24.275" fill="#000000">RIGHT = Ring</text>
    </g>
    <g text-anchor="left" stroke="none" font-family="Droid Sans" fill="#000000" font-size="6.675">
     <text x="8.8" y="33.075" fill="#000000">LEFT = Tip</text>
    </g>
   </g>
  </g>
 </g>
</svg>
