<?xml version='1.0' encoding='UTF-8' standalone='no'?>
<!-- Created with Fritzing (https://fritzing.org/) -->
<svg xmlns="http://www.w3.org/2000/svg" xmlns:svg="http://www.w3.org/2000/svg"  width="1.71859in" baseProfile="tiny" height="1.85016in" y="0in" x="0in" viewBox="0 0 123.738 133.211" version="1.2">
 <g  id="watermark">
  <g >
   <g >
    <path  fill="#8C8C8C" d="M99.0065,127.011c-0.604,0,-1.131,0.325,-1.422,0.809l-2.796,0l3.96,-4.071c0.146,-0.146,0.289,-0.322,0.428,-0.521c0.149,-0.222,0.228,-0.479,0.228,-0.768c0,-0.279,-0.097,-0.518,-0.287,-0.71c-0.19,-0.188,-0.444,-0.287,-0.754,-0.287l-4.636,0c-0.305,0,-0.555,0.06,-0.742,0.17c-0.219,0.13,-0.33,0.368,-0.33,0.707c0,0.329,0.111,0.562,0.33,0.692c0.188,0.111,0.438,0.168,0.742,0.168l3.148,0l-3.974,4.086c-0.146,0.147,-0.289,0.315,-0.425,0.504c-0.153,0.212,-0.23,0.472,-0.23,0.771c0,0.28,0.096,0.521,0.288,0.711c0.188,0.188,0.442,0.285,0.754,0.285l4.315,0c0.293,0.467,0.812,0.776,1.4,0.776c0.916,0,1.66,-0.744,1.66,-1.661C100.665,127.756,99.9205,127.011,99.0065,127.011zM99.0065,129.274c-0.334,0,-0.604,-0.271,-0.604,-0.604c0,-0.333,0.27,-0.604,0.604,-0.604c0.332,0,0.604,0.271,0.604,0.604C99.6095,129.005,99.3385,129.274,99.0065,129.274z"/>
    <path  fill="#8C8C8C" d="M82.0635,116.969c-0.914,0,-1.659,0.745,-1.659,1.66c0,0.916,0.745,1.66,1.659,1.66s1.658,-0.744,1.658,-1.66C83.7235,117.714,82.9795,116.969,82.0635,116.969zM82.0645,119.232c-0.333,0,-0.604,-0.27,-0.604,-0.603s0.271,-0.603,0.604,-0.603c0.331,0,0.604,0.27,0.604,0.603S82.3955,119.232,82.0645,119.232z"/>
    <path  fill="#8C8C8C" d="M90.5845,121.631c-0.193,-0.111,-0.439,-0.169,-0.732,-0.169l-1.465,0L88.3875,118.94c0,-0.292,-0.057,-0.538,-0.166,-0.729C88.1315,118.054,87.9385,117.869,87.5285,117.869c-0.34,0,-0.578,0.116,-0.709,0.342c-0.109,0.193,-0.167,0.438,-0.167,0.729l0,2.521l-0.481,0c-0.295,0,-0.539,0.06,-0.731,0.169c-0.228,0.129,-0.341,0.368,-0.341,0.708c0,0.412,0.185,0.603,0.341,0.692c0.192,0.111,0.438,0.168,0.731,0.168l0.481,0l0,4.362c0,0.277,0.026,0.533,0.081,0.768c0.056,0.246,0.154,0.464,0.298,0.645c0.146,0.186,0.345,0.332,0.595,0.436c0.241,0.098,0.555,0.146,0.93,0.146l0.896,0c0.292,0,0.539,-0.054,0.731,-0.166c0.154,-0.089,0.341,-0.281,0.341,-0.693c0,-0.338,-0.114,-0.578,-0.341,-0.709c-0.192,-0.109,-0.439,-0.168,-0.731,-0.168l-0.821,0c-0.138,0,-0.19,-0.019,-0.207,-0.024c-0.014,-0.034,-0.035,-0.103,-0.035,-0.231L88.3895,123.199l1.465,0c0.295,0,0.541,-0.057,0.734,-0.168c0.152,-0.09,0.34,-0.28,0.34,-0.692C90.9245,121.999,90.8115,121.76,90.5845,121.631z"/>
    <path  fill="#8C8C8C" d="M82.1295,121.461l-1.191,0c-0.292,0,-0.538,0.059,-0.731,0.169c-0.226,0.129,-0.341,0.368,-0.341,0.708c0,0.412,0.188,0.604,0.341,0.691c0.193,0.113,0.439,0.168,0.731,0.168l0.544,0l0,5.362c0,0.293,0.057,0.539,0.167,0.73c0.131,0.227,0.367,0.341,0.708,0.341c0.411,0,0.604,-0.187,0.692,-0.341c0.111,-0.191,0.168,-0.438,0.168,-0.73L83.2175,122.549c0,-0.386,-0.084,-0.656,-0.256,-0.83C82.7865,121.547,82.5165,121.461,82.1295,121.461z"/>
    <path  fill="#8C8C8C" d="M78.2945,121.631c-0.193,-0.111,-0.44,-0.169,-0.732,-0.169l-0.604,0c-0.25,0,-0.498,0.063,-0.734,0.187c-0.226,0.119,-0.433,0.271,-0.616,0.453l-0.644,0.604l0,-0.247c0,-0.291,-0.055,-0.538,-0.168,-0.729c-0.128,-0.228,-0.368,-0.34,-0.707,-0.34c-0.41,0,-0.604,0.184,-0.693,0.34c-0.11,0.191,-0.167,0.438,-0.167,0.729l0,4.801c-0.475,0.293,-0.791,0.816,-0.791,1.412c0,0.917,0.745,1.661,1.658,1.661c0.916,0,1.66,-0.744,1.66,-1.661c0,-0.596,-0.317,-1.119,-0.792,-1.412l0,-2.21l1.738,-1.564c0.1,-0.09,0.199,-0.164,0.297,-0.217c0.084,-0.045,0.174,-0.067,0.274,-0.067l0.288,0c0.292,0,0.539,-0.056,0.732,-0.169c0.155,-0.088,0.339,-0.279,0.339,-0.691C78.6345,121.999,78.5195,121.76,78.2945,121.631zM74.0955,129.274c-0.332,0,-0.603,-0.271,-0.603,-0.604c0,-0.333,0.271,-0.604,0.603,-0.604c0.333,0,0.604,0.271,0.604,0.604C74.6995,129.005,74.4285,129.274,74.0955,129.274z"/>
    <path  fill="#8C8C8C" d="M71.5785,118.112c-0.193,-0.111,-0.44,-0.167,-0.731,-0.167l-0.59,0c-0.2,0,-0.389,0.004,-0.562,0.016c-0.176,0.009,-0.345,0.035,-0.506,0.07c-0.168,0.041,-0.336,0.109,-0.496,0.202c-0.158,0.093,-0.319,0.222,-0.48,0.382c-0.334,0.314,-0.554,0.656,-0.652,1.017c-0.094,0.348,-0.143,0.735,-0.143,1.151l0,0.678l-0.483,0c-0.292,0,-0.539,0.059,-0.73,0.169c-0.227,0.13,-0.342,0.369,-0.342,0.708c0,0.412,0.185,0.604,0.341,0.693c0.191,0.111,0.438,0.166,0.73,0.166l0.483,0l0,5.362c0,0.293,0.057,0.539,0.167,0.73c0.13,0.227,0.367,0.341,0.708,0.341c0.411,0,0.603,-0.187,0.692,-0.341c0.111,-0.191,0.168,-0.438,0.168,-0.73l0,-5.36l0.92,0c0.293,0,0.54,-0.057,0.732,-0.168c0.155,-0.09,0.34,-0.28,0.34,-0.692c0,-0.34,-0.114,-0.579,-0.34,-0.708c-0.189,-0.111,-0.436,-0.17,-0.729,-0.17l-0.92,0l0,-0.678c0,-0.218,0.019,-0.41,0.056,-0.571c0.032,-0.141,0.103,-0.261,0.218,-0.367l0.002,-0.004l0.002,-0.002c0.082,-0.082,0.176,-0.126,0.29,-0.136c0.15,-0.015,0.339,-0.022,0.564,-0.022l0.56,0c0.291,0,0.539,-0.058,0.731,-0.168c0.154,-0.088,0.339,-0.281,0.339,-0.693C71.9185,118.481,71.8035,118.242,71.5785,118.112z"/>
    <path  fill="#8C8C8C" d="M123.571,121.729c-0.089,-0.156,-0.282,-0.34,-0.693,-0.34c-0.339,0,-0.578,0.113,-0.707,0.34c-0.078,0.133,-0.127,0.293,-0.152,0.477l-0.021,-0.021c-0.216,-0.236,-0.466,-0.42,-0.747,-0.539c-0.277,-0.119,-0.563,-0.183,-0.849,-0.183l-0.709,0c-0.249,0,-0.466,0.015,-0.64,0.041c-0.182,0.026,-0.352,0.074,-0.51,0.14c-0.158,0.066,-0.313,0.15,-0.459,0.254c-0.139,0.097,-0.303,0.226,-0.486,0.377c-0.188,0.156,-0.342,0.302,-0.463,0.434c-0.127,0.141,-0.23,0.293,-0.306,0.455c-0.069,0.16,-0.122,0.337,-0.147,0.523c-0.026,0.178,-0.041,0.391,-0.041,0.631l0,2.386c0,0.24,0.015,0.451,0.041,0.631c0.025,0.188,0.078,0.361,0.147,0.521c0.074,0.164,0.179,0.318,0.306,0.457c0.119,0.129,0.274,0.274,0.463,0.433c0.186,0.153,0.35,0.28,0.486,0.379c0.146,0.103,0.299,0.188,0.459,0.254c0.158,0.065,0.329,0.112,0.51,0.14c0.174,0.026,0.389,0.039,0.64,0.039l0.709,0c0.298,0,0.591,-0.066,0.87,-0.199c0.244,-0.114,0.492,-0.291,0.73,-0.523l0,1.434c0,0.18,-0.025,0.334,-0.072,0.465c-0.043,0.119,-0.159,0.258,-0.344,0.406c-0.154,0.127,-0.309,0.217,-0.457,0.264c-0.15,0.049,-0.341,0.074,-0.563,0.074l-2.203,0c-0.293,0,-0.538,0.055,-0.732,0.166c-0.152,0.088,-0.34,0.282,-0.34,0.692c0,0.341,0.115,0.579,0.34,0.71c0.194,0.109,0.439,0.167,0.732,0.167l2.326,0c0.247,0,0.463,-0.015,0.638,-0.041c0.179,-0.026,0.351,-0.073,0.513,-0.14c0.153,-0.064,0.31,-0.15,0.455,-0.254c0.143,-0.101,0.305,-0.227,0.487,-0.379c0.185,-0.153,0.343,-0.299,0.463,-0.431c0.128,-0.141,0.229,-0.294,0.304,-0.456c0.071,-0.162,0.123,-0.338,0.148,-0.523c0.025,-0.182,0.041,-0.393,0.041,-0.631l0,-7.898C123.738,122.167,123.684,121.92,123.571,121.729zM122.002,126.189c0,0.188,-0.062,0.35,-0.188,0.49c-0.15,0.172,-0.394,0.403,-0.716,0.686l-0.002,0.003l-0.002,0.004c-0.139,0.13,-0.291,0.237,-0.453,0.325c-0.148,0.082,-0.325,0.121,-0.526,0.121L119.814,127.818c-0.222,0,-0.41,-0.021,-0.563,-0.072c-0.148,-0.049,-0.301,-0.137,-0.453,-0.264c-0.231,-0.186,-0.315,-0.322,-0.346,-0.404c-0.049,-0.131,-0.072,-0.285,-0.072,-0.465l0,-2.206c0,-0.18,0.023,-0.336,0.072,-0.467c0.029,-0.082,0.113,-0.217,0.346,-0.403c0.152,-0.127,0.305,-0.216,0.453,-0.265c0.153,-0.049,0.342,-0.072,0.563,-0.072l0.301,0c0.212,0,0.388,0.037,0.526,0.113c0.152,0.082,0.308,0.191,0.457,0.324c0.322,0.293,0.564,0.529,0.716,0.7c0.128,0.146,0.188,0.304,0.188,0.492L122.002,126.189z"/>
    <path  fill="#8C8C8C" d="M103.592,116.969c-0.914,0,-1.66,0.745,-1.66,1.66c0,0.916,0.746,1.66,1.66,1.66s1.66,-0.744,1.66,-1.66C105.252,117.714,104.506,116.969,103.592,116.969zM103.592,119.232c-0.332,0,-0.604,-0.27,-0.604,-0.603s0.271,-0.603,0.604,-0.603s0.604,0.27,0.604,0.603C104.196,118.962,103.924,119.232,103.592,119.232z"/>
    <path  fill="#8C8C8C" d="M114.278,127.237l-0.107,-3.419c-0.011,-0.178,-0.021,-0.338,-0.031,-0.489c-0.01,-0.162,-0.037,-0.322,-0.082,-0.476c-0.045,-0.158,-0.11,-0.309,-0.198,-0.453c-0.093,-0.146,-0.216,-0.289,-0.37,-0.42c-0.225,-0.192,-0.443,-0.334,-0.646,-0.416c-0.207,-0.084,-0.461,-0.127,-0.754,-0.127l-1.012,0c-0.259,0,-0.501,0.058,-0.716,0.164c-0.197,0.098,-0.39,0.203,-0.572,0.315l-0.003,0.002l-0.003,0.003l-0.837,0.555l0,-0.041c0,-0.291,-0.057,-0.539,-0.168,-0.733c-0.129,-0.226,-0.367,-0.339,-0.707,-0.339c-0.411,0,-0.604,0.185,-0.693,0.339c-0.109,0.194,-0.168,0.438,-0.168,0.733l0,6.099c0,0.295,0.059,0.539,0.168,0.734c0.09,0.153,0.282,0.338,0.693,0.338c0.34,0,0.578,-0.114,0.707,-0.338c0.111,-0.195,0.168,-0.439,0.168,-0.734L108.947,124.499l1.953,-1.215c0.04,-0.024,0.082,-0.048,0.121,-0.063c0.031,-0.016,0.07,-0.025,0.115,-0.031c0.049,-0.012,0.117,-0.016,0.195,-0.016l0.362,0c0.188,0,0.334,0.021,0.435,0.059c0.082,0.029,0.143,0.076,0.18,0.143c0.05,0.078,0.08,0.18,0.098,0.303c0.02,0.139,0.034,0.309,0.045,0.504l0.096,3.097c-0.457,0.297,-0.762,0.811,-0.762,1.394c0,0.917,0.746,1.661,1.66,1.661c0.916,0,1.66,-0.744,1.66,-1.661C115.104,128.062,114.771,127.524,114.278,127.237zM113.444,129.274c-0.334,0,-0.602,-0.271,-0.602,-0.604c0,-0.333,0.268,-0.604,0.602,-0.604c0.333,0,0.604,0.271,0.604,0.604C114.049,129.005,113.777,129.274,113.444,129.274z"/>
    <path  fill="#8C8C8C" d="M103.655,121.461l-1.193,0c-0.293,0,-0.539,0.059,-0.731,0.169c-0.226,0.129,-0.341,0.368,-0.341,0.708c0,0.412,0.186,0.604,0.341,0.691c0.192,0.113,0.438,0.168,0.731,0.168l0.545,0l0,5.362c0,0.293,0.055,0.539,0.168,0.73c0.127,0.227,0.365,0.341,0.707,0.341c0.41,0,0.604,-0.187,0.691,-0.341c0.111,-0.191,0.17,-0.438,0.17,-0.73L104.743,122.549c0,-0.386,-0.085,-0.656,-0.259,-0.83C104.312,121.547,104.039,121.461,103.655,121.461z"/>
   </g>
  </g>
 </g>
 <path stroke="#ffff00" stroke-linejoin="round" stroke-width="3" fill="none" stroke-linecap="round" d="M45.8719,36.608L45.8719,40.956"/>
 <path stroke="#020000" stroke-linejoin="round" stroke-width="3" fill="none" stroke-linecap="round" d="M53.0309,36.608L53.0309,40.956"/>
 <path stroke="#ff0000" stroke-linejoin="round" stroke-width="3" fill="none" stroke-linecap="round" d="M60.1819,36.608L60.1819,40.956"/>
 <g partID="855121920">
  <g  id="breadboard">
   <rect  width="0.999998" id="connector0pin" fill="none" height="0.999999" y="35" x="44.3679"/>
   <rect  width="0.999998" id="connector1pin" fill="none" height="0.999999" y="35" x="51.5309"/>
   <rect  width="0.999998" id="connector2pin" fill="none" height="0.999999" y="35" x="58.6819"/>
   <g y2=" 40.956" stroke="#FFFF00"  id="connector0leg" x1="45.872" fill="none" stroke-width="3" stroke-linecap="round" y1="36.608" x2="45.872"/>
   <g y2=" 40.956" stroke="#020000"  id="connector1leg" x1="53.031" fill="none" stroke-width="3" stroke-linecap="round" y1="36.608" x2="53.031"/>
   <g y2=" 40.956" stroke="#FF0000"  id="connector2leg" x1="60.182" fill="none" stroke-width="3" stroke-linecap="round" y1="36.608" x2="60.182"/>
   <g >
    <g >
     <g >
      <path  fill="#515151" d="M96.4239,2.13L9.62999,2.13C4.33399,2.13,0,6.14399,0,11.049s4.33399,8.91899,9.62999,8.91899l86.7939,0c5.29599,0,9.62999,-4.014,9.62999,-8.91899S101.72,2.13,96.4239,2.13zM9.04499,15.033c-2.07,0,-3.74899,-1.678,-3.74899,-3.749s1.679,-3.749,3.74899,-3.749c2.071,0,3.74899,1.678,3.74899,3.749S11.116,15.033,9.04499,15.033zM97.0009,15.034c-2.07,0,-3.74899,-1.678,-3.74899,-3.749s1.679,-3.749,3.74899,-3.749c2.071,0,3.74899,1.678,3.74899,3.749S99.0719,15.034,97.0009,15.034z"/>
     </g>
    </g>
    <g >
     <path  fill="#444444" d="M9.52599,2.963C4.28699,2.963,0,6.97699,0,11.882s4.28699,8.91899,9.52599,8.91899l87.0009,0c5.23899,0,9.52599,-4.014,9.52599,-8.91899s-4.28699,-8.91899,-9.52599,-8.91899L9.52599,2.963zM8.98899,15.631c-2.07,0,-3.74899,-1.678,-3.74899,-3.749s1.679,-3.749,3.74899,-3.749c2.071,0,3.74899,1.678,3.74899,3.749S11.061,15.631,8.98899,15.631zM97.0649,15.631c-2.07,0,-3.74799,-1.678,-3.74799,-3.749s1.678,-3.749,3.74799,-3.749s3.74899,1.678,3.74899,3.749S99.1359,15.631,97.0649,15.631z"/>
    </g>
    <rect  width="65.0999" fill="#4D4D4D" height="24.83" y="2.361" x="20.503"/>
    <polygon  points="85.6029,2.361,20.503,2.361,22.988,0,83.1169,0" fill="#636363"/>
    <rect  width="68.6569" fill="#515151" height="18.219" y="6.91099" x="18.725"/>
    <polygon  points="85.6419,4.773,20.541,4.773,18.725,6.91099,87.3819,6.91099" fill="#636363"/>
    <rect  width="14.868" fill="#5B5B5B" height="14.88" y="9.96599" x="18.059"/>
    <rect  width="46.5369" fill="#5B5B5B" height="14.887" y="9.96599" x="41.4249"/>
    <polygon  points="32.928,9.95599,33.7149,7.81799,19.875,7.81799,18.059,9.95599" fill="#636363"/>
    <g >
     <polygon  points="32.927,24.846,32.927,9.96599,32.927,9.95599,33.7139,7.81799,33.7139,23.598" fill="#444444"/>
    </g>
    <polygon  points="41.4249,9.95599,41.9489,7.81799,86.2529,7.81799,87.9919,9.95599" fill="#636363"/>
    <g >
     <circle  cy="17.207" r="6.36899" fill="#494949" cx="25.84"/>
     <g  opacity="0.48">
      <path  fill="#333333" d="M25.84,11.338c3.236,0,5.86899,2.633,5.86899,5.86899c0,3.236,-2.633,5.86899,-5.86899,5.86899c-3.235,0,-5.86799,-2.633,-5.86799,-5.86899C19.972,13.971,22.604,11.338,25.84,11.338M25.84,10.838c-3.51799,0,-6.36799,2.852,-6.36799,6.36899s2.851,6.36899,6.36799,6.36899c3.51899,0,6.36899,-2.852,6.36899,-6.36899S29.358,10.838,25.84,10.838L25.84,10.838z"/>
     </g>
    </g>
    <g >
     <path  d="M25.84,12.255c2.735,0,4.95299,2.217,4.95299,4.952c0,2.736,-2.218,4.954,-4.95299,4.954c-2.734,0,-4.95299,-2.218,-4.95299,-4.954C20.887,14.472,23.105,12.255,25.84,12.255M25.84,12.055c-2.842,0,-5.15299,2.312,-5.15299,5.152c0,2.842,2.312,5.154,5.15299,5.154s5.15299,-2.312,5.15299,-5.154C30.993,14.366,28.682,12.055,25.84,12.055L25.84,12.055z"/>
     <circle  cy="17.207" r="4.95299" cx="25.84"/>
     <g  opacity="0.09">
      <path  fill="#F2F2F2" d="M25.84,13.255c2.18,0,3.95299,1.773,3.95299,3.952c0,2.18,-1.773,3.954,-3.95299,3.954s-3.95299,-1.773,-3.95299,-3.954C21.887,15.028,23.66,13.255,25.84,13.255M25.84,12.255c-2.734,0,-4.95299,2.217,-4.95299,4.952c0,2.736,2.219,4.954,4.95299,4.954c2.735,0,4.95299,-2.218,4.95299,-4.954C30.793,14.472,28.575,12.255,25.84,12.255L25.84,12.255z"/>
     </g>
    </g>
    <rect  width="45.0549" fill="#515151" height="13.312" y="10.838" x="42.1659"/>
    <polygon  points="87.2209,24.15,86.5559,23.68,86.5559,10.838,87.2209,10.838" fill="#3A3A3A"/>
    <polygon  points="87.2209,24.15,86.5559,23.68,42.1659,23.681,42.1659,24.15" fill="#444444"/>
    <g  opacity="0.45">
     <path  fill="#333333" d="M72.5079,23.251c-1.569,-1.496,-2.466,-3.578,-2.466,-5.73399c0,-2.489,1.136,-4.775,3.119,-6.29299l9.62799,0c1.983,1.518,3.119,3.804,3.119,6.29299c0,2.157,-0.895999,4.238,-2.466,5.73399L72.5079,23.251z"/>
     <path  fill="#232323" d="M82.6599,11.599c1.829,1.446,2.873,3.589,2.873,5.91799c0,2.005,-0.813999,3.942,-2.243,5.359L72.6599,22.876c-1.429,-1.417,-2.243,-3.354,-2.243,-5.359c0,-2.329,1.044,-4.472,2.873,-5.91799L82.6599,11.599M82.9139,10.849l-9.87799,0c-2.041,1.514,-3.36899,3.933,-3.36899,6.66799c0,2.419,1.041,4.591,2.692,6.10899l11.231,0c1.651,-1.519,2.692,-3.69,2.692,-6.10899C86.2829,14.782,84.9549,12.363,82.9139,10.849L82.9139,10.849z"/>
    </g>
    <path  opacity="0.5" fill="#FFFFFF" d="M24.083,16.24c-0.816999,1.316,-0.243,2.841,-0.851999,2.241c-0.902999,-0.889999,-0.382999,-4.489,2.655,-4.616C27.108,13.815,24.9,14.924,24.083,16.24z"/>
    <g >
     <g >
      <path  d="M77.9749,12.243c2.757,0,4.99099,2.234,4.99099,4.99c0,2.757,-2.234,4.992,-4.99099,4.992c-2.756,0,-4.99099,-2.235,-4.99099,-4.992C72.9829,14.477,75.2189,12.243,77.9749,12.243M77.9749,12.041c-2.863,0,-5.19199,2.329,-5.19199,5.192c0,2.864,2.329,5.194,5.19199,5.194s5.19199,-2.33,5.19199,-5.194C83.1669,14.37,80.8379,12.041,77.9749,12.041L77.9749,12.041z"/>
      <circle  cy="17.233" r="4.99099" cx="77.9749"/>
      <g  opacity="0.09">
       <path  fill="#F2F2F2" d="M77.9749,13.25c2.196,0,3.98299,1.787,3.98299,3.982c0,2.197,-1.787,3.984,-3.98299,3.984s-3.98299,-1.788,-3.98299,-3.984C73.9909,15.037,75.7779,13.25,77.9749,13.25M77.9749,12.243c-2.756,0,-4.99099,2.234,-4.99099,4.99c0,2.757,2.235,4.992,4.99099,4.992c2.757,0,4.99099,-2.235,4.99099,-4.992C82.9659,14.477,80.7309,12.243,77.9749,12.243L77.9749,12.243z"/>
      </g>
     </g>
     <path  opacity="0.35" fill="#FFFFFF" d="M75.9899,16.543c-0.699999,1.127,-0.209,2.433,-0.729999,1.919c-0.772999,-0.761999,-0.327,-3.845,2.275,-3.954C78.5819,14.465,76.6899,15.415,75.9899,16.543z"/>
    </g>
   </g>
   <g >
    <path stroke="#FFFF00"  id="path7_1_" fill="none" stroke-width="3" d="M45.8719,27.191l0,9.41699"/>
    <path stroke="#020000"  id="path9_1_" fill="none" stroke-width="3" d="M53.0309,27.191l0,9.41699"/>
    <path stroke="#FF0000"  id="path11_1_" fill="none" stroke-width="3" d="M60.1819,27.191l0,9.41699"/>
   </g>
  </g>
 </g>
 <g partID="855121950">
  <g transform="translate(71.6994,98.067)">
   <g transform="matrix(-1,0,0,-1,0,0)">
    <g  id="breadboard" gorn="0.2">
     <g  id="icon" gorn="0.2.0">
      <polygon  points="39.918,6.52,39.918,6.52,39.918,14.794,39.918,14.794,39.918,16.691,44.19,16.691,44.19,4.617,39.918,4.617" fill="#2B2B2B"/>
      <polygon  points="39.918,14.52,39.918,14.794,39.918,14.794,39.918,16.26,44.19,16.26,44.19,14.52" fill="#292929"/>
      <polygon  points="39.918,7.09301,39.918,6.485,39.918,6.485,39.918,5.014,44.19,5.014,44.19,7.09301" fill="#292929"/>
      <rect  width="4.25" fill="#333333" height="3.208" y="8.48501" x="39.918"/>
      <rect  width="4.25" fill="#383838" height="1.763" y="9.40801" x="39.918"/>
      <rect  width="4.271" fill="#212121" height="0.436" y="16.259" x="39.918"/>
      <rect  width="4.271" fill="#212121" height="0.396" y="4.619" x="39.918"/>
      <rect  width="1.883" fill="#A1A1A1" height="12.07" y="4.619" x="44.172"/>
      <rect  width="1.883" fill="#ABABAB" height="7.42901" y="7.09101" x="44.172"/>
      <rect  width="1.883" fill="#C7C7C7" height="3.208" y="8.48501" x="44.172"/>
      <rect  width="1.883" fill="#E6E6E6" height="1.763" y="9.40801" x="44.172"/>
      <rect  width="1.883" fill="#737373" height="0.396" y="4.619" x="44.172"/>
      <rect  width="1.883" fill="#737373" height="0.396" y="16.277" x="44.172"/>
      <g >
       <g >
        <rect  width="40.318" fill="#333333" height="21.601" y="0" x="0"/>
       </g>
      </g>
      <rect  width="5.189" height="2.527" y="0" x="23.233"/>
      <rect  width="5.189" height="2.528" y="19.001" x="23.233"/>
      <rect  width="5.189" id="connector2pad" gorn="0.2.0.16" fill="#C7C7C7" height="0.835001" y="0" x="23.233"/>
      <rect  width="5.191" height="2.527" y="0" x="8.832"/>
      <rect  width="5.191" id="connector3pad" gorn="0.2.0.18" fill="#C7C7C7" height="0.835001" y="0" x="8.832"/>
      <rect  width="5.189" id="connector1pad" gorn="0.2.0.19" fill="#C7C7C7" height="0.836001" y="20.693" x="23.233"/>
      <rect  width="5.191" height="2.528" y="19.001" x="8.832"/>
      <rect  width="5.191" id="connector4pad" gorn="0.2.0.21" fill="#C7C7C7" height="0.836001" y="20.693" x="8.832"/>
      <rect  width="5.191" id="connector0pad" gorn="0.2.0.22" fill="#C7C7C7" height="0.836001" y="20.693" x="8.832"/>
     </g>
    </g>
   </g>
  </g>
 </g>
 <g partID="855124060">
  <g transform="translate(1.3386,100.809)">
   <g  id="breadboard">
    <text  font-size="7.2" id="label" xmlns:xml="http://www.w3.org/XML/1998/namespace" font-family="Droid Sans" stroke-width="0" fill="#787878" text-anchor="middle" xml:space="preserve" y="6.48" x="61.2">ground sleeve (-)</text>
   </g>
  </g>
 </g>
 <g partID="855124090">
  <g transform="translate(56.8053,65.876)">
   <g  id="breadboard">
    <text  font-size="7.2" id="label" xmlns:xml="http://www.w3.org/XML/1998/namespace" font-family="Droid Sans" stroke-width="0" fill="#787878" text-anchor="middle" xml:space="preserve" y="6.48" x="25.2">tip (+)</text>
   </g>
  </g>
 </g>
 <g partID="855124170">
  <g transform="translate(13.6053,65.076)">
   <g  id="breadboard">
    <text  font-size="7.2" id="label" xmlns:xml="http://www.w3.org/XML/1998/namespace" font-family="Droid Sans" stroke-width="0" fill="#787878" text-anchor="middle" xml:space="preserve" y="6.48" x="14.4">ring</text>
   </g>
  </g>
 </g>
 <g partID="855123600">
  <line stroke="#000000" y2="91.356" x1="53.0309" stroke-width="3.2" stroke-linecap="round" y1="40.956" x2="53.0719"/>
  <line stroke="#404040" y2="91.356" x1="53.0309" stroke-width="1.6" stroke-linecap="round" y1="40.956" x2="53.0719"/>
 </g>
 <g partID="855124120">
  <line stroke="#000000" y2="97.6495" x1="53.0719" stroke-width="3.2" stroke-linecap="round" y1="91.356" x2="60.2719"/>
  <line stroke="#404040" y2="97.6495" x1="53.0719" stroke-width="1.6" stroke-linecap="round" y1="91.356" x2="60.2719"/>
 </g>
 <g partID="855123660">
  <line stroke="#8c0000" y2="40.956" x1="60.2719" stroke-width="3.2" stroke-linecap="round" y1="55.356" x2="60.1819"/>
  <line stroke="#cc1414" y2="40.956" x1="60.2719" stroke-width="1.6" stroke-linecap="round" y1="55.356" x2="60.1819"/>
 </g>
 <g partID="855123670">
  <line stroke="#8c0000" y2="55.356" x1="60.2719" stroke-width="3.2" stroke-linecap="round" y1="76.956" x2="60.2719"/>
  <line stroke="#cc1414" y2="55.356" x1="60.2719" stroke-width="1.6" stroke-linecap="round" y1="76.956" x2="60.2719"/>
 </g>
 <g partID="855123740">
  <line stroke="#999999" y2="40.956" x1="45.8719" stroke-width="3.2" stroke-linecap="round" y1="69.756" x2="45.8719"/>
  <line stroke="#ffffff" y2="40.956" x1="45.8719" stroke-width="1.6" stroke-linecap="round" y1="69.756" x2="45.8719"/>
 </g>
 <g partID="855123750">
  <line stroke="#999999" y2="69.756" x1="45.8719" stroke-width="3.2" stroke-linecap="round" y1="76.956" x2="45.8719"/>
  <line stroke="#ffffff" y2="69.756" x1="45.8719" stroke-width="1.6" stroke-linecap="round" y1="76.956" x2="45.8719"/>
 </g>
</svg>
