<?xml version='1.0' encoding='UTF-8' standalone='no'?>
<!-- Created with Fritzing (https://fritzing.org/) -->
<svg xmlns="http://www.w3.org/2000/svg" x="0in" width="3.7836in" xmlns:svg="http://www.w3.org/2000/svg" baseProfile="tiny"  height="2.16946in" y="0in" version="1.2" viewBox="0 0 272.419 156.201">
 <g  id="watermark">
  <g >
   <g >
    <path fill="#8C8C8C"  d="M247.687,150.001c-0.604,0,-1.131,0.325,-1.422,0.809l-2.796,0l3.96,-4.071c0.146,-0.146,0.289,-0.322,0.428,-0.521c0.149,-0.222,0.228,-0.479,0.228,-0.768c0,-0.279,-0.097,-0.518,-0.287,-0.71c-0.19,-0.188,-0.444,-0.287,-0.754,-0.287l-4.636,0c-0.305,0,-0.555,0.06,-0.742,0.17c-0.219,0.13,-0.33,0.368,-0.33,0.707c0,0.329,0.111,0.562,0.33,0.692c0.188,0.111,0.438,0.168,0.742,0.168l3.148,0l-3.974,4.086c-0.146,0.147,-0.289,0.315,-0.425,0.504c-0.153,0.212,-0.23,0.472,-0.23,0.771c0,0.28,0.096,0.521,0.288,0.711c0.188,0.188,0.442,0.285,0.754,0.285l4.315,0c0.293,0.467,0.812,0.776,1.4,0.776c0.916,0,1.66,-0.744,1.66,-1.661C249.346,150.746,248.601,150.001,247.687,150.001zM247.687,152.264c-0.334,0,-0.604,-0.271,-0.604,-0.604c0,-0.333,0.27,-0.604,0.604,-0.604c0.332,0,0.604,0.271,0.604,0.604C248.29,151.995,248.019,152.264,247.687,152.264z"/>
    <path fill="#8C8C8C"  d="M230.744,139.959c-0.914,0,-1.659,0.745,-1.659,1.66c0,0.916,0.745,1.66,1.659,1.66s1.658,-0.744,1.658,-1.66C232.404,140.704,231.66,139.959,230.744,139.959zM230.745,142.222c-0.333,0,-0.604,-0.27,-0.604,-0.603s0.271,-0.603,0.604,-0.603c0.331,0,0.604,0.27,0.604,0.603S231.076,142.222,230.745,142.222z"/>
    <path fill="#8C8C8C"  d="M239.265,144.621c-0.193,-0.111,-0.439,-0.169,-0.732,-0.169l-1.465,0L237.068,141.93c0,-0.292,-0.057,-0.538,-0.166,-0.729C236.812,141.044,236.619,140.859,236.209,140.859c-0.34,0,-0.578,0.116,-0.709,0.342c-0.109,0.193,-0.167,0.438,-0.167,0.729l0,2.521l-0.481,0c-0.295,0,-0.539,0.06,-0.731,0.169c-0.228,0.129,-0.341,0.368,-0.341,0.708c0,0.412,0.185,0.603,0.341,0.692c0.192,0.111,0.438,0.168,0.731,0.168l0.481,0l0,4.362c0,0.277,0.026,0.533,0.081,0.768c0.056,0.246,0.154,0.464,0.298,0.645c0.146,0.186,0.345,0.332,0.595,0.436c0.241,0.098,0.555,0.146,0.93,0.146l0.896,0c0.292,0,0.539,-0.054,0.731,-0.166c0.154,-0.089,0.341,-0.281,0.341,-0.693c0,-0.338,-0.114,-0.578,-0.341,-0.709c-0.192,-0.109,-0.439,-0.168,-0.731,-0.168l-0.821,0c-0.138,0,-0.19,-0.019,-0.207,-0.024c-0.014,-0.034,-0.035,-0.103,-0.035,-0.231L237.07,146.189l1.465,0c0.295,0,0.541,-0.057,0.734,-0.168c0.152,-0.09,0.34,-0.28,0.34,-0.692C239.605,144.989,239.492,144.75,239.265,144.621z"/>
    <path fill="#8C8C8C"  d="M230.81,144.451l-1.191,0c-0.292,0,-0.538,0.059,-0.731,0.169c-0.226,0.129,-0.341,0.368,-0.341,0.708c0,0.412,0.188,0.604,0.341,0.691c0.193,0.113,0.439,0.168,0.731,0.168l0.544,0l0,5.362c0,0.293,0.057,0.539,0.167,0.73c0.131,0.227,0.367,0.341,0.708,0.341c0.411,0,0.604,-0.187,0.692,-0.341c0.111,-0.191,0.168,-0.438,0.168,-0.73L231.898,145.539c0,-0.386,-0.084,-0.656,-0.256,-0.83C231.467,144.537,231.197,144.451,230.81,144.451z"/>
    <path fill="#8C8C8C"  d="M226.975,144.621c-0.193,-0.111,-0.44,-0.169,-0.732,-0.169l-0.604,0c-0.25,0,-0.498,0.063,-0.734,0.187c-0.226,0.119,-0.433,0.271,-0.616,0.453l-0.644,0.604l0,-0.247c0,-0.291,-0.055,-0.538,-0.168,-0.729c-0.128,-0.228,-0.368,-0.34,-0.707,-0.34c-0.41,0,-0.604,0.184,-0.693,0.34c-0.11,0.191,-0.167,0.438,-0.167,0.729l0,4.801c-0.475,0.293,-0.791,0.816,-0.791,1.412c0,0.917,0.745,1.661,1.658,1.661c0.916,0,1.66,-0.744,1.66,-1.661c0,-0.596,-0.317,-1.119,-0.792,-1.412l0,-2.21l1.738,-1.564c0.1,-0.09,0.199,-0.164,0.297,-0.217c0.084,-0.045,0.174,-0.067,0.274,-0.067l0.288,0c0.292,0,0.539,-0.056,0.732,-0.169c0.155,-0.088,0.339,-0.279,0.339,-0.691C227.315,144.989,227.2,144.75,226.975,144.621zM222.776,152.264c-0.332,0,-0.603,-0.271,-0.603,-0.604c0,-0.333,0.271,-0.604,0.603,-0.604c0.333,0,0.604,0.271,0.604,0.604C223.38,151.995,223.109,152.264,222.776,152.264z"/>
    <path fill="#8C8C8C"  d="M220.259,141.102c-0.193,-0.111,-0.44,-0.167,-0.731,-0.167l-0.59,0c-0.2,0,-0.389,0.004,-0.562,0.016c-0.176,0.009,-0.345,0.035,-0.506,0.07c-0.168,0.041,-0.336,0.109,-0.496,0.202c-0.158,0.093,-0.319,0.222,-0.48,0.382c-0.334,0.314,-0.554,0.656,-0.652,1.017c-0.094,0.348,-0.143,0.735,-0.143,1.151l0,0.678l-0.483,0c-0.292,0,-0.539,0.059,-0.73,0.169c-0.227,0.13,-0.342,0.369,-0.342,0.708c0,0.412,0.185,0.604,0.341,0.693c0.191,0.111,0.438,0.166,0.73,0.166l0.483,0l0,5.362c0,0.293,0.057,0.539,0.167,0.73c0.13,0.227,0.367,0.341,0.708,0.341c0.411,0,0.603,-0.187,0.692,-0.341c0.111,-0.191,0.168,-0.438,0.168,-0.73l0,-5.36l0.92,0c0.293,0,0.54,-0.057,0.732,-0.168c0.155,-0.09,0.34,-0.28,0.34,-0.692c0,-0.34,-0.114,-0.579,-0.34,-0.708c-0.189,-0.111,-0.436,-0.17,-0.729,-0.17l-0.92,0l0,-0.678c0,-0.218,0.019,-0.41,0.056,-0.571c0.032,-0.141,0.103,-0.261,0.218,-0.367l0.002,-0.004l0.002,-0.002c0.082,-0.082,0.176,-0.126,0.29,-0.136c0.15,-0.015,0.339,-0.022,0.564,-0.022l0.56,0c0.291,0,0.539,-0.058,0.731,-0.168c0.154,-0.088,0.339,-0.281,0.339,-0.693C220.599,141.471,220.484,141.232,220.259,141.102z"/>
    <path fill="#8C8C8C"  d="M272.252,144.719c-0.089,-0.156,-0.282,-0.34,-0.693,-0.34c-0.339,0,-0.578,0.113,-0.707,0.34c-0.078,0.133,-0.127,0.293,-0.152,0.477l-0.021,-0.021c-0.216,-0.236,-0.466,-0.42,-0.747,-0.539c-0.277,-0.119,-0.563,-0.183,-0.849,-0.183l-0.709,0c-0.249,0,-0.466,0.015,-0.64,0.041c-0.182,0.026,-0.352,0.074,-0.51,0.14c-0.158,0.066,-0.313,0.15,-0.459,0.254c-0.139,0.097,-0.303,0.226,-0.486,0.377c-0.188,0.156,-0.342,0.302,-0.463,0.434c-0.127,0.141,-0.23,0.293,-0.306,0.455c-0.069,0.16,-0.122,0.337,-0.147,0.523c-0.026,0.178,-0.041,0.391,-0.041,0.631l0,2.386c0,0.24,0.015,0.451,0.041,0.631c0.025,0.188,0.078,0.361,0.147,0.521c0.074,0.164,0.179,0.318,0.306,0.457c0.119,0.129,0.274,0.274,0.463,0.433c0.186,0.153,0.35,0.28,0.486,0.379c0.146,0.103,0.299,0.188,0.459,0.254c0.158,0.065,0.329,0.112,0.51,0.14c0.174,0.026,0.389,0.039,0.64,0.039l0.709,0c0.298,0,0.591,-0.066,0.87,-0.199c0.244,-0.114,0.492,-0.291,0.73,-0.523l0,1.434c0,0.18,-0.025,0.334,-0.072,0.465c-0.043,0.119,-0.159,0.258,-0.344,0.406c-0.154,0.127,-0.309,0.217,-0.457,0.264c-0.15,0.049,-0.341,0.074,-0.563,0.074l-2.203,0c-0.293,0,-0.538,0.055,-0.732,0.166c-0.152,0.088,-0.34,0.282,-0.34,0.692c0,0.341,0.115,0.579,0.34,0.71c0.194,0.109,0.439,0.167,0.732,0.167l2.326,0c0.247,0,0.463,-0.015,0.638,-0.041c0.179,-0.026,0.351,-0.073,0.513,-0.14c0.153,-0.064,0.31,-0.15,0.455,-0.254c0.143,-0.101,0.305,-0.227,0.487,-0.379c0.185,-0.153,0.343,-0.299,0.463,-0.431c0.128,-0.141,0.229,-0.294,0.304,-0.456c0.071,-0.162,0.123,-0.338,0.148,-0.523c0.025,-0.182,0.041,-0.393,0.041,-0.631l0,-7.898C272.419,145.157,272.365,144.91,272.252,144.719zM270.683,149.179c0,0.188,-0.062,0.35,-0.188,0.49c-0.15,0.172,-0.394,0.403,-0.716,0.686l-0.002,0.003l-0.002,0.004c-0.139,0.13,-0.291,0.237,-0.453,0.325c-0.148,0.082,-0.325,0.121,-0.526,0.121L268.495,150.808c-0.222,0,-0.41,-0.021,-0.563,-0.072c-0.148,-0.049,-0.301,-0.137,-0.453,-0.264c-0.231,-0.186,-0.315,-0.322,-0.346,-0.404c-0.049,-0.131,-0.072,-0.285,-0.072,-0.465l0,-2.206c0,-0.18,0.023,-0.336,0.072,-0.467c0.029,-0.082,0.113,-0.217,0.346,-0.403c0.152,-0.127,0.305,-0.216,0.453,-0.265c0.153,-0.049,0.342,-0.072,0.563,-0.072l0.301,0c0.212,0,0.388,0.037,0.526,0.113c0.152,0.082,0.308,0.191,0.457,0.324c0.322,0.293,0.564,0.529,0.716,0.7c0.128,0.146,0.188,0.304,0.188,0.492L270.683,149.179z"/>
    <path fill="#8C8C8C"  d="M252.273,139.959c-0.914,0,-1.66,0.745,-1.66,1.66c0,0.916,0.746,1.66,1.66,1.66s1.66,-0.744,1.66,-1.66C253.933,140.704,253.187,139.959,252.273,139.959zM252.273,142.222c-0.332,0,-0.604,-0.27,-0.604,-0.603s0.271,-0.603,0.604,-0.603s0.604,0.27,0.604,0.603C252.877,141.952,252.605,142.222,252.273,142.222z"/>
    <path fill="#8C8C8C"  d="M262.959,150.227l-0.107,-3.419c-0.011,-0.178,-0.021,-0.338,-0.031,-0.489c-0.01,-0.162,-0.037,-0.322,-0.082,-0.476c-0.045,-0.158,-0.11,-0.309,-0.198,-0.453c-0.093,-0.146,-0.216,-0.289,-0.37,-0.42c-0.225,-0.192,-0.443,-0.334,-0.646,-0.416c-0.207,-0.084,-0.461,-0.127,-0.754,-0.127l-1.012,0c-0.259,0,-0.501,0.058,-0.716,0.164c-0.197,0.098,-0.39,0.203,-0.572,0.315l-0.003,0.002l-0.003,0.003l-0.837,0.555l0,-0.041c0,-0.291,-0.057,-0.539,-0.168,-0.733c-0.129,-0.226,-0.367,-0.339,-0.707,-0.339c-0.411,0,-0.604,0.185,-0.693,0.339c-0.109,0.194,-0.168,0.438,-0.168,0.733l0,6.099c0,0.295,0.059,0.539,0.168,0.734c0.09,0.153,0.282,0.338,0.693,0.338c0.34,0,0.578,-0.114,0.707,-0.338c0.111,-0.195,0.168,-0.439,0.168,-0.734L257.628,147.489l1.953,-1.215c0.04,-0.024,0.082,-0.048,0.121,-0.063c0.031,-0.016,0.07,-0.025,0.115,-0.031c0.049,-0.012,0.117,-0.016,0.195,-0.016l0.362,0c0.188,0,0.334,0.021,0.435,0.059c0.082,0.029,0.143,0.076,0.18,0.143c0.05,0.078,0.08,0.18,0.098,0.303c0.02,0.139,0.034,0.309,0.045,0.504l0.096,3.097c-0.457,0.297,-0.762,0.811,-0.762,1.394c0,0.917,0.746,1.661,1.66,1.661c0.916,0,1.66,-0.744,1.66,-1.661C263.785,151.052,263.452,150.514,262.959,150.227zM262.125,152.264c-0.334,0,-0.602,-0.271,-0.602,-0.604c0,-0.333,0.268,-0.604,0.602,-0.604c0.333,0,0.604,0.271,0.604,0.604C262.73,151.995,262.458,152.264,262.125,152.264z"/>
    <path fill="#8C8C8C"  d="M252.336,144.451l-1.193,0c-0.293,0,-0.539,0.059,-0.731,0.169c-0.226,0.129,-0.341,0.368,-0.341,0.708c0,0.412,0.186,0.604,0.341,0.691c0.192,0.113,0.438,0.168,0.731,0.168l0.545,0l0,5.362c0,0.293,0.055,0.539,0.168,0.73c0.127,0.227,0.365,0.341,0.707,0.341c0.41,0,0.604,-0.187,0.691,-0.341c0.111,-0.191,0.17,-0.438,0.17,-0.73L253.424,145.539c0,-0.386,-0.085,-0.656,-0.259,-0.83C252.993,144.537,252.72,144.451,252.336,144.451z"/>
   </g>
  </g>
 </g>
 <g partID="855121920">
  <g transform="translate(1.092,51.2105)">
   <g gorn="0.1" id="schematic">
    <polyline points="18.107,10.969,21.707,7.36799,25.311,10.969" fill="none" stroke-width="0.7" stroke-linecap="round" stroke="#000000"/>
    <polyline points="25.311,3.768,11.674,3.768,8.074,7.36799,4.476,3.768" fill="none" stroke-width="0.7" stroke-linecap="round" stroke="#000000"/>
    <line x1="25.311" fill="none" stroke-width="0.7" x2="25.311" y2="10.969" y1="10.969" stroke-linecap="round" stroke="#000000"/>
    <polyline points="14.507,18.166,18.107,14.568,21.707,18.166,25.311,18.166" fill="none" stroke-width="0.7" stroke-linecap="round" stroke="#000000"/>
    <polyline points="10.908,25.367,14.507,21.768,18.105,25.367,25.311,25.367" fill="none" stroke-width="0.7" stroke-linecap="round" stroke="#000000"/>
    <rect width="3.709" height="22.116" y="3.529"/>
    <line x1="32.508" fill="none" stroke-width="0.7" gorn="0.1.6" x2="25.309" id="connector0pin" y2="3.768" y1="3.768" stroke-linecap="round" stroke="#787878"/>
    <g fill="none" gorn="0.1.7" id="connector0terminal" d="M32.508,3.768L32.508,3.768L32.508,3.768z"/>
    <line x1="32.508" fill="none" stroke-width="0.7" gorn="0.1.8" x2="25.309" id="connector1pin" y2="25.367" y1="25.367" stroke-linecap="round" stroke="#787878"/>
    <g fill="none" gorn="0.1.9" id="connector1terminal" d="M32.508,25.367L32.508,25.367L32.508,25.367z"/>
    <line x1="32.508" fill="none" stroke-width="0.7" gorn="0.1.10" x2="25.311" id="connector2pin" y2="10.969" y1="10.969" stroke-linecap="round" stroke="#000000"/>
    <g fill="none" gorn="0.1.11" id="connector2terminal" d="M32.508,10.969L32.508,10.969L32.508,10.969z"/>
    <g transform="matrix(1, 0, 0, 1, 25.6758, 2.5945)">
     <g>
      <g>
       <text font-family="'Droid Sans'" font-size="2">Sleeve</text>
      </g>
     </g>
    </g>
    <g transform="matrix(1, 0, 0, 1, 26.3877, 24.2371)">
     <g>
      <g>
       <text font-family="'Droid Sans'" font-size="2">Ring2</text>
      </g>
     </g>
    </g>
    <g transform="matrix(1, 0, 0, 1, 26.3877, 17.0115)">
     <g>
      <g>
       <text font-family="'Droid Sans'" font-size="2">Ring1</text>
      </g>
     </g>
    </g>
    <g transform="matrix(1, 0, 0, 1, 28.6729, 9.67749)">
     <g>
      <g>
       <text font-family="'Droid Sans'" font-size="2">Tip</text>
      </g>
     </g>
    </g>
    <line x1="32.508" fill="none" stroke-width="0.7" gorn="0.1.16" x2="25.309" id="connector3pin" y2="10.969" y1="10.969" stroke-linecap="round" stroke="#787878"/>
    <g fill="none" gorn="0.1.17" id="connector3terminal" d="M32.508,10.969L32.508,10.969L32.508,10.969z"/>
    <line x1="32.508" fill="none" stroke-width="0.7" gorn="0.1.18" x2="25.309" id="connector4pin" y2="18.166" y1="18.166" stroke-linecap="round" stroke="#787878"/>
    <g fill="none" gorn="0.1.19" id="connector4terminal" d="M32.508,18.166L32.508,18.166L32.508,18.166z"/>
   </g>
  </g>
 </g>
 <g partID="855141360">
  <g transform="translate(87.9407,5.6)">
   <g id="schematic">
    <g transform="matrix(0,-1,1,0,0,0)">
     <rect x="-106.299" width="85.0394" fill="none" stroke-width="1.43427" id="rect10403" height="106.299" stroke-opacity="1" y="42.5197" style="stroke-linecap:round;stroke-linejoin:round;stroke-miterlimit:4;stroke-dasharray:none" stroke="#000000"/>
    </g>
    <path fill="none" stroke-width="2.4" id="path10449" d="m21.2598,85.0393,21.2598,0" stroke-opacity="1" style="color:#000000;stroke-linecap:butt;stroke-linejoin:miter;stroke-miterlimit:4;stroke-dasharray:none;stroke-dashoffset:0;marker:none;visibility:visible;display:inline;overflow:visible;enable-background:accumulate" stroke="#000000"/>
    <path fill="none" stroke-width="2.4" id="path10453" d="m21.2598,63.7795,21.2598,0" stroke-opacity="1" style="color:#000000;stroke-linecap:butt;stroke-linejoin:miter;stroke-miterlimit:4;stroke-dasharray:none;stroke-dashoffset:0;marker:none;visibility:visible;display:inline;overflow:visible;enable-background:accumulate" stroke="#000000"/>
    <path fill="none" stroke-width="2.4" id="path10461" d="m42.5197,42.5197,-21.2598,0" stroke-opacity="1" style="color:#000000;stroke-linecap:butt;stroke-linejoin:miter;stroke-miterlimit:4;stroke-dasharray:none;stroke-dashoffset:0;marker:none;visibility:visible;display:inline;overflow:visible;enable-background:accumulate" stroke="#000000"/>
    <g transform="matrix(1, 0, 0, 1, -1.41732, -3.34011e-06)">
     <g fill-opacity="1" xml:space="preserve" fill="#000000" id="text10504" xmlns:xml="http://www.w3.org/XML/1998/namespace" style="font-style:normal;font-variant:normal;font-weight:normal;font-stretch:normal;text-align:start;line-height:125%;letter-spacing:0px;word-spacing:0px;text-anchor:start;font-family:Droid Sans;-inkscape-font-specification:Droid Sans" stroke="none" font-size="8">
      <text x="46.7717" id="tspan10506" y="45.3543">VDD</text>
     </g>
    </g>
    <g transform="matrix(1, 0, 0, 1, -1.41732, -0.0283475)">
     <g fill-opacity="1" xml:space="preserve" fill="#000000" id="text10508" xmlns:xml="http://www.w3.org/XML/1998/namespace" style="font-style:normal;font-variant:normal;font-weight:normal;font-stretch:normal;text-align:start;line-height:125%;letter-spacing:0px;word-spacing:0px;text-anchor:start;font-family:Droid Sans;-inkscape-font-specification:Droid Sans" stroke="none" font-size="8">
      <text x="46.7717" id="tspan10510" y="66.6425">SIG</text>
     </g>
    </g>
    <text x="45.3543" fill-opacity="1" fill="#000000" id="tspan10514" y="87.874" style="font-style:normal;font-variant:normal;font-weight:normal;font-stretch:normal;text-align:start;line-height:125%;letter-spacing:0px;word-spacing:0px;text-anchor:start;font-family:Droid Sans;-inkscape-font-specification:Droid Sans" stroke="none" font-size="8">GND</text>
    <rect x="18.4252" width="5.66929" fill="none" id="connector1pin" height="5.66929" y="39.685" stroke="none"/>
    <rect x="18.4252" width="5.66929" fill="none" id="connector2pin" height="5.66929" y="60.9449" stroke="none"/>
    <rect x="18.4252" width="5.66929" fill="none" id="connector3pin" height="5.66929" y="82.2047" stroke="none"/>
    <g transform="matrix(1, 0, 0, 1, 0, -6.51858)">
     <g fill-opacity="1" xml:space="preserve" fill="#000000" id="text4619" xmlns:xml="http://www.w3.org/XML/1998/namespace" style="font-style:normal;font-variant:normal;font-weight:normal;font-stretch:normal;text-align:center;line-height:125%;letter-spacing:0px;word-spacing:0px;text-anchor:middle;font-family:OCR A Std;-inkscape-font-specification:OCR A Std" stroke="none" font-size="6.4">
      <text x="107.311" id="tspan4621" y="68.9157" style="font-style:normal;font-variant:normal;font-weight:normal;font-stretch:normal;font-family:Droid Sans;-inkscape-font-specification:Droid Sans" font-size="14.4">PIR</text>
      <text x="107.311" id="text4046" y="81.6718" style="font-style:normal;font-variant:normal;font-weight:normal;font-stretch:normal;font-family:Droid Sans;-inkscape-font-specification:Droid Sans" font-size="14.4">SENSOR</text>
     </g>
    </g>
   </g>
  </g>
 </g>
 <g partID="855142630">
  <line x1="30.0005" stroke-width="0.699998" x2="109.201" y2="69.3795" y1="69.3765" stroke-linecap="round" stroke="#404040"/>
 </g>
 <g partID="855142850">
  <line x1="109.201" stroke-width="0.699998" x2="109.201" y2="48.1196" y1="62.1795" stroke-linecap="round" stroke="#404040"/>
 </g>
 <g partID="855142780">
  <line x1="30.0015" stroke-width="0.699998" x2="109.201" y2="62.1795" y1="62.1795" stroke-linecap="round" stroke="#404040"/>
 </g>
 <g partID="855143080">
  <line x1="66.0005" stroke-width="0.699998" x2="66.0005" y2="90.9795" y1="54.9795" stroke-linecap="round" stroke="#404040"/>
 </g>
 <g partID="855143010">
  <line x1="66.0005" stroke-width="0.699998" x2="109.201" y2="90.6394" y1="90.9795" stroke-linecap="round" stroke="#404040"/>
 </g>
 <g partID="855142940">
  <line x1="30.0005" stroke-width="0.699998" x2="66.0005" y2="54.9795" y1="54.9785" stroke-linecap="round" stroke="#404040"/>
 </g>
 <g partID="855121920" id="partLabel">
  <g transform="translate(0,42.4105)">
   <g font-style="normal" fill-opacity="1" fill="#000000" font-weight="normal" font-family="'DroidSans'" id="schematicLabel" font-size="5" stroke="none">
    <text x="0" y="3.75">mini jack (female)1</text>
   </g>
  </g>
 </g>
 <g partID="855141360" id="partLabel">
  <g transform="translate(258.019,0)">
   <g font-style="normal" fill-opacity="1" fill="#000000" font-weight="normal" font-family="'DroidSans'" id="schematicLabel" font-size="5" stroke="none">
    <text x="0" y="3.75">PIR1</text>
   </g>
  </g>
 </g>
</svg>
