<?xml version="1.0" encoding="UTF-8"?>
<svg width="384px" height="85px" viewBox="0 0 384 85" version="1.1" xmlns="http://www.w3.org/2000/svg" xmlns:xlink="http://www.w3.org/1999/xlink">
    <title>Artboard</title>
    <g id="Artboard" stroke="none" stroke-width="1" fill="none" fill-rule="evenodd">
        <g id="Group-167" transform="translate(0.000000, 0.750000)">
            <g id="logo" transform="translate(0.000000, 0.000000)">
                <path d="M51.7288214,42.4993941 C51.7288214,34.2760022 60.1700514,27.6088967 70.5822983,27.6088967 C80.9945451,27.6088967 89.4357751,34.2760022 89.4357751,42.4993941 C89.4357751,50.7227859 80.9945451,57.3877969 70.5822983,57.3877969 C60.1700514,57.3877969 51.7288214,50.7227859 51.7288214,42.4993941" id="Fill-161" fill="#1A1919"></path>
                <path d="M127.024803,42.4868265 C127.024803,19.0231393 100.578408,0 70.5397779,0 C57.9805681,0 53.7411017,1.17925869 53.7411017,1.17925869 L48.3789307,1.95425996 L47.017442,2.54493661 L45.0024387,2.74182882 L45.6580479,3.62784379 L43.8252746,3.60480321 L44.0870994,4.51595336 L43.2492602,4.90973779 L42.4910157,3.84987118 L40.7378371,5.40196832 L39.7177679,4.61439946 L39.5879028,5.69730665 L38.2536439,5.20507611 L39.378443,6.58332161 L38.0169543,7.27244437 L37.8870892,5.67217147 L35.2960714,5.59886054 L34.5629621,7.86521561 L33.6224876,7.7646749 L33.203568,7.46933658 L31.6598493,7.37089047 L31.8420793,8.45589225 L32.5751886,9.0465689 L31.8420793,9.63724554 L30.4826852,8.94812279 L29.2782913,9.07170408 L29.3306562,11.2123833 L29.2259263,11.3108294 L28.5975469,10.6217066 L28.075992,11.2123833 L28.2833572,11.6082623 L27.5523425,12.1989389 L27.3428827,12.1989389 L27.1334229,11.8030599 L26.2955837,11.5077216 L25.7719342,11.5077216 L25.7719342,11.9036006 L23.5747008,12.0020467 L23.5747008,13.0849539 L23.8888906,13.0849539 L23.9936205,14.2663072 L24.3078102,15.5482012 L24.3078102,15.9419856 L24.2030803,16.0404317 L23.6794308,15.4476605 L23.8888906,15.0538761 L23.365241,14.5616455 L22.7368616,15.4476605 L21.7963871,15.7429988 L20.853818,16.2373239 L20.6443582,16.7295545 L20.1207087,16.5326623 L19.4923293,16.7295545 L18.8660445,16.2373239 L18.9707744,17.1233389 L20.5396283,17.4186772 L20.5396283,17.8124617 L18.8660445,18.1078 L18.2376651,17.4186772 L16.9809062,17.9109078 L16.8761763,17.8124617 L14.7836729,18.0093539 L14.9931327,18.6984766 L14.4694832,19.4860455 L14.4694832,20.1772628 L14.2600234,20.2757089 L13.5269141,19.6850323 L13.0053592,20.0788167 L11.7486004,19.6850323 L11.2249509,19.7834784 L11.015491,19.7834784 L11.4344107,20.3741551 L12.3769798,20.1772628 L13.0053592,20.6694934 L13.8411038,20.1772628 L13.7363739,21.5555083 L12.6911695,22.146185 L11.015491,21.0632778 L9.97028663,22.2446311 L10.4918415,22.8353077 L10.4918415,23.428079 L10.1776518,23.6249712 L9.97028663,23.6249712 L9.97028663,22.8353077 L8.50406801,23.3275383 L8.50406801,23.9203095 L6.41156458,24.0187556 L6.72575428,24.9047706 L7.35413369,25.1016628 L7.24940379,27.466464 L6.72575428,27.466464 L6.41156458,28.4509251 L6.83048418,28.6478173 L7.24940379,27.7618023 L7.5614989,27.7618023 L7.8756886,26.6768005 L7.5614989,26.0861239 L7.5614989,25.6923395 L8.60879791,25.5938934 L8.81825771,25.5938934 L8.81825771,26.2830161 L9.34190722,26.2830161 L9.23717732,26.7752466 L8.1898783,26.7752466 L8.1898783,27.2695718 L9.34190722,27.7618023 L9.34190722,27.5649101 L11.3296808,27.466464 L11.3296808,27.3680179 L11.4344107,27.2695718 L11.8533303,27.7618023 L13.3174543,27.8602484 L13.631644,26.8736927 L14.3647533,26.9721389 L14.4694832,27.466464 L14.4694832,27.7618023 L14.8884028,27.466464 L15.5167822,27.9586945 L16.3525268,27.466464 L16.8761763,27.7618023 L17.0856361,27.1690311 L16.8761763,26.9721389 L16.8761763,26.6768005 L17.7140156,26.2830161 L18.342395,26.7752466 L18.342395,26.6768005 L19.3875994,27.2695718 L19.4923293,27.466464 L20.1207087,27.2695718 L20.4348984,26.6768005 L20.6443582,26.5783544 L21.0632778,26.0861239 L20.7490881,26.18457 L20.5396283,26.18457 L20.6443582,25.4954472 L21.1680077,25.4954472 L21.3774675,25.0032167 L21.1680077,24.9047706 L21.1680077,24.5109862 L21.901117,24.4125401 L22.5274018,23.9203095 L23.365241,23.428079 L22.9463214,22.4415233 L22.5274018,22.6384155 L22.317942,22.6384155 L22.1105768,22.4415233 L23.365241,21.3586161 L23.8888906,20.7679395 L24.6219999,20.8663856 L25.2482847,21.9492928 L25.2482847,22.7368616 L24.51727,22.7368616 L24.51727,23.2290922 L25.6672043,23.428079 L25.8766641,22.7368616 L25.6672043,22.146185 L26.1908538,21.8508467 L26.1908538,20.4726012 L26.9239631,20.1772628 L27.4476126,22.2446311 L27.6570724,22.2446311 L28.075992,23.428079 L29.2259263,23.2290922 L30.4826852,22.4415233 L28.9117366,22.0477389 L28.9117366,21.6539545 L30.9016048,21.3586161 L31.7373494,20.6694934 L31.7373494,20.0788167 L32.6799185,20.1772628 L33.3082979,20.6694934 L33.9345827,20.1772628 L34.0414072,20.3741551 L34.667692,20.1772628 L34.667692,19.2891533 L35.5055312,19.4860455 L36.4481004,20.2757089 L39.6926327,19.0922611 L39.378443,19.0922611 L39.4831729,18.4031383 L40.5283773,18.5015844 L40.6331072,18.6000305 L42.2040557,18.3046922 L42.2040557,17.7140156 L44.7154788,17.5171233 L47.7505513,16.8280006 L49.3194053,17.221785 L51.3092734,16.9997576 C51.3092734,16.9997576 58.5042176,15.6298905 70.5397779,15.6298905 C89.3387953,15.6298905 104.581185,28.0613298 104.581185,42.4868265 C104.581185,56.9123231 89.3387953,68.6043693 70.5397779,68.6043693 C47.1221719,68.6043693 36.7874252,58.0015141 36.7874252,58.0015141 L29.2007912,69.0819377 C29.2007912,69.0819377 43.1989898,83.7420293 70.2779532,83.4969613 C100.316584,83.222569 127.024803,65.9505136 127.024803,42.4868265 L127.024803,42.4868265 Z M22.3975368,12.7896156 L23.0259162,12.5927234 L22.8164564,12.1989389 L22.3975368,12.4942773 L22.3975368,12.7896156 Z M21.036048,13.9709689 L20.5144931,13.7740767 L20.7239529,13.3802922 L20.0955735,13.6756306 L19.9908436,13.3802922 L19.6766539,13.3802922 L19.6766539,14.2663072 L17.1652309,14.3647533 L18.1057054,14.9554299 L18.524625,14.6600916 L19.2577343,15.2507683 L19.7813838,14.2663072 L19.8861137,14.3647533 L21.036048,13.9709689 Z M8.06001323,22.0477389 L9.00048774,21.0632778 L8.16474313,20.2757089 L7.95528333,20.7679395 L6.5937946,20.9648317 L6.2796049,21.5555083 L7.22217401,21.3586161 L8.06001323,22.0477389 Z M6.69852451,26.18457 L5.86068529,25.8892317 L5.65332009,25.4954472 L5.54859019,26.2830161 L5.02494068,26.3814622 L4.81548088,26.3814622 L4.81548088,26.7752466 L6.69852451,26.4799083 L6.69852451,26.18457 Z M3.03507255,30.5182933 L3.97764166,29.7307245 L3.03507255,29.9276167 L3.03507255,30.5182933 Z M2.93034265,27.5649101 L3.97764166,27.5649101 L3.97764166,26.8736927 L2.82561275,26.8736927 L2.19932793,25.2001089 L0.837839213,25.4954472 L0.62837941,25.298555 L0.314189705,25.4954472 L1.25675882,26.7752466 L1.67567843,26.7752466 L1.67567843,28.1555867 L2.93034265,27.6633562 L2.93034265,27.5649101 Z M0.62837941,28.7462634 L2.27484698e-13,28.7462634 L2.27484698e-13,29.1400478 L0.62837941,28.7462634 Z M2.72297744,30.222955 L2.09459803,30.4198472 L2.09459803,30.8136316 L2.72297744,30.222955 Z M5.33913038,28.6478173 L5.65332009,28.2540329 L5.33913038,28.2540329 L5.33913038,28.6478173 Z M5.02494068,30.4198472 L2.82561275,31.10897 L3.03507255,31.9970795 L3.55872206,32.1939718 L4.39656127,31.9970795 L6.07223969,32.6862023 L6.90798431,32.390864 L6.69852451,31.10897 L6.69852451,30.9141724 L7.95528333,31.0126185 L8.06001323,31.2095107 L9.20994755,30.8136316 L10.4667064,30.9141724 L12.4544799,30.8136316 L13.1875892,30.222955 L12.8733995,30.222955 L12.8733995,29.7307245 L12.4544799,29.9276167 L12.1402902,29.9276167 L11.9308304,29.0416017 L10.5714363,29.4353861 L9.73359705,28.8447095 L9.94305686,28.5493712 L9.62886715,28.2540329 L9.62886715,28.4509251 L9.41940735,28.5493712 L9.20994755,28.0571406 L7.85055342,28.0571406 L8.06001323,28.6478173 L9.00048774,28.8447095 L9.10521764,29.33694 L9.10521764,29.6322784 L7.53636372,29.4353861 L6.90798431,29.0416017 L6.2796049,29.33694 L6.2796049,29.8291706 L6.07223969,29.9276167 L5.54859019,29.6322784 L5.02494068,30.4198472 Z M8.16474313,32.2924179 L7.85055342,32.2924179 L8.06001323,32.8830945 L8.47893283,32.8830945 L8.16474313,32.2924179 Z M8.68629804,31.8001873 L8.58366273,31.9970795 L8.79102794,32.0955256 L8.68629804,31.8001873 Z M14.861173,28.4509251 L14.3375235,28.4509251 L14.7585377,28.6478173 L15.2800926,28.0571406 L14.861173,28.0571406 L14.861173,28.4509251 Z M23.5495657,23.8218634 L22.9211863,23.8218634 L23.1306461,24.9047706 L23.7569309,25.1016628 L25.5373392,24.0187556 L25.5373392,23.5244305 L25.0136897,23.3275383 L24.3853103,23.7234173 L24.3853103,24.1172017 L24.1758505,24.314094 L23.5495657,23.8218634 Z" id="Fill-163" fill="#D71E13"></path>
            </g>
            <g id="text" transform="translate(149.433872, 18.543126)" fill="#1A1919">
                <path d="M0.259459812,47.2628197 L10.1537383,47.2628197 L10.1537383,34.04619 C10.1537383,25.063185 14.4506459,21.614268 22.4590945,21.614268 C23.4336508,21.614268 24.2816414,21.6775509 24.996738,21.7439979 C25.7782816,21.8072808 26.4933781,21.8737278 27.0819089,22.0034577 L27.0819089,14.5835399 C24.7372782,14.1279032 22.7850013,13.9317263 20.6998304,13.9317263 C13.0837356,13.9317263 10.871999,18.3583638 9.89427844,20.5732646 L9.76454854,20.5732646 C9.76454854,18.5545407 9.63481863,16.5990997 9.50508873,14.5835399 L0,14.5835399 C0.129729906,16.7952766 0.259459812,19.658827 0.259459812,22.7850013 L0.259459812,47.2628197 Z M69.5383938,27.4078158 C69.5383938,15.9504502 60.0333051,13.3463596 50.8541232,13.3463596 C42.3900378,13.3463596 33.3405859,15.3650835 32.3660295,23.7627218 L42.6494977,23.7627218 C43.0418515,21.2219141 45.775672,19.2031902 50.5914992,19.2031902 C55.5402205,19.2031902 59.6409512,20.7029945 59.6409512,26.4965423 L51.7653967,26.4965423 C39.2670277,26.4965423 29.499315,28.2526422 29.499315,38.4728275 C29.499315,43.162089 33.4703158,48.5 44.9276814,48.5 C51.2433129,48.5 56.3217641,46.87363 60.4224948,42.7697351 C60.4224948,44.2695394 60.4889418,45.7661795 60.6819546,47.2628197 L69.7978536,47.2628197 C69.6016767,45.0479188 69.5383938,43.2253719 69.5383938,41.0769181 L69.5383938,27.4078158 Z M59.6409512,32.3533729 C59.5112213,40.1656446 52.1545864,43.0323591 47.2723121,43.0323591 C41.6084943,43.0323591 39.7859473,40.0359147 39.7859473,37.824178 C39.7859473,33.9164601 44.0164079,32.3533729 51.5059368,32.3533729 L59.6409512,32.3533729 Z M79.821862,47.2628197 L89.7161404,47.2628197 L89.7161404,31.5085465 C89.7161404,23.5665449 94.7313087,19.9847338 99.8730428,19.9847338 C104.625587,19.9847338 108.337128,21.8737278 108.337128,29.9454593 L108.337128,47.2628197 L118.231407,47.2628197 L118.231407,27.1483559 C118.231407,16.5358168 109.118672,13.3463596 103.258677,13.3463596 C97.2689522,13.3463596 92.7758677,15.3650835 89.4566806,19.9847338 L89.3269507,19.9847338 C89.3269507,18.1621868 89.1972208,16.4060869 89.0674909,14.5835399 L79.5624021,14.5835399 C79.692132,16.6655467 79.821862,19.4658142 79.821862,22.3293646 L79.821862,47.2628197 Z M127.995955,47.2628197 L137.890234,47.2628197 L137.890234,31.5085465 C137.890234,23.5665449 142.902238,19.9847338 148.047136,19.9847338 C152.79968,19.9847338 156.508057,21.8737278 156.508057,29.9454593 L156.508057,47.2628197 L166.4055,47.2628197 L166.4055,27.1483559 C166.4055,16.5358168 157.289601,13.3463596 151.43277,13.3463596 C145.443045,13.3463596 140.949961,15.3650835 137.630774,19.9847338 L137.501044,19.9847338 C137.501044,18.1621868 137.371314,16.4060869 137.23842,14.5835399 L127.736495,14.5835399 C127.866225,16.6655467 127.995955,19.4658142 127.995955,22.3293646 L127.995955,47.2628197 Z M183.321014,9.11273486 L194.582203,0 L183.450744,0 L175.897932,9.11273486 L183.321014,9.11273486 Z M175.973871,47.2628197 L185.86815,47.2628197 L185.86815,14.5835399 L175.973871,14.5835399 L175.973871,47.2628197 Z M194.515755,37.2388113 C195.363746,46.2218163 200.897834,48.5 213.98157,48.5 C227.131752,48.5 231.42866,43.3582659 231.42866,37.4982711 C231.42866,32.6792797 228.56511,28.9044559 221.338205,27.7970055 L211.766669,26.3003653 C206.821112,25.5188218 206.102851,24.4778184 206.102851,22.7185543 C206.102851,20.5732646 208.447482,19.2031902 212.159023,19.2031902 C217.237474,19.2031902 219.841564,20.5068176 220.167471,24.2816414 L230.450939,24.2816414 C230.450939,15.6878262 221.467934,13.3463596 213.655663,13.3463596 C199.723937,13.3463596 195.819383,19.2696373 195.819383,24.0886287 C195.819383,27.9267354 197.445753,32.8754567 208.706942,34.3720968 L216.389483,35.4131002 C219.971294,35.868737 221.142028,36.9761874 221.142028,38.6057216 C221.142028,41.0136352 218.734114,42.6400052 213.003849,42.6400052 C208.058292,42.6400052 205.780108,41.4028249 205.061848,37.2388113 L194.515755,37.2388113 Z" id="Fill-165"></path>
            </g>
        </g>
    </g>
</svg>