<?xml version="1.0" encoding="UTF-8"?>
<svg width="200px" height="217px" viewBox="0 0 200 217" version="1.1" xmlns="http://www.w3.org/2000/svg" xmlns:xlink="http://www.w3.org/1999/xlink">
    <title>Artboard</title>
    <g id="Artboard" stroke="none" stroke-width="1" fill="none" fill-rule="evenodd">
        <path d="M108.057398,77.0640842 L91.8346433,77.0640842 L91.8346433,216.409692 L108.057398,216.409692 L108.057398,77.0640842 Z M32.7369766,77.0640842 L16.5125077,77.0640842 L16.5125077,216.409692 L32.7369766,216.409692 L32.7369766,77.0640842 Z M34.7654507,24.6255993 C34.7822667,27.3204373 33.71927,29.9098321 31.8136938,31.8154083 C29.9081177,33.7209844 27.3187228,34.7839812 24.6238849,34.7671652 C19.1185726,34.7671652 14.4840443,30.1377697 14.4840443,24.6255993 C14.4676826,21.9313568 15.530648,19.3426688 17.4358012,17.4375157 C19.3409543,15.5323625 21.9296423,14.4693971 24.6238849,14.4857588 C30.4189504,14.4857588 34.7654507,18.8339629 34.7654507,24.6255993 M49.2512074,24.6255993 C49.2512074,11.0254795 38.2262907,0 24.6261709,0 C11.026051,0 0.00063124617,11.0243366 0,24.6244564 C-0.00063124617,38.2245762 11.0237651,49.2502519 24.6238849,49.2512089 C31.1569706,49.2571191 37.4242048,46.6645998 42.0439567,42.0451695 C46.6637087,37.4257391 49.2566643,31.1586855 49.2512074,24.6255993 M110.087586,24.6255993 C110.104402,27.3204373 109.041406,29.9098321 107.135829,31.8154083 C105.230253,33.7209844 102.640858,34.7839812 99.9460205,34.7671652 C94.4424227,34.7671652 89.8078944,30.1377697 89.8078944,24.6255993 C89.7915373,21.9316558 90.8542682,19.3432314 92.7590488,17.4381286 C94.6638295,15.5330259 97.2520742,14.4698573 99.9460205,14.4857692 C105.741086,14.4857692 110.087586,18.8339629 110.087586,24.6255993 M124.573343,24.6255993 C124.573343,11.0254795 113.548426,0 99.9483064,0 C86.3481866,0 75.3227668,11.0243366 75.3221356,24.6244564 C75.3215043,38.2245762 86.3459007,49.2502519 99.9460205,49.2512089 C106.479106,49.2571191 112.74634,46.6645998 117.366092,42.0451695 C121.985844,37.4257391 124.5788,31.1586855 124.573343,24.6255993 M183.484046,77.0640842 L167.261292,77.0640842 L167.261292,216.409692 L183.484046,216.409692 L183.484046,77.0640842 Z M185.514235,24.6255993 C185.531051,27.3204373 184.468054,29.9098321 182.562478,31.8154083 C180.656902,33.7209844 178.067507,34.7839812 175.372669,34.7671652 C169.869071,34.7671652 165.234543,30.1377697 165.234543,24.6255993 C165.218186,21.9316558 166.280917,19.3432314 168.185697,17.4381286 C170.090478,15.5330259 172.678723,14.4698573 175.372669,14.4857692 C181.167734,14.4857692 185.514235,18.8339629 185.514235,24.6255993 M199.999991,24.6255993 C199.999991,11.0254795 188.975075,0 175.374955,0 C161.774835,0 150.749415,11.0243366 150.748784,24.6244564 C150.748153,38.2245762 161.772549,49.2502519 175.372669,49.2512089 C181.905755,49.2571191 188.172989,46.6645998 192.792741,42.0451695 C197.412493,37.4257391 200.005448,31.1586855 199.999991,24.6255993" id="Shape" fill="#4E5B58" fill-rule="nonzero"></path>
    </g>
</svg>