<svg width="198" height="53" viewBox="0 0 198 53" fill="none" xmlns="http://www.w3.org/2000/svg">
<rect width="198" height="53" fill="white"/>
<g clip-path="url(#clip0)">
<path d="M191.996 51.8157V48.4728H195.113C196.166 48.4728 196.846 49.1658 196.846 50.1437C196.846 51.1216 196.166 51.8157 195.113 51.8157H191.996ZM195.186 44.8615C196.014 44.8615 196.572 45.4181 196.572 46.2101C196.572 47.0021 196.014 47.5301 195.186 47.5301H191.996V44.8571L195.186 44.8615ZM196.497 47.9668C197.239 47.6456 197.671 47.0274 197.671 46.1606C197.671 44.8736 196.695 43.9221 195.235 43.9221H190.93V52.754H195.124C196.831 52.754 197.943 51.654 197.943 50.169C197.943 49.1416 197.4 48.3859 196.497 48.0284V47.9668ZM183.594 45.0221H183.643L184.963 48.5608H182.254L183.594 45.0221ZM187.664 52.754L184.287 43.9221H182.975L179.587 52.754H180.687L181.897 49.5365H185.334L186.534 52.754H187.664ZM172.645 43.9221H171.571V52.754H177.197V51.753H172.645V43.9221ZM151.578 53.1907C155.388 53.1907 156.96 51.2712 156.96 49.0019C156.96 43.1565 148.118 46.0066 148.118 42.3128C148.118 41.0335 149.018 40.2778 150.909 40.2778C153.033 40.2778 154.022 41.3239 154.195 43.4469H156.638C156.318 39.8697 154.022 38.2989 150.909 38.2989C147.331 38.2989 145.761 40.2184 145.761 42.4008C145.761 48.1879 154.574 45.3367 154.574 49.1196C154.574 50.3109 153.76 51.2096 151.604 51.2096C149.249 51.2096 147.997 50.1624 147.852 47.9228H145.409C145.7 51.6166 148.259 53.1874 151.575 53.1874L151.578 53.1907ZM140.874 50.8026C139.304 50.8026 138.723 50.3076 138.723 48.7126V40.9466H142.707V38.7598H138.723V33.4369H136.395V38.7598H133.35V40.9411H136.404V48.9403C136.404 51.6155 137.451 52.9828 140.621 52.9828C141.336 52.992 142.049 52.9137 142.744 52.7496V50.5683C142.136 50.7206 141.511 50.7989 140.883 50.8015L140.874 50.8026ZM125.373 38.2945C123.283 38.2945 121.825 39.1371 120.952 40.5055V38.7598H118.771V52.7496H121.099V45.2168C121.099 41.9014 122.668 40.5055 124.908 40.5055C126.799 40.5055 127.933 41.5516 127.933 43.9661V52.7496H130.259V43.6196C130.259 40.0413 128.31 38.2967 125.373 38.2967V38.2945ZM108.202 40.3328C110.382 40.3328 111.691 41.6132 112.186 44.3467H104.247C104.594 41.6418 106.137 40.3328 108.207 40.3328H108.202ZM108.322 51.1524C105.879 51.1524 104.28 49.5244 104.163 46.2662H114.749C114.576 41.1754 112.337 38.2967 108.235 38.2967C104.275 38.2967 101.72 41.1754 101.72 45.7767C101.72 50.3428 104.046 53.2215 108.265 53.2215C111.464 53.2215 113.79 51.709 114.576 48.3936H112.074C111.609 50.1096 110.504 51.1568 108.322 51.1568V51.1524ZM92.7186 38.3011C90.4504 38.3011 88.9082 39.2614 88.0359 40.8608C87.3374 39.29 85.8546 38.3011 83.6733 38.3011C81.5833 38.3011 80.1247 39.1437 79.2524 40.5121V38.7598H77.07V52.7496H79.3976V45.2168C79.3976 41.9014 80.9684 40.5055 83.208 40.5055C85.0978 40.5055 86.2319 41.5516 86.2319 43.9661V52.7496H88.5595V45.2168C88.5595 41.9014 90.1589 40.5055 92.3985 40.5055C94.2597 40.5055 95.3949 41.5516 95.3949 43.9661V52.7496H97.7104V43.6196C97.7104 40.0413 95.8206 38.2967 92.7087 38.2967L92.7186 38.3011ZM69.8804 46.2981C69.8804 49.5838 68.3107 51.0094 66.0997 51.0094C64.2385 51.0094 63.1044 49.9336 63.1044 47.5477V38.7598H60.7779V47.8898C60.7779 51.467 62.726 53.2116 65.6344 53.2116C67.7244 53.2116 69.1819 52.369 70.0267 50.972V52.7463H72.2069V38.7598H69.8804V46.2981ZM55.7806 38.5904C53.9194 38.5904 52.5235 39.3461 51.6501 40.6551V38.7598H49.4699V52.7496H51.7964V45.2498C51.7964 41.9619 53.6862 40.7695 55.7806 40.7695C56.9741 40.7695 57.4966 40.9444 57.4966 40.9444V38.7598C57.4966 38.7598 56.9741 38.586 55.7806 38.586V38.5904ZM44.2306 50.796C42.6598 50.796 42.0779 50.301 42.0779 48.706V40.94H46.0621V38.7598H42.0779V33.4369H39.7514V38.7598H36.6967V40.9411H39.7514V48.9403C39.7514 51.6155 40.7986 52.9828 43.9688 52.9828C44.6833 52.992 45.3963 52.9137 46.0918 52.7496V50.5683C45.4831 50.7206 44.8581 50.7989 44.2306 50.8015V50.796ZM28.8944 53.1863C32.7048 53.1863 34.2745 51.2668 34.2745 48.9975C34.2745 43.1521 25.4327 46.0022 25.4327 42.3084C25.4327 41.0291 26.3347 40.2734 28.2256 40.2734C30.3475 40.2734 31.3375 41.3195 31.5124 43.4425H33.9555C33.6354 39.8653 31.3375 38.2945 28.2256 38.2945C24.6473 38.2945 23.0776 40.214 23.0776 42.3964C23.0776 48.1835 31.8908 45.3323 31.8908 49.1152C31.8908 50.3065 31.0757 51.2052 28.9208 51.2052C26.5646 51.2052 25.315 50.158 25.1698 47.9184H22.7234C23.0138 51.6122 25.5746 53.183 28.89 53.183L28.8944 53.1863ZM13.93 38.2912C11.84 38.2912 10.3814 39.1338 9.50802 40.5022V38.7598H7.32782V52.7496H9.65432V45.2168C9.65432 41.9014 11.224 40.5055 13.4636 40.5055C15.3545 40.5055 16.4886 41.5516 16.4886 43.9661V52.7496H18.8162V43.6196C18.8162 40.0413 16.867 38.2967 13.93 38.2967V38.2912ZM2.49002 38.762H0.162418V52.7529H2.49002V38.762ZM2.60002 32.6548H0.0117188V36.0285H2.60002V32.6548Z" fill="#4E5B58"/>
<path d="M127.549 19.1624C125.977 19.1624 125.396 18.6685 125.396 17.0724V9.30642H129.382V7.12182H125.396V1.80002H123.069V7.12293H120.015V9.30422H123.069V17.3023C123.069 19.9786 124.117 21.3459 127.286 21.3459C128.001 21.3552 128.715 21.2769 129.411 21.1127V18.9314C128.802 19.0831 128.177 19.161 127.549 19.1635V19.1624ZM112.039 6.65762C109.949 6.65762 108.491 7.50022 107.62 8.86752V7.12182H105.437V21.1116H107.764V13.5777C107.764 10.2634 109.336 8.86642 111.575 8.86642C113.465 8.86642 114.599 9.91363 114.599 12.3281V21.1116H116.926V11.9816C116.926 8.40332 114.977 6.65872 112.039 6.65872V6.65762ZM94.8684 8.69372C97.0497 8.69372 98.3587 9.97412 98.8537 12.7087H90.9128C91.2615 10.0027 92.8026 8.69372 94.8728 8.69372H94.8684ZM94.9894 19.5144C92.5463 19.5144 90.9458 17.8853 90.8303 14.6282H101.417C101.242 9.53742 98.9967 6.65872 94.9014 6.65872C90.9414 6.65872 88.3872 9.53742 88.3872 14.1387C88.3872 18.7059 90.7137 21.5846 94.9311 21.5846C98.131 21.5846 100.456 20.0721 101.242 16.7556H98.7415C98.2751 18.4716 97.1707 19.5199 94.9894 19.5199V19.5144ZM81.2031 21.556C82.8905 21.556 83.6759 22.656 83.6759 23.8528C83.6759 25.1046 82.8905 26.1793 80.6223 26.1793H76.9571C74.7164 26.1793 73.9321 25.1046 73.9321 23.8825C73.9321 22.6604 74.7164 21.556 76.6073 21.556H81.2031ZM78.1484 14.8075C76.0837 14.8075 74.6592 13.7317 74.6592 11.7539C74.6592 9.80472 76.0837 8.69922 78.1484 8.69922C80.2384 8.69922 81.6398 9.80472 81.6398 11.7539C81.6398 13.7339 80.2428 14.8075 78.1484 14.8075ZM85.4491 9.19752C85.7439 9.20007 86.0373 9.23923 86.3225 9.31412V7.10313C85.9999 7.01626 85.6664 6.97697 85.3325 6.98653C83.9938 6.98653 83.2084 7.53653 82.7431 8.35493C81.7245 7.27803 80.1548 6.66752 78.1473 6.66752C74.5987 6.66752 72.2436 8.61563 72.2436 11.7572C72.2436 13.1872 72.7089 14.3466 73.5812 15.1892C72.127 15.8283 71.3999 16.7897 71.3999 18.2142C71.3999 19.6684 72.0401 20.511 73.524 21.0929C72.3019 21.7914 71.5748 22.6934 71.5748 24.2059C71.5748 26.4741 73.2897 28.1659 76.8691 28.1659H80.5332C84.4305 28.1659 86.0882 26.0429 86.0882 23.7736C86.0882 21.3888 84.4888 19.4407 81.202 19.4407H75.6173C74.3952 19.4407 73.7275 18.9457 73.7275 18.0107C73.7275 17.1659 74.1917 16.5554 75.2675 16.2947C76.169 16.6339 77.1259 16.8017 78.089 16.7897C81.609 16.7897 83.963 14.8097 83.963 11.6989C83.9641 11.367 83.9354 11.0357 83.8772 10.7089C83.9344 9.77832 84.4008 9.19642 85.4469 9.19642L85.4491 9.19752ZM67.4597 7.12182H65.1332V21.1127H67.4597V7.12182ZM67.5763 1.01462H64.988V4.38833H67.5697L67.5763 1.01462ZM60.2965 0.344727H57.9667V21.1116H60.2943L60.2965 0.344727ZM53.1465 0.344727H50.8189V21.1116H53.1465V0.344727ZM40.2204 8.69153C42.4017 8.69153 43.7107 9.97193 44.2057 12.7065H36.2648C36.6135 10.0005 38.1557 8.69153 40.2248 8.69153H40.2204ZM40.3414 19.5122C37.8983 19.5122 36.2989 17.8831 36.1823 14.626H46.7687C46.5949 9.53522 44.3553 6.65653 40.2545 6.65653C36.2945 6.65653 33.7392 9.53523 33.7392 14.1365C33.7392 18.7037 36.0657 21.5824 40.2842 21.5824C43.483 21.5824 45.8095 20.0699 46.5949 16.7534H44.0935C43.6282 18.4694 42.5238 19.5177 40.3414 19.5177V19.5122ZM29.4459 19.1679C27.8762 19.1679 27.2943 18.674 27.2943 17.0779V9.31192H31.2697V7.12182H27.2855V1.80002H24.959V7.12293H21.9043V9.30422H24.959V17.3023C24.959 19.9786 26.0051 21.3459 29.1753 21.3459C29.8898 21.3552 30.6028 21.2769 31.2983 21.1127V18.9314C30.6895 19.0832 30.0645 19.1611 29.4371 19.1635L29.4459 19.1679ZM13.9271 6.65762C11.8371 6.65762 10.3785 7.50022 9.50508 8.86752V7.12182H7.32488V21.1116H9.65138V13.5777C9.65138 10.2634 11.2211 8.86642 13.4607 8.86642C15.3516 8.86642 16.4857 9.91363 16.4857 12.3281V21.1116H18.8133V11.9816C18.8133 8.40332 16.8641 6.65872 13.9271 6.65872V6.65762ZM2.48708 7.12403H0.159489V21.1149H2.48708V7.12403ZM2.59708 1.01682H0.00878906V4.39052H2.59708V1.01682Z" fill="#4E5B58"/>
</g>
<defs>
<clipPath id="clip0">
<rect width="198" height="53" fill="white"/>
</clipPath>
</defs>
</svg>
