<svg xmlns="http://www.w3.org/2000/svg" viewBox="0 0 4000 2000"><defs><style>.a{fill:#4e5b58;}</style></defs><path class="a" d="M3405.52,1271.24l9.79.11c6.19,0,15.53,3.16,15.53,13.17,0,11.59-11.14,13-16,13.16l-9.34.12Zm.12,35.77,11.92.1c9.12.12,15.76,6.08,15.76,13.51,0,8.66-7,13.39-15.86,13.39l-11.82.11Zm-10.9,36.21h22c16.31,0,27.88-7.86,27.88-22.38,0-12.15-10.44-17.66-15.17-18.55v-.68a18.6,18.6,0,0,0,12.48-17.76c0-13.4-11.35-21.82-27-21.82h-20.24Zm-74.34-29.68,11.92-38.7h.68l12.36,38.7Zm28,9.1,6.86,20.58h11.36L3338.84,1262h-12.37l-26.76,81.19h11.36l6.52-20.58Zm-115.61,20.59h44.42v-10.12l-33.28.11V1262h-11.14Zm-260.38-39.4c1.33,29.87,26.44,42.83,51,42.83,29.08,0,51.55-15.34,51.55-40.72,0-22-18-34.11-46.53-40.72-19.57-4.49-30.41-10.31-30.41-21.41,0-13.49,12.43-18.25,23.26-18.25,12.18,0,22.49,7.94,23.28,21.42h25.12c-1.33-25.65-22.74-39.67-47.6-39.67-28.56,0-48.64,14.29-48.64,38.35,0,21.95,19.56,33.57,47.32,40.45,19,4.76,28.56,11.11,28.56,22.21,0,11.89-10.31,19.57-24.86,19.57-18.78,0-26.44-13.23-26.44-24.06Zm-104-74.31h21.16v75.1c0,25.64,14.28,41,39.93,41,9,0,17.72-3.44,22.21-6.61v-19.56a56,56,0,0,1-19.3,4c-12.16,0-18.25-7.14-18.25-19v-74.83h37.55v-19h-37.55v-39.66h-19.56l-4.5,39.66h-21.69Zm-134.76,113.7h25.12V1266c5.29-22,20.63-38.87,38.87-38.87,15.07,0,23.27,10.83,23.27,29.08v87h25.38v-86.46c0-40.19-28-48.91-43.89-48.91-24.85,0-39.4,19.3-42.84,25.38h-1.58v-22.74h-25.65a173.46,173.46,0,0,1,1.32,22.74ZM2608,1262.32c2.39-24.34,17.72-37.29,35.43-37.29,27,0,33.85,24.07,33.59,36.75Zm93.6,18c3.44-31.19-10-73.24-58.69-73.24-37.28,0-60.56,31.47-60.56,68.74,0,43.11,24.86,71.4,62.15,71.4,34.63,0,54.47-23,57.37-45h-24.33c-3.17,15.07-15.33,25.65-31.72,25.65-25.38,0-38.61-20.1-38.87-47.6Zm-258.32,62.93h25.12v-79.59c6.62-23,20.89-37,36-37,12.43,0,22.48,7.93,22.48,25.39v91.21H2552v-88.57c0-38.61-27-47.6-44.42-47.6-26.19,0-36.76,17.45-42.31,27h-1.59c-7.4-21.68-22.21-27-36.76-27-26.69,0-38.86,21.42-41.77,27h-1.58c.26-12.16-.27-23.53-.27-23.53h-25.91c1.33,7.13,1.59,16.13,1.59,23.53v109.2h25.11v-76.41c4.5-23,21.16-39.93,38.08-39.93,11.9,0,21.15,8.2,21.15,25.65Zm-148.43-132.73v75.62c-4.24,23-19.84,38.87-37.81,38.87-17.19,0-25.12-12.17-25.12-29.61v-84.88h-25.39v84.61c0,40.19,27.5,50,45.22,50a49.42,49.42,0,0,0,43.1-24.86h1.59a213.34,213.34,0,0,0,.26,23h25.65a133.2,133.2,0,0,1-1.85-22.73v-110Zm-191.83,132.73h25.12v-59c1.31-28,15.6-52.89,40.72-52.89a35.89,35.89,0,0,1,14.8,3.44v-22.74a39.14,39.14,0,0,0-16.92-3.7c-19.3,0-34.11,19.57-38.6,36.75h-1.59l-1.32-34.63h-23.8a298.62,298.62,0,0,1,1.59,34.63Zm-108.91-113.7h21.15v75.1c0,25.64,14.28,41,39.93,41,9,0,17.71-3.44,22.21-6.61v-19.56a56,56,0,0,1-19.3,4c-12.16,0-18.25-7.14-18.25-19v-74.83h37.55v-19h-37.55v-39.66h-19.56l-4.5,39.66h-21.68Zm-119.33,74.31c1.32,29.87,26.45,42.83,51,42.83,29.09,0,51.56-15.34,51.56-40.72,0-22-18-34.11-46.53-40.72-19.57-4.49-30.41-10.31-30.41-21.41,0-13.49,12.43-18.25,23.27-18.25,12.16,0,22.47,7.94,23.26,21.42h25.12c-1.32-25.65-22.73-39.67-47.59-39.67-28.55,0-48.65,14.29-48.65,38.35,0,21.95,19.56,33.57,47.33,40.45,19,4.76,28.55,11.11,28.55,22.21,0,11.89-10.31,19.57-24.85,19.57-18.77,0-26.44-13.23-26.44-24.06ZM1732,1343.22h25.11V1266c5.29-22,20.62-38.87,38.87-38.87,15.07,0,23.27,10.83,23.27,29.08v87h25.38v-86.46c0-40.19-28-48.91-43.89-48.91-24.86,0-39.4,19.3-42.83,25.38h-1.59v-22.74h-25.65a175.31,175.31,0,0,1,1.33,22.74Zm-66.27-174.77c0,9.52,6.87,15.86,16.13,15.86s16.39-6.34,16.39-15.86-7.14-16.13-16.39-16.13-16.13,6.61-16.13,16.13m3.7,174.77h24.86V1210.48h-24.86Z"/><path class="a" d="M2733.2,941.86h21.16V1017c0,25.64,14.28,41,39.92,41,9,0,17.72-3.44,22.22-6.61v-19.56a56,56,0,0,1-19.3,4c-12.18,0-18.25-7.14-18.25-19V941.86h37.55v-19H2779V883.17h-19.57l-4.49,39.66H2733.2Zm-134.76,113.7h25.11V978.35c5.29-21.94,20.63-38.86,38.87-38.86,15.08,0,23.28,10.83,23.28,29.08v87h25.38V969.1c0-40.2-28-48.92-43.89-48.92-24.86,0-39.4,19.31-42.84,25.38h-1.58V922.83h-25.65a175,175,0,0,1,1.32,22.73Zm-125.57-80.91c2.39-24.33,17.72-37.29,35.43-37.29,27,0,33.85,24.06,33.59,36.76Zm93.6,18c3.44-31.21-10-73.24-58.69-73.24-37.29,0-60.56,31.46-60.56,68.74,0,43.1,24.86,71.4,62.15,71.4,34.63,0,54.45-23,57.37-44.95h-24.33c-3.17,15.06-15.33,25.65-31.73,25.65-25.38,0-38.6-20.1-38.86-47.6ZM2419.2,956.14c0-9.52.53-23.53,2.64-33.31H2398c-1.31,6.61-1.85,13.22-2.64,18h-1.58c-3.44-6.07-14.28-19.82-38.08-19.82-34.1,0-56.59,28.56-56.59,66.89,0,36,20.1,65.57,57.38,65.57,15.6,0,29.89-8.46,37-21.15h1.59s-.26,10.58-.26,20.89c0,24.59-10.85,38.34-32.52,38.34-18,0-28.56-11.63-29.89-26.44h-25.12c2.12,17.72,15.87,43.63,54.73,43.63,32.52,0,57.12-19,57.12-57.65Zm-94.66,30.14c0-26.17,10.84-47.59,36-47.59,19.57,0,33.05,17.72,33.84,32.26v32.52c-1.59,14-14.8,30.93-33.31,30.93-22.47,0-36.49-18.23-36.49-48.12m-84.42-105.5c0,9.53,6.87,15.87,16.12,15.87s16.4-6.34,16.4-15.87-7.15-16.12-16.4-16.12-16.12,6.61-16.12,16.12m3.7,174.78h24.85V922.82h-24.85ZM2205.9,918.33l-2.64-53.67h-22.21v190.9h24.85Zm-62.48,0-2.64-53.67h-22.21v190.9h24.85Zm-150.29,56.32c2.38-24.33,17.72-37.29,35.44-37.29,27,0,33.84,24.06,33.57,36.76Zm93.61,18c3.43-31.21-10-73.24-58.71-73.24-37.27,0-60.54,31.46-60.54,68.74,0,43.1,24.86,71.4,62.13,71.4,34.64,0,54.47-23,57.38-44.95h-24.32c-3.18,15.06-15.34,25.65-31.74,25.65-25.38,0-38.59-20.1-38.87-47.6ZM1866.8,941.86H1888V1017c0,25.64,14.27,41,39.92,41,9,0,17.71-3.44,22.21-6.61v-19.56a56,56,0,0,1-19.3,4c-12.16,0-18.25-7.14-18.25-19V941.86h37.55v-19h-37.55V883.17H1893l-4.5,39.66H1866.8ZM1732,1055.56h25.11V978.35c5.29-21.94,20.62-38.86,38.87-38.86,15.07,0,23.27,10.83,23.27,29.08v87h25.38V969.1c0-40.2-28-48.92-43.89-48.92-24.86,0-39.4,19.31-42.83,25.38h-1.59V922.83h-25.65a175.06,175.06,0,0,1,1.33,22.73Zm-66.27-174.78c0,9.53,6.87,15.87,16.13,15.87s16.39-6.34,16.39-15.87-7.14-16.12-16.39-16.12-16.13,6.61-16.13,16.12m3.7,174.78h24.86V922.82h-24.86Z"/><path class="a" d="M1355,1316H1219.32v53H1355ZM998.63,886.91h-53V1342.5h53Zm-246.26,0h-53V1342.5h53ZM759,715.46a33,33,0,0,1-33.16,33.16,33.56,33.56,0,0,1-33.15-33.16,33,33,0,0,1,33.15-33.15c18.95,0,33.16,14.22,33.16,33.15m47.36,0A80.51,80.51,0,1,0,725.84,796a80.44,80.44,0,0,0,80.52-80.52m198.91,0a33,33,0,0,1-33.16,33.16A33.55,33.55,0,0,1,939,715.46a33,33,0,0,1,33.15-33.15c18.95,0,33.16,14.22,33.16,33.15m47.35,0A80.51,80.51,0,1,0,972.11,796a80.44,80.44,0,0,0,80.51-80.52m140.18,570.21h53v-628h-53Z"/></svg>