<svg width="3188" height="2000" viewBox="0 0 3188 2000" fill="none" xmlns="http://www.w3.org/2000/svg">
<g clip-path="url(#clip0)">
<rect width="3187.82" height="2000" fill="white"/>
<path d="M2538.17 1257.01V1223.07H2569.82C2580.51 1223.07 2587.41 1230.11 2587.41 1240.04C2587.41 1249.97 2580.51 1257.01 2569.82 1257.01H2538.17ZM2570.56 1186.41C2578.97 1186.41 2584.63 1192.06 2584.63 1200.1C2584.63 1208.14 2578.97 1213.5 2570.56 1213.5H2538.17V1186.37L2570.56 1186.41ZM2583.87 1217.94C2591.41 1214.68 2595.79 1208.4 2595.79 1199.6C2595.79 1186.53 2585.88 1176.87 2571.06 1176.87H2527.35V1266.54H2569.94C2587.27 1266.54 2598.56 1255.37 2598.56 1240.29C2598.56 1229.86 2593.04 1222.19 2583.87 1218.56V1217.94ZM2452.87 1188.04H2453.37L2466.78 1223.97H2439.27L2452.87 1188.04ZM2494.19 1266.54L2459.91 1176.87H2446.58L2412.19 1266.54H2423.35L2435.64 1233.87H2470.54L2482.72 1266.54H2494.19ZM2341.7 1176.87H2330.8V1266.54H2387.93V1256.38H2341.7V1176.87ZM2127.82 1270.97C2166.5 1270.97 2182.46 1251.48 2182.46 1228.45C2182.46 1169.1 2092.69 1198.04 2092.69 1160.54C2092.69 1147.55 2101.82 1139.88 2121.02 1139.88C2142.59 1139.88 2152.63 1150.5 2154.39 1172.05H2179.2C2175.95 1135.73 2152.63 1119.79 2121.02 1119.79C2084.7 1119.79 2068.75 1139.27 2068.75 1161.43C2068.75 1220.18 2158.23 1191.24 2158.23 1229.64C2158.23 1241.73 2149.97 1250.86 2128.08 1250.86C2104.17 1250.86 2091.46 1240.23 2089.98 1217.49H2065.18C2068.14 1254.99 2094.12 1270.94 2127.79 1270.94L2127.82 1270.97ZM2019.14 1246.73C2003.2 1246.73 1997.3 1241.7 1997.3 1225.51V1146.67H2037.75V1124.46H1997.3V1070.43H1973.67V1124.46H1942.75V1146.61H1973.76V1227.82C1973.76 1254.98 1984.39 1268.86 2016.58 1268.86C2023.83 1268.95 2031.07 1268.16 2038.13 1266.49V1244.35C2031.95 1245.9 2025.61 1246.69 2019.23 1246.72L2019.14 1246.73ZM1861.76 1119.74C1840.54 1119.74 1825.74 1128.3 1816.88 1142.19V1124.46H1794.73V1266.49H1818.36V1190.02C1818.36 1156.36 1834.3 1142.19 1857.04 1142.19C1876.24 1142.19 1887.75 1152.81 1887.75 1177.32V1266.49H1911.37V1173.8C1911.37 1137.48 1891.58 1119.76 1861.76 1119.76V1119.74ZM1687.43 1140.43C1709.56 1140.43 1722.85 1153.43 1727.88 1181.18H1647.27C1650.8 1153.72 1666.47 1140.43 1687.47 1140.43H1687.43ZM1688.65 1250.28C1663.84 1250.28 1647.6 1233.75 1646.42 1200.67H1753.9C1752.14 1148.99 1729.41 1119.76 1687.76 1119.76C1647.56 1119.76 1621.61 1148.99 1621.61 1195.7C1621.61 1242.06 1645.24 1271.28 1688.07 1271.28C1720.54 1271.28 1744.16 1255.93 1752.14 1222.27H1726.74C1722.02 1239.69 1710.8 1250.32 1688.65 1250.32V1250.28ZM1530.23 1119.81C1507.2 1119.81 1491.54 1129.56 1482.68 1145.79C1475.59 1129.85 1460.54 1119.81 1438.39 1119.81C1417.17 1119.81 1402.36 1128.36 1393.51 1142.25V1124.46H1371.35V1266.49H1394.98V1190.02C1394.98 1156.36 1410.93 1142.19 1433.67 1142.19C1452.85 1142.19 1464.37 1152.81 1464.37 1177.32V1266.49H1488V1190.02C1488 1156.36 1504.24 1142.19 1526.98 1142.19C1545.87 1142.19 1557.4 1152.81 1557.4 1177.32V1266.49H1580.91V1173.8C1580.91 1137.48 1561.72 1119.76 1530.13 1119.76L1530.23 1119.81ZM1298.35 1201C1298.35 1234.35 1282.42 1248.83 1259.97 1248.83C1241.07 1248.83 1229.56 1237.9 1229.56 1213.68V1124.46H1205.94V1217.16C1205.94 1253.47 1225.71 1271.18 1255.24 1271.18C1276.46 1271.18 1291.26 1262.63 1299.84 1248.45V1266.46H1321.97V1124.46H1298.35V1201ZM1155.2 1122.75C1136.3 1122.75 1122.13 1130.42 1113.26 1143.71V1124.46H1091.13V1266.49H1114.75V1190.35C1114.75 1156.97 1133.94 1144.87 1155.2 1144.87C1167.32 1144.87 1172.62 1146.64 1172.62 1146.64V1124.46C1172.62 1124.46 1167.32 1122.7 1155.2 1122.7V1122.75ZM1037.93 1246.66C1021.99 1246.66 1016.08 1241.63 1016.08 1225.44V1146.6H1056.53V1124.46H1016.08V1070.43H992.457V1124.46H961.443V1146.61H992.457V1227.82C992.457 1254.98 1003.09 1268.86 1035.28 1268.86C1042.53 1268.95 1049.77 1268.16 1056.83 1266.49V1244.35C1050.65 1245.9 1044.31 1246.69 1037.93 1246.72V1246.66ZM882.228 1270.93C920.914 1270.93 936.851 1251.44 936.851 1228.4C936.851 1169.06 847.081 1197.99 847.081 1160.49C847.081 1147.5 856.239 1139.83 875.437 1139.83C896.981 1139.83 907.032 1150.45 908.808 1172H933.612C930.362 1135.69 907.032 1119.74 875.437 1119.74C839.107 1119.74 823.17 1139.23 823.17 1161.38C823.17 1220.14 912.65 1191.19 912.65 1229.6C912.65 1241.69 904.374 1250.81 882.496 1250.81C858.573 1250.81 845.886 1240.18 844.412 1217.45H819.574C822.523 1254.95 848.522 1270.89 882.183 1270.89L882.228 1270.93ZM730.296 1119.71C709.076 1119.71 694.268 1128.26 685.4 1142.15V1124.46H663.265V1266.49H686.885V1190.02C686.885 1156.36 702.822 1142.19 725.561 1142.19C744.759 1142.19 756.273 1152.81 756.273 1177.32V1266.49H779.905V1173.8C779.905 1137.48 760.115 1119.76 730.296 1119.76V1119.71ZM614.147 1124.49H590.515V1266.53H614.147V1124.49ZM615.264 1062.49H588.985V1096.74H615.264V1062.49Z" fill="#4E5B58"/>
<path d="M1883.86 925.507C1867.9 925.507 1861.99 920.493 1861.99 904.289V825.446H1902.46V803.267H1861.99V749.239H1838.37V803.279H1807.37V825.424H1838.37V906.623C1838.37 933.793 1849.01 947.674 1881.19 947.674C1888.45 947.768 1895.69 946.973 1902.75 945.307V923.162C1896.57 924.702 1890.23 925.493 1883.86 925.518V925.507ZM1726.39 798.555C1705.17 798.555 1690.36 807.109 1681.51 820.99V803.267H1659.36V945.296H1682.98V868.809C1682.98 835.162 1698.94 820.979 1721.67 820.979C1740.86 820.979 1752.38 831.611 1752.38 856.123V945.296H1776V852.605C1776 816.278 1756.22 798.566 1726.39 798.566V798.555ZM1552.05 819.226C1574.2 819.226 1587.49 832.225 1592.51 859.987H1511.89C1515.43 832.515 1531.08 819.226 1552.1 819.226H1552.05ZM1553.28 929.081C1528.48 929.081 1512.23 912.541 1511.05 879.474H1618.54C1616.76 827.791 1593.97 798.566 1552.39 798.566C1512.18 798.566 1486.25 827.791 1486.25 874.505C1486.25 920.872 1509.87 950.098 1552.69 950.098C1585.18 950.098 1608.79 934.742 1616.76 901.072H1591.37C1586.64 918.494 1575.43 929.136 1553.28 929.136V929.081ZM1413.31 949.807C1430.44 949.807 1438.42 960.975 1438.42 973.125C1438.42 985.834 1430.44 996.744 1407.41 996.744H1370.2C1347.45 996.744 1339.49 985.834 1339.49 973.427C1339.49 961.02 1347.45 949.807 1366.65 949.807H1413.31ZM1382.3 881.295C1361.33 881.295 1346.87 870.373 1346.87 850.294C1346.87 830.505 1361.33 819.282 1382.3 819.282C1403.52 819.282 1417.74 830.505 1417.74 850.294C1417.74 870.395 1403.56 881.295 1382.3 881.295ZM1456.42 824.34C1459.41 824.366 1462.39 824.764 1465.29 825.524V803.078C1462.01 802.196 1458.63 801.797 1455.24 801.894C1441.64 801.894 1433.67 807.478 1428.95 815.786C1418.6 804.853 1402.67 798.655 1382.28 798.655C1346.26 798.655 1322.35 818.433 1322.35 850.327C1322.35 864.845 1327.07 876.616 1335.93 885.17C1321.16 891.658 1313.78 901.419 1313.78 915.881C1313.78 930.644 1320.28 939.198 1335.34 945.106C1322.94 952.197 1315.55 961.355 1315.55 976.71C1315.55 999.737 1332.97 1016.91 1369.31 1016.91H1406.51C1446.08 1016.91 1462.91 995.36 1462.91 972.321C1462.91 948.11 1446.67 928.332 1413.3 928.332H1356.6C1344.19 928.332 1337.41 923.307 1337.41 913.815C1337.41 905.238 1342.12 899.04 1353.05 896.393C1362.2 899.836 1371.91 901.541 1381.69 901.419C1417.43 901.419 1441.33 881.317 1441.33 849.735C1441.34 846.366 1441.05 843.002 1440.46 839.685C1441.04 830.237 1445.78 824.329 1456.4 824.329L1456.42 824.34ZM1273.78 803.267H1250.15V945.307H1273.78V803.267ZM1274.96 741.265H1248.68V775.516H1274.89L1274.96 741.265ZM1201.05 734.464H1177.39V945.296H1201.03L1201.05 734.464ZM1128.45 734.464H1104.82V945.296H1128.45V734.464ZM997.218 819.203C1019.36 819.203 1032.65 832.202 1037.68 859.965H957.057C960.598 832.493 976.255 819.203 997.263 819.203H997.218ZM998.446 929.058C973.642 929.058 957.404 912.519 956.22 879.452H1063.7C1061.94 827.769 1039.2 798.544 997.564 798.544C957.359 798.544 931.415 827.769 931.415 874.483C931.415 920.85 955.036 950.075 997.866 950.075C1030.34 950.075 1053.96 934.72 1061.94 901.05H1036.54C1031.82 918.471 1020.6 929.114 998.446 929.114V929.058ZM887.826 925.563C871.889 925.563 865.981 920.549 865.981 904.345V825.502H906.343V803.267H865.892V749.239H842.271V803.279H811.257V825.424H842.271V906.623C842.271 933.793 852.892 947.674 885.079 947.674C892.333 947.769 899.572 946.974 906.633 945.307V923.162C900.452 924.703 894.107 925.494 887.737 925.518L887.826 925.563ZM730.266 798.555C709.046 798.555 694.237 807.109 685.37 820.99V803.267H663.234V945.296H686.855V868.809C686.855 835.162 702.792 820.979 725.53 820.979C744.728 820.979 756.243 831.611 756.243 856.123V945.296H779.875V852.605C779.875 816.278 760.085 798.566 730.266 798.566V798.555ZM614.117 803.29H590.485V945.329H614.117V803.29ZM615.234 741.288H588.955V775.538H615.234V741.288Z" fill="#4E5B58"/>
</g>
<defs>
<clipPath id="clip0">
<rect width="3187.82" height="2000" fill="white"/>
</clipPath>
</defs>
</svg>
