<svg width="256" height="197" viewBox="0 0 256 197" fill="none" xmlns="http://www.w3.org/2000/svg">
<path d="M191.996 123.816V120.473H195.113C196.166 120.473 196.846 121.166 196.846 122.144C196.846 123.122 196.166 123.816 195.113 123.816H191.996ZM195.186 116.861C196.014 116.861 196.572 117.418 196.572 118.21C196.572 119.002 196.014 119.53 195.186 119.53H191.996V116.857L195.186 116.861ZM196.497 119.967C197.239 119.646 197.671 119.027 197.671 118.161C197.671 116.874 196.695 115.922 195.235 115.922H190.93V124.754H195.124C196.831 124.754 197.943 123.654 197.943 122.169C197.943 121.142 197.4 120.386 196.497 120.028V119.967ZM183.594 117.022H183.643L184.963 120.561H182.254L183.594 117.022ZM187.664 124.754L184.287 115.922H182.975L179.587 124.754H180.687L181.897 121.536H185.334L186.534 124.754H187.664ZM172.645 115.922H171.571V124.754H177.197V123.753H172.645V115.922ZM151.578 125.191C155.388 125.191 156.96 123.271 156.96 121.002C156.96 115.156 148.118 118.007 148.118 114.313C148.118 113.033 149.018 112.278 150.909 112.278C153.033 112.278 154.022 113.324 154.195 115.447H156.638C156.318 111.87 154.022 110.299 150.909 110.299C147.331 110.299 145.761 112.218 145.761 114.401C145.761 120.188 154.574 117.337 154.574 121.12C154.574 122.311 153.76 123.21 151.604 123.21C149.249 123.21 147.997 122.162 147.852 119.923H145.409C145.7 123.617 148.259 125.187 151.575 125.187L151.578 125.191ZM140.874 122.803C139.304 122.803 138.723 122.308 138.723 120.713V112.947H142.707V110.76H138.723V105.437H136.395V110.76H133.35V112.941H136.404V120.94C136.404 123.615 137.451 124.983 140.621 124.983C141.336 124.992 142.049 124.914 142.744 124.75V122.568C142.136 122.721 141.511 122.799 140.883 122.801L140.874 122.803ZM125.373 110.294C123.283 110.294 121.825 111.137 120.952 112.505V110.76H118.771V124.75H121.099V117.217C121.099 113.901 122.668 112.505 124.908 112.505C126.799 112.505 127.933 113.552 127.933 115.966V124.75H130.259V115.62C130.259 112.041 128.31 110.297 125.373 110.297V110.294ZM108.202 112.333C110.382 112.333 111.691 113.613 112.186 116.347H104.247C104.594 113.642 106.137 112.333 108.207 112.333H108.202ZM108.322 123.152C105.879 123.152 104.28 121.524 104.163 118.266H114.749C114.576 113.175 112.337 110.297 108.235 110.297C104.275 110.297 101.72 113.175 101.72 117.777C101.72 122.343 104.046 125.221 108.265 125.221C111.464 125.221 113.79 123.709 114.576 120.394H112.074C111.609 122.11 110.504 123.157 108.322 123.157V123.152ZM92.7186 110.301C90.4504 110.301 88.9082 111.261 88.0359 112.861C87.3374 111.29 85.8546 110.301 83.6733 110.301C81.5833 110.301 80.1247 111.144 79.2524 112.512V110.76H77.07V124.75H79.3976V117.217C79.3976 113.901 80.9684 112.505 83.208 112.505C85.0978 112.505 86.2319 113.552 86.2319 115.966V124.75H88.5595V117.217C88.5595 113.901 90.1589 112.505 92.3985 112.505C94.2597 112.505 95.3949 113.552 95.3949 115.966V124.75H97.7104V115.62C97.7104 112.041 95.8206 110.297 92.7087 110.297L92.7186 110.301ZM69.8804 118.298C69.8804 121.584 68.3107 123.009 66.0997 123.009C64.2385 123.009 63.1044 121.934 63.1044 119.548V110.76H60.7779V119.89C60.7779 123.467 62.726 125.212 65.6344 125.212C67.7244 125.212 69.1819 124.369 70.0267 122.972V124.746H72.2069V110.76H69.8804V118.298ZM55.7806 110.59C53.9194 110.59 52.5235 111.346 51.6501 112.655V110.76H49.4699V124.75H51.7964V117.25C51.7964 113.962 53.6862 112.769 55.7806 112.769C56.9741 112.769 57.4966 112.944 57.4966 112.944V110.76C57.4966 110.76 56.9741 110.586 55.7806 110.586V110.59ZM44.2306 122.796C42.6598 122.796 42.0779 122.301 42.0779 120.706V112.94H46.0621V110.76H42.0779V105.437H39.7514V110.76H36.6967V112.941H39.7514V120.94C39.7514 123.615 40.7986 124.983 43.9688 124.983C44.6833 124.992 45.3963 124.914 46.0918 124.75V122.568C45.4831 122.721 44.8581 122.799 44.2306 122.801V122.796ZM28.8944 125.186C32.7048 125.186 34.2745 123.267 34.2745 120.997C34.2745 115.152 25.4327 118.002 25.4327 114.308C25.4327 113.029 26.3347 112.273 28.2256 112.273C30.3475 112.273 31.3375 113.319 31.5124 115.442H33.9555C33.6354 111.865 31.3375 110.294 28.2256 110.294C24.6473 110.294 23.0776 112.214 23.0776 114.396C23.0776 120.183 31.8908 117.332 31.8908 121.115C31.8908 122.306 31.0757 123.205 28.9208 123.205C26.5646 123.205 25.315 122.158 25.1698 119.918H22.7234C23.0138 123.612 25.5746 125.183 28.89 125.183L28.8944 125.186ZM13.93 110.291C11.84 110.291 10.3814 111.134 9.50802 112.502V110.76H7.32782V124.75H9.65432V117.217C9.65432 113.901 11.224 112.505 13.4636 112.505C15.3545 112.505 16.4886 113.552 16.4886 115.966V124.75H18.8162V115.62C18.8162 112.041 16.867 110.297 13.93 110.297V110.291ZM2.49002 110.762H0.162418V124.753H2.49002V110.762ZM2.60002 104.655H0.0117188V108.028H2.60002V104.655Z" fill="#4E5B58"/>
<path d="M127.549 91.1624C125.977 91.1624 125.396 90.6685 125.396 89.0724V81.3064H129.382V79.1218H125.396V73.8H123.069V79.1229H120.015V81.3042H123.069V89.3023C123.069 91.9786 124.117 93.3459 127.286 93.3459C128.001 93.3552 128.715 93.2769 129.411 93.1127V90.9314C128.802 91.0831 128.177 91.161 127.549 91.1635V91.1624ZM112.039 78.6576C109.949 78.6576 108.491 79.5002 107.62 80.8675V79.1218H105.437V93.1116H107.764V85.5777C107.764 82.2634 109.336 80.8664 111.575 80.8664C113.465 80.8664 114.599 81.9136 114.599 84.3281V93.1116H116.926V83.9816C116.926 80.4033 114.977 78.6587 112.039 78.6587V78.6576ZM94.8684 80.6937C97.0497 80.6937 98.3587 81.9741 98.8537 84.7087H90.9128C91.2615 82.0027 92.8026 80.6937 94.8728 80.6937H94.8684ZM94.9894 91.5144C92.5463 91.5144 90.9458 89.8853 90.8303 86.6282H101.417C101.242 81.5374 98.9967 78.6587 94.9014 78.6587C90.9414 78.6587 88.3872 81.5374 88.3872 86.1387C88.3872 90.7059 90.7137 93.5846 94.9311 93.5846C98.131 93.5846 100.456 92.0721 101.242 88.7556H98.7415C98.2751 90.4716 97.1707 91.5199 94.9894 91.5199V91.5144ZM81.2031 93.556C82.8905 93.556 83.6759 94.656 83.6759 95.8528C83.6759 97.1046 82.8905 98.1793 80.6223 98.1793H76.9571C74.7164 98.1793 73.9321 97.1046 73.9321 95.8825C73.9321 94.6604 74.7164 93.556 76.6073 93.556H81.2031ZM78.1484 86.8075C76.0837 86.8075 74.6592 85.7317 74.6592 83.7539C74.6592 81.8047 76.0837 80.6992 78.1484 80.6992C80.2384 80.6992 81.6398 81.8047 81.6398 83.7539C81.6398 85.7339 80.2428 86.8075 78.1484 86.8075ZM85.4491 81.1975C85.7439 81.2001 86.0373 81.2392 86.3225 81.3141V79.1031C85.9999 79.0163 85.6664 78.977 85.3325 78.9865C83.9938 78.9865 83.2084 79.5365 82.7431 80.3549C81.7245 79.278 80.1548 78.6675 78.1473 78.6675C74.5987 78.6675 72.2436 80.6156 72.2436 83.7572C72.2436 85.1872 72.7089 86.3466 73.5812 87.1892C72.127 87.8283 71.3999 88.7897 71.3999 90.2142C71.3999 91.6684 72.0401 92.511 73.524 93.0929C72.3019 93.7914 71.5748 94.6934 71.5748 96.2059C71.5748 98.4741 73.2897 100.166 76.8691 100.166H80.5332C84.4305 100.166 86.0882 98.0429 86.0882 95.7736C86.0882 93.3888 84.4888 91.4407 81.202 91.4407H75.6173C74.3952 91.4407 73.7275 90.9457 73.7275 90.0107C73.7275 89.1659 74.1917 88.5554 75.2675 88.2947C76.169 88.6339 77.1259 88.8017 78.089 88.7897C81.609 88.7897 83.963 86.8097 83.963 83.6989C83.9641 83.367 83.9354 83.0357 83.8772 82.7089C83.9344 81.7783 84.4008 81.1964 85.4469 81.1964L85.4491 81.1975ZM67.4597 79.1218H65.1332V93.1127H67.4597V79.1218ZM67.5763 73.0146H64.988V76.3883H67.5697L67.5763 73.0146ZM60.2965 72.3447H57.9667V93.1116H60.2943L60.2965 72.3447ZM53.1465 72.3447H50.8189V93.1116H53.1465V72.3447ZM40.2204 80.6915C42.4017 80.6915 43.7107 81.9719 44.2057 84.7065H36.2648C36.6135 82.0005 38.1557 80.6915 40.2248 80.6915H40.2204ZM40.3414 91.5122C37.8983 91.5122 36.2989 89.8831 36.1823 86.626H46.7687C46.5949 81.5352 44.3553 78.6565 40.2545 78.6565C36.2945 78.6565 33.7392 81.5352 33.7392 86.1365C33.7392 90.7037 36.0657 93.5824 40.2842 93.5824C43.483 93.5824 45.8095 92.0699 46.5949 88.7534H44.0935C43.6282 90.4694 42.5238 91.5177 40.3414 91.5177V91.5122ZM29.4459 91.1679C27.8762 91.1679 27.2943 90.674 27.2943 89.0779V81.3119H31.2697V79.1218H27.2855V73.8H24.959V79.1229H21.9043V81.3042H24.959V89.3023C24.959 91.9786 26.0051 93.3459 29.1753 93.3459C29.8898 93.3552 30.6028 93.2769 31.2983 93.1127V90.9314C30.6895 91.0832 30.0645 91.1611 29.4371 91.1635L29.4459 91.1679ZM13.9271 78.6576C11.8371 78.6576 10.3785 79.5002 9.50508 80.8675V79.1218H7.32488V93.1116H9.65138V85.5777C9.65138 82.2634 11.2211 80.8664 13.4607 80.8664C15.3516 80.8664 16.4857 81.9136 16.4857 84.3281V93.1116H18.8133V83.9816C18.8133 80.4033 16.8641 78.6587 13.9271 78.6587V78.6576ZM2.48708 79.124H0.159489V93.1149H2.48708V79.124ZM2.59708 73.0168H0.00878906V76.3905H2.59708V73.0168Z" fill="#4E5B58"/>
</svg>
