<svg width="2000" height="2000" viewBox="0 0 2000 2000" fill="none" xmlns="http://www.w3.org/2000/svg">
<g clip-path="url(#clip0_111:252)">
<path d="M1266 1568.12H1024V1662.73H1266V1568.12ZM630.25 802.7H535.63V1615.44H630.25V802.7ZM190.94 802.7H96.3101V1615.44H190.94V802.7ZM202.77 496.85C202.819 504.631 201.323 512.345 198.368 519.544C195.412 526.742 191.057 533.282 185.555 538.785C180.053 544.287 173.512 548.642 166.314 551.597C159.115 554.552 151.401 556.049 143.62 556C111.51 556 84.4801 529 84.4801 496.85C84.4323 489.07 85.9293 481.358 88.8845 474.161C91.8396 466.965 96.194 460.426 101.695 454.925C107.196 449.424 113.735 445.069 120.932 442.114C128.129 439.159 135.84 437.662 143.62 437.71C177.42 437.71 202.77 463.07 202.77 496.85V496.85ZM287.26 496.85C287.26 468.443 278.837 440.674 263.055 417.054C247.273 393.435 224.842 375.025 198.597 364.154C172.353 353.283 143.474 350.438 115.613 355.979C87.7517 361.52 62.1593 375.199 42.0719 395.285C21.9844 415.371 8.30422 440.962 2.76109 468.823C-2.78203 496.684 0.060895 525.563 10.9304 551.808C21.7999 578.053 40.2077 600.485 63.8262 616.269C87.4448 632.052 115.213 640.478 143.62 640.48C162.487 640.497 181.172 636.794 198.607 629.582C216.041 622.37 231.882 611.791 245.223 598.45C258.565 585.11 269.145 569.269 276.358 551.836C283.571 534.402 287.276 515.717 287.26 496.85V496.85ZM642.09 496.85C642.139 504.631 640.643 512.345 637.688 519.544C634.732 526.742 630.377 533.282 624.875 538.785C619.373 544.287 612.832 548.642 605.634 551.597C598.435 554.552 590.721 556.049 582.94 556C550.84 556 523.81 529 523.81 496.85C523.762 489.071 525.259 481.36 528.214 474.164C531.168 466.968 535.522 460.43 541.022 454.929C546.522 449.427 553.059 445.073 560.255 442.117C567.45 439.161 575.161 437.663 582.94 437.71C616.74 437.71 642.09 463.07 642.09 496.85V496.85ZM726.58 496.85C726.58 468.443 718.157 440.674 702.375 417.054C686.593 393.435 664.162 375.025 637.917 364.154C611.673 353.283 582.794 350.438 554.933 355.979C527.072 361.52 501.479 375.199 481.392 395.285C461.304 415.371 447.624 440.962 442.081 468.823C436.538 496.684 439.381 525.563 450.25 551.808C461.12 578.053 479.528 600.485 503.146 616.269C526.765 632.052 554.533 640.478 582.94 640.48C601.807 640.497 620.492 636.794 637.927 629.582C655.361 622.37 671.202 611.791 684.544 598.45C697.885 585.11 708.465 569.269 715.678 551.836C722.891 534.402 726.596 515.717 726.58 496.85ZM976.64 1514.06H1071.27V393.78H976.64V1514.06Z" fill="white"/>
</g>
<defs>
<clipPath id="clip0_111:252">
<rect width="2000" height="2000" fill="white"/>
</clipPath>
</defs>
</svg>
