<svg width="800" height="87" viewBox="0 0 800 87" fill="none" xmlns="http://www.w3.org/2000/svg">
<path fill-rule="evenodd" clip-rule="evenodd" d="M27.3864 69.5873C25.5342 66.9966 23.5291 64.416 22.5022 61.845C21.4234 59.2741 21.3753 56.7127 21.6428 54.1602C21.8999 51.6076 22.2442 49.064 21.5904 46.5283C20.9892 43.9927 19.3516 41.4651 17.4619 38.9447C15.5793 36.4242 13.6753 33.911 12.7854 31.4039C11.8426 28.8968 11.9374 26.396 12.2199 23.9004C12.4987 21.4047 12.7329 18.9143 11.9411 16.428C11.2024 13.9418 9.42896 11.4596 7.53305 8.98061C8.98308 8.03415 10.433 7.10025 11.889 6.18772C13.7397 8.67978 15.7432 11.1771 16.7722 13.6806C17.8529 16.1841 17.9064 18.6939 17.6413 21.2108C17.3869 23.7277 17.0405 26.2519 17.6872 28.784C18.2818 31.3162 19.909 33.8564 21.796 36.4055C23.6755 38.9546 25.5858 41.5126 26.4877 44.0801C27.4422 46.6477 27.3622 49.2248 27.0821 51.8122C26.8063 54.3996 26.5609 56.9972 27.3358 59.6057C28.0578 62.2141 29.8124 64.8333 31.7069 67.4638C30.2686 68.1271 28.831 68.8363 27.3864 69.5873ZM37.1519 68.5076C35.3413 68.112 33.5238 67.7649 31.7069 67.4638C31.4249 64.6539 31.2828 61.8553 32.1733 59.0683C33.0109 56.2813 34.8689 53.5059 36.7571 50.7423C38.6497 47.9787 40.3422 45.227 41.0002 42.4873C41.7109 39.7475 41.413 37.0198 41.146 34.3041C40.8716 31.5884 40.8569 28.8846 41.8748 26.1929C42.8406 23.5011 44.7995 20.8213 46.6664 18.1533C48.544 15.4853 50.103 12.829 50.6349 10.1842C51.2183 7.53939 50.8274 4.90607 50.5891 2.28385C52.3581 2.92996 54.1332 3.61971 55.9082 4.34894C56.1954 6.93366 56.3601 9.52831 55.49 12.1335C54.6731 14.7386 52.8302 17.3543 50.9427 19.981C49.0514 22.6076 47.3478 25.2453 46.6819 27.8943C45.963 30.5433 46.2583 33.2037 46.5322 35.8758C46.8131 38.5478 46.842 41.2315 45.8345 43.9271C44.8796 46.6226 42.9265 49.33 41.0607 52.0493C39.1845 54.7686 37.6238 57.4998 37.0939 60.2428C36.5121 62.9859 36.9084 65.7409 37.1519 68.5076ZM7.30547 73.7691C5.61761 74.284 3.92976 74.8116 2.2419 75.3414C1.16314 72.6175 0.0782771 69.8935 0.010697 67.1696C-0.109934 64.4457 0.806825 61.7218 1.89616 58.9978C2.98259 56.2739 4.0092 53.55 4.00754 50.8261C4.05913 48.1021 3.07712 45.3782 1.98789 42.6543C0.898181 39.9304 -0.06601 37.2064 0.00486756 34.4825C0.0225391 31.7586 1.06582 29.0347 2.15055 26.3107C3.23914 23.5868 4.13702 20.8629 3.99721 18.139C3.91035 15.415 2.81 12.6911 1.73416 9.9672C3.42201 9.43741 5.10987 8.90985 6.79772 8.39488C7.87356 11.1188 8.97391 13.8427 9.06077 16.5666C9.20058 19.2906 8.3027 22.0145 7.21411 24.7384C6.12938 27.4623 5.0861 30.1863 5.06843 32.9102C4.99755 35.6341 5.96174 38.358 7.05145 41.082C8.14069 43.8059 9.12269 46.5298 9.0711 49.2537C9.07276 51.9777 8.04615 54.7016 6.95973 57.4255C5.87039 60.1494 4.95363 62.8734 5.07426 65.5973C5.14184 68.3212 6.2267 71.0451 7.30547 73.7691ZM61.7388 70.1252C60.051 69.743 58.3631 69.3975 56.6753 69.0954C55.5965 66.3714 54.5116 63.6475 54.4441 60.9236C54.3234 58.1997 55.2402 55.4757 56.3295 52.7518C57.4159 50.0279 58.4426 47.304 58.4409 44.58C58.4925 41.8561 57.5105 39.1322 56.4212 36.4083C55.3315 33.6844 54.3673 30.9604 54.4382 28.2365C54.4559 25.5126 55.4992 22.7887 56.5839 20.0647C57.6725 17.3408 58.5704 14.6169 58.4306 11.893C58.3437 9.16903 57.2434 6.44511 56.1675 3.72118C57.8554 4.02328 59.5432 4.36881 61.2311 4.75099C62.3069 7.47491 63.4073 10.1988 63.4941 12.9228C63.6339 15.6467 62.7361 18.3706 61.6475 21.0945C60.5627 23.8185 59.5195 26.5424 59.5018 29.2663C59.4309 31.9902 60.3951 34.7142 61.4848 37.4381C62.574 40.162 63.556 42.8859 63.5045 45.6099C63.5061 48.3338 62.4795 51.0577 61.3931 53.7816C60.3037 56.5056 59.387 59.2295 59.5076 61.9534C59.5752 64.6773 60.6601 67.4012 61.7388 70.1252ZM107.739 84.9592C103.134 84.1891 98.2495 82.1634 93.296 79.1539C90.8258 77.6965 88.3318 76.0155 85.9851 74.1481C83.6414 72.2828 81.4609 70.2431 79.7312 68.1027C77.9932 65.9625 76.7375 63.7179 76.0488 61.4044C75.3399 59.0915 75.2124 56.7096 75.0901 54.3128C74.9191 51.9212 74.6898 49.5058 74.024 47.1143C73.3858 44.7226 72.3106 42.3554 71.3983 40.053C70.485 37.7505 69.8474 35.5079 70.1166 33.3798C70.3563 31.2516 71.5028 29.2399 73.1507 27.3964C74.7648 25.5294 76.7704 23.8056 78.6187 22.2895C80.4822 20.7714 82.1758 19.4559 83.7154 18.3705C85.2384 17.2545 86.6141 16.3345 88.093 15.6325C89.5677 14.9295 91.1555 14.442 92.9389 14.1514C96.5119 13.5951 100.855 13.8343 105.461 14.6173C110.069 15.3979 114.942 16.6889 119.894 18.4833C122.363 19.4059 124.852 20.4478 127.198 21.6148C129.54 22.7826 131.728 24.084 133.438 25.5361C135.198 26.9369 136.455 28.491 137.154 30.181C137.868 31.8717 138.041 33.6931 138.197 35.6328C138.32 37.5878 138.516 39.6625 139.161 41.8283C139.778 43.9937 140.844 46.2491 141.758 48.5524C142.673 50.8554 143.309 53.2094 143.051 55.5682C142.821 57.9267 141.697 60.2894 140.077 62.5988C138.452 64.9053 136.427 67.1571 134.569 69.2881C132.696 71.4195 130.992 73.427 129.475 75.2576C127.975 77.1089 126.6 78.7648 125.112 80.1609C123.629 81.5595 122.016 82.6873 120.223 83.532C116.702 85.299 112.343 85.7511 107.739 84.9592ZM107.291 19.585C103.333 18.9161 99.7175 18.7754 96.4995 19.3209C93.2635 19.8619 90.3656 21.095 87.0127 23.0328C85.3482 24.0002 83.5675 25.1406 81.8295 26.4388C80.0982 27.7367 78.4282 29.1925 77.2166 30.7806C75.9974 32.3684 75.2818 34.0883 75.2164 35.906C75.1346 37.7234 75.6942 39.6391 76.4743 41.6118C77.2543 43.5854 78.195 45.6182 78.8789 47.6732C79.5785 49.7282 80.0119 51.8053 80.3039 53.8649C80.6031 55.9245 80.8056 57.9668 81.2693 59.9513C81.7259 61.9358 82.4621 63.8629 83.5862 65.6898C85.8087 69.3431 89.5824 72.5979 93.6321 75.0795C97.6966 77.5656 101.971 79.2538 105.905 79.9058C109.86 80.5699 113.475 80.1897 116.704 78.7975C119.95 77.4149 122.873 75.0397 126.246 72.0135C127.921 70.5016 129.71 68.83 131.452 67.0507C133.187 65.2714 134.856 63.3844 136.063 61.4419C137.278 59.4993 137.984 57.5017 138.041 55.4983C138.113 53.4948 137.545 51.4855 136.761 49.5133C135.977 47.5403 135.037 45.603 134.356 43.7363C133.66 41.8692 133.23 40.0731 132.938 38.3721C132.64 36.6709 132.435 35.0648 131.967 33.5668C131.506 32.0685 130.765 30.6779 129.637 29.3999C127.406 26.8437 123.628 24.7349 119.574 23.0869C115.507 21.4401 111.227 20.2528 107.291 19.585ZM172.091 73.4107C170.024 70.9846 167.768 68.5663 166.477 66.1535C165.135 63.7408 164.819 61.3336 164.853 58.9296C164.875 56.5256 165.021 54.1249 164.179 51.725C163.39 49.3251 161.566 46.926 159.456 44.5254C157.354 42.1248 155.194 39.7226 154.039 37.3165C152.832 34.9104 152.662 32.5004 152.716 30.0841C152.765 27.6678 152.805 25.2454 151.826 22.8144C150.9 20.3835 148.937 17.944 146.815 15.4941C148.157 14.5055 149.499 13.4925 150.851 12.4626C152.916 14.8816 155.17 17.2933 156.463 19.7C157.807 22.1066 158.128 24.5082 158.097 26.9071C158.078 29.306 157.93 31.7022 158.765 34.0981C159.548 36.494 161.361 38.8896 163.468 41.2873C165.567 43.6849 167.733 46.0847 168.899 48.4888C170.118 50.893 170.303 53.3016 170.252 55.717C170.207 58.1323 170.155 60.5544 171.118 62.9854C172.027 65.4164 173.971 67.8564 176.091 70.3074C174.76 71.3189 173.432 72.3558 172.091 73.4107ZM181.675 70.9318C179.882 70.678 178.076 70.4563 176.272 70.2603C176.217 67.2722 176.338 64.2952 177.493 61.3313C178.595 58.3673 180.711 55.4164 182.82 52.4801C184.936 49.5439 186.816 46.6223 187.661 43.717C188.56 40.8116 188.458 37.9224 188.425 35.0507C188.381 32.179 188.633 29.3247 189.915 26.4888C191.145 23.6529 193.357 20.8355 195.441 18.0372C197.537 15.2388 199.28 12.4597 200.001 9.70006C200.772 6.94046 200.583 4.20043 200.582 1.48013C202.365 2.05254 204.158 2.67051 205.95 3.33326C206.007 5.99786 205.906 8.68185 204.768 11.3855C203.682 14.0892 201.577 16.8125 199.464 19.5556C197.345 22.2986 195.45 25.0614 194.593 27.8435C193.683 30.6256 193.778 33.4271 193.815 36.2475C193.862 39.0679 193.62 41.907 192.345 44.7642C191.122 47.6214 188.912 50.4965 186.825 53.3885C184.727 56.2805 182.978 59.1894 182.256 62.1138C181.482 65.0382 181.673 67.978 181.675 70.9318ZM237.399 11.4187C230.135 9.16719 222.871 7.12117 215.607 5.95831C214.998 4.3006 214.277 2.64288 213.746 0.985168C221.01 2.14802 228.274 4.19404 235.537 6.44552C236.068 8.10324 236.789 9.76095 237.399 11.4187ZM226.659 66.3589C225.002 65.9038 223.344 65.4735 221.686 65.0761C221.149 62.808 221.195 60.54 221.791 58.2719C222.365 56.0039 223.428 53.7358 224.222 51.4677C225.029 49.1997 225.481 46.9316 225.257 44.6636C225.06 42.3955 224.209 40.1275 223.31 37.8594C222.411 35.5914 221.56 33.3233 221.363 31.0553C221.139 28.7872 221.592 26.5192 222.398 24.2511C223.192 21.9831 224.255 19.715 224.83 17.447C225.426 15.1789 225.471 12.9108 224.934 10.6428C226.592 11.0402 228.249 11.4705 229.907 11.9257C230.444 14.1937 230.399 16.4618 229.803 18.7298C229.228 20.9979 228.165 23.2659 227.371 25.534C226.565 27.802 226.112 30.0701 226.336 32.3381C226.533 34.6062 227.384 36.8742 228.283 39.1423C229.182 41.4103 230.033 43.6784 230.23 45.9464C230.454 48.2145 230.002 50.4826 229.195 52.7506C228.401 55.0187 227.339 57.2867 226.764 59.5548C226.168 61.8228 226.122 64.0909 226.659 66.3589ZM237.847 76.7929C230.583 74.5414 223.32 72.4953 216.056 71.3325C215.515 69.6446 214.777 67.9568 214.161 66.2689C221.425 67.4318 228.689 69.4778 235.953 71.7293C236.569 73.4171 237.307 75.105 237.847 76.7929ZM285.59 84.69C283.209 82.031 280.604 79.3382 278.947 76.611C277.238 73.8839 276.546 71.1225 276.241 68.3274C275.921 65.5323 275.767 62.7035 274.642 59.8423C273.569 56.9811 271.47 54.0876 269.041 51.1639C266.623 48.2402 264.101 45.2864 262.569 42.3055C260.984 39.3246 260.432 36.3165 260.151 33.285C259.862 30.2534 259.616 27.1984 258.364 24.1243C257.165 21.0501 254.932 17.9567 252.486 14.8489C253.698 14.5249 254.905 14.1832 256.134 13.8173C258.509 16.8911 261.126 19.9452 262.801 22.9754C264.526 26.0056 265.235 29.0119 265.542 31.9907C265.864 34.9695 266.008 37.9208 267.12 40.8417C268.181 43.7626 270.27 46.6531 272.699 49.5111C275.116 52.369 277.646 55.1945 279.186 57.986C280.777 60.7777 281.335 63.5354 281.615 66.2589C281.903 68.9824 282.144 71.6717 283.393 74.3271C284.59 76.9825 286.824 79.6041 289.271 82.1932C288.047 83.066 286.828 83.8988 285.59 84.69ZM251.9 78.8662C250.212 78.3798 248.525 77.8724 246.837 77.3538C245.758 74.6299 244.673 71.906 244.605 69.1821C244.485 66.4581 245.402 63.7342 246.491 61.0103C247.577 58.2864 248.604 55.5624 248.602 52.8385C248.654 50.1146 247.672 47.3907 246.583 44.6667C245.493 41.9428 244.529 39.2189 244.6 36.495C244.617 33.771 245.661 31.0471 246.745 28.3232C247.834 25.5993 248.732 22.8753 248.592 20.1514C248.505 17.4275 247.405 14.7036 246.329 11.9796C248.017 12.4982 249.705 13.0056 251.393 13.492C252.468 16.216 253.569 18.9399 253.656 21.6638C253.795 24.3877 252.898 27.1117 251.809 29.8356C250.724 32.5595 249.681 35.2834 249.663 38.0074C249.592 40.7313 250.557 43.4552 251.646 46.1791C252.735 48.9031 253.717 51.627 253.666 54.3509C253.668 57.0748 252.641 59.7988 251.555 62.5227C250.465 65.2466 249.548 67.9705 249.669 70.6945C249.737 73.4184 250.821 76.1423 251.9 78.8662ZM295.393 82.5293C293.735 82.799 292.077 83.0252 290.419 83.2035C289.341 80.4796 288.256 77.7556 288.188 75.0317C288.068 72.3078 288.984 69.5839 290.074 66.8599C291.16 64.136 292.187 61.4121 292.185 58.6882C292.237 55.9642 291.255 53.2403 290.165 50.5164C289.076 47.7925 288.112 45.0685 288.182 42.3446C288.2 39.6207 289.243 36.8968 290.328 34.1728C291.417 31.4489 292.315 28.725 292.175 26.0011C292.088 23.2771 290.988 20.5532 289.912 17.8293C291.569 17.651 293.227 17.4249 294.885 17.1551C295.961 19.879 297.061 22.6029 297.148 25.3269C297.288 28.0508 296.39 30.7747 295.301 33.4986C294.217 36.2225 293.173 38.9465 293.156 41.6704C293.085 44.3943 294.049 47.1182 295.139 49.8422C296.228 52.5661 297.21 55.29 297.158 58.0139C297.16 60.7379 296.133 63.4618 295.047 66.1857C293.958 68.9096 293.041 71.6336 293.161 74.3575C293.229 77.0814 294.314 79.8053 295.393 82.5293ZM372.9 24.2926C371.182 24.6247 369.492 24.9965 367.838 25.4115C367.168 21.9402 367.07 18.6432 365.626 15.8252C364.246 13.0057 361.538 10.6714 358.17 9.07587C354.808 7.47566 350.944 6.62245 347.235 6.62255C343.512 6.61601 339.908 7.46279 336.641 9.03271C333.358 10.6004 330.463 12.8932 327.689 15.6616C324.921 18.4298 322.097 21.6648 318.924 25.1237C315.811 28.5836 312.375 32.271 310.799 35.9762C310.004 37.8286 309.699 39.686 309.874 41.5207C310.038 43.3554 310.666 45.1685 311.403 46.9323C312.141 48.6962 312.954 50.4121 313.56 52.0498C314.176 53.6876 314.58 55.2476 314.858 56.7018C315.142 58.1562 315.325 59.5047 315.674 60.7249C316.019 61.9453 316.545 63.0371 317.384 63.9844C319.031 65.8812 322.001 67.1894 325.481 67.877C328.962 68.5686 332.832 68.6408 336.511 68.1938C340.198 67.7452 343.756 66.8238 346.849 65.3081C349.968 63.8048 352.581 61.7797 355.241 59.3333C356.575 58.1099 357.95 56.7804 359.396 55.357C360.834 53.9337 362.35 52.4162 363.731 50.8222C365.108 49.2286 366.326 47.5584 367.047 45.8395C367.777 44.121 367.983 42.3539 367.637 40.5767C369.325 40.6701 371.013 40.8155 372.701 41.0101C373.112 43.0995 372.775 45.1612 371.796 47.1551C370.832 49.1499 369.288 51.0757 367.738 52.919C366.174 54.7614 364.608 56.4982 363.242 58.119C361.868 59.7425 360.648 61.2389 359.472 62.6596C357.109 65.4587 354.385 67.7559 350.852 69.5722C347.34 71.3836 343.176 72.5867 338.895 73.2265C336.75 73.5492 334.559 73.7284 332.339 73.7299C330.119 73.7415 327.867 73.5208 325.628 73.2403C321.172 72.6269 316.673 71.1685 313.734 69.028C312.26 67.9606 311.206 66.7215 310.606 65.3124C309.994 63.9043 309.836 62.3268 309.737 60.6147C309.587 58.9339 309.42 57.1275 308.922 55.2172C308.442 53.3081 307.602 51.3022 306.72 49.2409C305.847 47.179 304.992 45.0636 304.749 42.9226C304.49 40.7816 304.887 38.6143 305.93 36.4528C306.963 34.2917 308.572 32.1366 310.255 30.0078C311.95 27.8806 313.709 25.7862 315.28 23.7588C316.857 21.7281 318.295 19.7841 319.606 17.8982C320.929 16.0186 322.194 14.2287 323.575 12.5723C324.953 10.9174 326.439 9.38672 328.095 8.04265C329.75 6.70032 331.555 5.53131 333.469 4.57436C337.304 2.6588 341.529 1.59742 345.872 1.5617C350.21 1.51922 354.773 2.53034 359.201 4.49477C363.591 6.46683 367.813 9.30028 370.122 12.7352C371.277 14.4569 372.009 16.2876 372.345 18.2359C372.697 20.18 372.725 22.2156 372.9 24.2926ZM376.063 38.6929C370.412 37.778 364.761 37.3943 359.109 37.6216C353.458 37.8412 347.807 38.6703 342.156 39.9364C341.573 38.2485 340.83 36.5607 340.248 34.8728C345.899 33.6068 351.55 32.7777 357.202 32.5581C362.853 32.3307 368.504 32.7144 374.156 33.6294C374.738 35.3172 375.481 37.0051 376.063 38.6929ZM377.878 69.2444C376.19 68.9285 374.502 68.655 372.814 68.4294C371.923 66.1614 370.999 63.8933 370.7 61.6253C370.375 59.3572 370.708 57.0892 371.462 54.8211C372.2 52.5531 373.28 50.285 373.933 48.0169C374.604 45.7489 374.777 43.4808 374.328 41.2128C376.016 41.4384 377.704 41.7118 379.392 42.0277C379.84 44.2958 379.668 46.5638 378.996 48.8319C378.344 51.0999 377.264 53.368 376.525 55.6361C375.771 57.9041 375.438 60.1722 375.764 62.4402C376.063 64.7083 376.987 66.9763 377.878 69.2444ZM456.412 19.6285C449.163 20.8457 441.914 21.1722 434.666 20.5002C427.417 19.8479 420.168 18.2096 412.919 16.1258C412.31 14.4681 411.589 12.8104 411.058 11.1526C418.307 13.2364 425.556 14.8748 432.804 15.5271C440.053 16.199 447.302 15.8725 454.551 14.6553C455.081 16.313 455.803 17.9707 456.412 19.6285ZM452.604 78.8797C450.061 76.8771 447.967 74.8203 446.521 72.7045C445.048 70.5888 444.185 68.4141 443.252 66.1783C442.325 63.9425 441.233 61.6457 439.461 59.2883C437.718 56.931 435.288 54.5133 432.61 52.0385C429.94 49.5638 427.112 47.032 424.848 44.4491C422.559 41.8663 420.883 39.2325 419.719 36.5559C418.536 33.8794 417.797 31.1601 416.736 28.4084C415.688 25.6567 414.237 22.8725 412.122 20.0676C413.287 19.3958 414.326 18.7135 415.286 18.0163C417.838 20.7857 419.95 23.5258 421.412 26.2259C422.899 28.9261 423.771 31.5862 424.701 34.1975C425.627 36.8089 426.704 39.3713 428.46 41.8782C430.188 44.3851 432.601 46.8364 435.275 49.228C437.94 51.6196 440.774 53.9515 443.052 56.2221C445.354 58.4929 447.05 60.7024 448.224 62.852C449.419 65.0016 450.16 67.0914 451.213 69.1254C452.252 71.1594 453.685 73.1376 455.785 75.0666C454.613 76.3635 453.568 77.6354 452.604 78.8797ZM456.86 85.0026C449.612 86.2199 442.363 86.5464 435.114 85.8744C427.866 85.2221 420.617 83.5838 413.368 81.5C412.828 79.8121 412.09 78.1243 411.474 76.4364C418.722 78.5202 425.971 80.1586 433.22 80.8108C440.469 81.4828 447.717 81.1563 454.966 79.9391C455.582 81.6269 456.32 83.3148 456.86 85.0026ZM517.372 4.97315C508.3 5.49578 499.228 7.65219 490.156 10.3834C481.084 13.0998 472.011 16.2681 462.939 18.3324C462.33 16.6747 461.609 15.017 461.078 13.3593C470.15 11.2949 479.222 8.12664 488.294 5.41028C497.367 2.67905 506.439 0.522639 515.511 0C516.042 1.65772 516.763 3.31543 517.372 4.97315ZM492.217 72.482C490.53 72.9682 488.842 73.4754 487.154 73.9939C486.171 71.4997 485.163 69.0056 484.964 66.5115C484.727 64.0174 485.331 61.5233 486.278 59.0292C487.212 56.5351 488.344 54.041 488.739 51.5469C489.169 49.0528 488.798 46.5587 487.933 44.0646C487.088 41.5705 485.879 39.0764 485.306 36.5823C484.701 34.0882 484.822 31.5941 485.569 29.1C486.29 26.6059 487.523 24.1118 488.251 21.6176C489.004 19.1235 489.138 16.6294 488.541 14.1353C490.229 13.6169 491.917 13.1096 493.605 12.6234C494.202 15.1175 494.068 17.6116 493.314 20.1057C492.587 22.5999 491.353 25.094 490.633 27.5881C489.886 30.0822 489.765 32.5763 490.37 35.0704C490.943 37.5645 492.151 40.0586 492.997 42.5527C493.862 45.0468 494.233 47.5409 493.802 50.035C493.408 52.5291 492.276 55.0232 491.342 57.5173C490.395 60.0114 489.79 62.5055 490.028 64.9996C490.227 67.4937 491.234 69.9879 492.217 72.482ZM531.895 38.0935C531.313 36.4056 530.57 34.7178 529.987 33.0299C537.251 33.8419 544.515 35.6181 551.779 37.77C553.591 38.3058 555.266 38.4989 556.724 38.3183C558.187 38.1399 559.431 37.5913 560.572 36.7128C561.71 35.8356 562.781 34.6287 563.856 33.1754C564.919 31.7237 565.99 30.0256 566.703 28.2159C567.42 26.4066 567.709 24.4862 567.295 22.6C566.898 20.7135 565.818 18.8629 564.333 17.1818C562.85 15.5005 560.996 13.988 559.098 12.7705C557.196 11.5517 555.246 10.6339 553.439 10.1012C546.175 7.94931 538.911 6.17319 531.648 5.36118C531.038 3.70346 530.317 2.04575 529.786 0.388033C537.05 1.20004 544.314 2.97617 551.578 5.1281C554.044 5.85394 556.655 7.10458 559.282 8.7641C561.902 10.4217 564.585 12.4793 566.948 14.7628C569.303 17.0462 571.272 19.5559 572.118 22.1141C573 24.6722 572.656 27.2768 571.664 29.7401C570.678 32.2044 569.268 34.5289 568.152 36.526C567.004 38.5248 566.081 40.1939 564.916 41.4033C563.758 42.6152 562.282 43.3657 560.363 43.6017C558.454 43.8414 556.151 43.5634 553.686 42.8335C546.423 40.6816 539.159 38.9055 531.895 38.0935ZM528.284 67.9256C526.596 67.7922 524.908 67.7099 523.22 67.6805C522.142 64.9566 521.057 62.2326 520.989 59.5087C520.869 56.7848 521.785 54.0609 522.875 51.3369C523.961 48.613 524.988 45.8891 524.986 43.1652C525.038 40.4412 524.056 37.7173 522.966 34.9934C521.877 32.2695 520.913 29.5456 520.983 26.8216C521.001 24.0977 522.044 21.3738 523.129 18.6499C524.218 15.9259 525.116 13.202 524.976 10.4781C524.889 7.75416 523.789 5.03023 522.713 2.30631C524.401 2.33576 526.088 2.41799 527.776 2.55139C528.852 5.27532 529.952 7.99924 530.039 10.7232C530.179 13.4471 529.281 16.171 528.193 18.8949C527.108 21.6189 526.065 24.3428 526.047 27.0667C525.976 29.7906 526.94 32.5146 528.03 35.2385C529.119 37.9624 530.101 40.6863 530.05 43.4103C530.051 46.1342 529.025 48.8581 527.938 51.582C526.849 54.306 525.932 57.0299 526.053 59.7538C526.12 62.4777 527.205 65.2017 528.284 67.9256ZM568.567 79.609C564.625 76.3714 560.38 73.0905 556.597 69.8356C552.794 66.5806 549.518 63.3522 546.844 60.2162C544.147 57.0797 541.998 54.0361 539.67 51.1384C537.351 48.24 534.762 45.488 531.487 42.9153C532.4 41.6216 533.078 40.3443 533.609 39.0826C537.51 41.7617 540.955 44.6133 543.756 47.5974C546.582 50.5808 548.803 53.6962 551.102 56.8854C553.395 60.0742 555.861 63.3361 559.006 66.6029C562.125 69.8697 565.928 73.1407 569.974 76.3469C569.501 77.4399 569.091 78.5266 568.567 79.609ZM603.143 20.8414C595.88 20.9212 588.616 19.9593 581.352 18.2744C580.743 16.6166 580.022 14.9589 579.491 13.3012C586.755 14.9862 594.018 15.9481 601.282 15.8683C601.813 17.526 602.534 19.1837 603.143 20.8414ZM592.404 77.9058C590.747 77.7522 589.089 77.5499 587.431 77.3027C586.894 75.0347 586.939 72.7666 587.535 70.4986C588.11 68.2305 589.173 65.9625 589.967 63.6944C590.773 61.4263 591.226 59.1583 591.002 56.8902C590.805 54.6222 589.954 52.3541 589.055 50.0861C588.156 47.818 587.305 45.55 587.108 43.2819C586.884 41.0139 587.336 38.7458 588.143 36.4778C588.937 34.2097 590 31.9417 590.574 29.6736C591.17 27.4056 591.216 25.1375 590.679 22.8694C592.336 23.1166 593.994 23.3189 595.652 23.4725C596.189 25.7406 596.143 28.0087 595.548 30.2767C594.973 32.5448 593.91 34.8128 593.116 37.0809C592.31 39.3489 591.857 41.617 592.081 43.885C592.278 46.1531 593.129 48.4211 594.028 50.6892C594.927 52.9572 595.778 55.2253 595.975 57.4934C596.199 59.7614 595.747 62.0295 594.94 64.2975C594.146 66.5656 593.083 68.8336 592.508 71.1017C591.913 73.3697 591.867 75.6378 592.404 77.9058ZM603.592 86.2156C596.328 86.2954 589.065 85.3335 581.801 83.6485C581.26 81.9607 580.522 80.2728 579.906 78.585C587.17 80.2699 594.434 81.2318 601.698 81.152C602.314 82.8399 603.052 84.5277 603.592 86.2156ZM651.335 74.0019C648.954 71.6829 646.349 69.3756 644.691 67.0749C642.983 64.7742 642.29 62.48 641.985 60.1869C641.666 57.8938 641.512 55.6018 640.387 53.3054C639.314 51.009 637.215 48.7083 634.786 46.3978C632.368 44.0873 629.846 41.767 628.314 39.4319C626.729 37.0969 626.177 34.7469 625.896 32.3774C625.607 30.0079 625.361 27.6188 624.109 25.2058C622.91 22.7929 620.676 20.3562 618.231 17.892C619.443 16.8549 620.65 15.784 621.878 14.6844C624.253 17.0961 626.871 19.4843 628.546 21.8534C630.271 24.2225 630.98 26.5725 631.287 28.9082C631.609 31.244 631.752 33.5654 632.865 35.8776C633.926 38.1898 636.015 40.4929 638.444 42.7922C640.861 45.0914 643.391 47.3869 644.93 49.6841C646.522 51.9812 647.08 54.2801 647.359 56.586C647.648 58.892 647.889 61.2051 649.138 63.5305C650.334 65.8559 652.568 68.1937 655.016 70.5488C653.792 71.6809 652.573 72.8341 651.335 74.0019ZM617.645 82.2079C615.957 82.515 614.269 82.779 612.582 82.9947C611.503 80.2708 610.418 77.5468 610.35 74.8229C610.23 72.099 611.146 69.3751 612.236 66.6511C613.322 63.9272 614.349 61.2033 614.347 58.4794C614.399 55.7554 613.417 53.0315 612.328 50.3076C611.238 47.5837 610.274 44.8597 610.344 42.1358C610.362 39.4119 611.405 36.688 612.49 33.964C613.579 31.2401 614.477 28.5162 614.337 25.7923C614.25 23.0683 613.15 20.3444 612.074 17.6205C613.762 17.4048 615.449 17.1408 617.137 16.8337C618.213 19.5576 619.314 22.2816 619.4 25.0055C619.54 27.7294 618.642 30.4533 617.554 33.1773C616.469 35.9012 615.426 38.6251 615.408 41.349C615.337 44.073 616.301 46.7969 617.391 49.5208C618.48 52.2447 619.462 54.9687 619.411 57.6926C619.412 60.4165 618.386 63.1404 617.299 65.8644C616.21 68.5883 615.293 71.3122 615.414 74.0361C615.482 76.7601 616.566 79.484 617.645 82.2079ZM661.138 70.2024C659.48 70.5825 657.822 70.9975 656.164 71.4394C655.086 68.7154 654.001 65.9915 653.933 63.2676C653.812 60.5437 654.729 57.8198 655.819 55.0958C656.905 52.3719 657.932 49.648 657.93 46.9241C657.982 44.2001 657 41.4762 655.91 38.7523C654.821 36.0284 653.856 33.3044 653.927 30.5805C653.945 27.8566 654.988 25.1327 656.073 22.4087C657.162 19.6848 658.059 16.9609 657.92 14.237C657.833 11.513 656.732 8.78912 655.657 6.06519C657.314 5.62327 658.972 5.20835 660.63 4.82826C661.706 7.55218 662.806 10.2761 662.893 13C663.033 15.724 662.135 18.4479 661.046 21.1718C659.961 23.8957 658.918 26.6197 658.9 29.3436C658.83 32.0675 659.794 34.7914 660.883 37.5154C661.973 40.2393 662.955 42.9632 662.903 45.6871C662.905 48.411 661.878 51.135 660.792 53.8589C659.702 56.5828 658.786 59.3067 658.906 62.0307C658.974 64.7546 660.059 67.4785 661.138 70.2024ZM738.645 36.5546C736.927 36.7567 735.237 36.9287 733.583 37.0776C732.913 33.405 732.815 29.7697 731.371 26.3609C729.991 22.9527 727.283 19.7669 723.915 17.0137C720.553 14.2613 716.689 11.9463 712.98 10.3113C709.257 8.67317 705.653 7.72807 702.386 7.6028C699.103 7.47257 696.208 8.17902 693.434 9.64631C690.665 11.1082 687.842 13.3202 684.669 16.0357C681.556 18.7497 678.12 21.9607 676.544 25.3739C675.749 27.0804 675.444 28.8377 675.619 30.6101C675.783 32.3825 676.411 34.1712 677.148 35.945C677.886 37.7193 678.699 39.4804 679.304 41.2031C679.921 42.9259 680.325 44.6109 680.603 46.2391C680.887 47.8676 681.07 49.4395 681.419 50.9435C681.764 52.4476 682.29 53.8837 683.128 55.2447C684.775 57.9666 687.746 60.3907 691.226 62.4645C694.707 64.5368 698.577 66.2593 702.255 67.533C705.943 68.802 709.501 69.6627 712.594 69.709C715.713 69.7723 718.326 69.0738 720.986 67.6085C722.32 66.8778 723.695 65.9598 725.141 64.8737C726.579 63.7879 728.095 62.5342 729.476 61.143C730.853 59.7521 732.07 58.224 732.792 56.5979C733.522 54.9721 733.728 53.2484 733.382 51.4714C735.07 51.9628 736.758 52.4343 738.446 52.8767C738.857 54.9659 738.52 56.9956 737.541 58.9194C736.576 60.8439 735.033 62.6605 733.482 64.342C731.919 66.0222 730.353 67.5351 728.987 68.8488C727.613 70.1663 726.393 71.2688 725.217 72.2081C724.024 73.1288 722.772 73.799 721.348 74.2536C719.927 74.7051 718.358 74.9703 716.596 74.9899C713.085 75.055 708.921 74.1754 704.64 72.7868C702.495 72.0952 700.304 71.2737 698.084 70.3328C695.864 69.3999 693.612 68.3032 691.373 67.212C686.917 64.9809 682.417 62.2884 679.479 59.2772C678.005 57.772 676.951 56.1818 676.351 54.4957C675.739 52.8104 675.581 51.0291 675.481 49.1652C675.332 47.3243 675.165 45.4077 674.667 43.4238C674.186 41.4412 673.347 39.3965 672.465 37.3214C671.592 35.2462 670.737 33.1411 670.494 31.0378C670.235 28.9349 670.632 26.8336 671.675 24.7805C672.708 22.7288 674.317 20.7236 675.999 18.7971C677.695 16.8739 679.454 15.0443 681.025 13.3642C682.602 11.6791 684.04 10.1726 685.351 8.80146C686.673 7.43907 687.939 6.25883 689.32 5.30659C690.698 4.35566 692.184 3.62112 693.84 3.1514C695.495 2.68321 697.3 2.46291 699.214 2.49318C703.049 2.55156 707.273 3.61416 711.617 5.48826C715.955 7.36084 720.518 10.0508 724.945 13.2647C729.336 16.4914 733.558 20.1736 735.867 24.1297C737.022 26.1123 737.754 28.1363 738.09 30.2194C738.442 32.2994 738.47 34.42 738.645 36.5546ZM741.808 51.01C730.506 48.4183 719.203 44.1198 707.9 41.1587C707.318 39.4708 706.575 37.783 705.993 36.0951C717.295 39.0563 728.598 43.3547 739.9 45.9464C740.483 47.6343 741.226 49.3221 741.808 51.01ZM743.622 81.6759C741.935 81.3245 740.247 80.9335 738.559 80.5106C737.668 78.2426 736.744 75.9745 736.445 73.7065C736.12 71.4384 736.453 69.1704 737.207 66.9023C737.945 64.6343 739.025 62.3662 739.678 60.0982C740.349 57.8301 740.522 55.5621 740.073 53.294C741.761 53.7169 743.449 54.1078 745.137 54.4592C745.585 56.7273 745.412 58.9953 744.741 61.2634C744.089 63.5315 743.009 65.7995 742.27 68.0676C741.516 70.3356 741.183 72.6037 741.508 74.8717C741.807 77.1398 742.731 79.4078 743.622 81.6759ZM799.552 13.7945C792.303 16.0603 785.054 18.1806 777.805 19.4559C770.557 20.7482 763.308 21.1714 756.059 20.5859C755.45 18.9282 754.728 17.2704 754.198 15.6127C761.446 16.1983 768.695 15.7751 775.944 14.4828C783.193 13.2075 790.441 11.0871 797.69 8.8214C798.221 10.4791 798.942 12.1368 799.552 13.7945ZM795.744 73.3379C793.201 71.6296 791.107 69.9095 789.66 68.165C788.188 66.4206 787.325 64.6519 786.392 62.8475C785.464 61.0432 784.372 59.2032 782.601 57.3177C780.857 55.4324 778.428 53.5016 775.749 51.5178C773.079 49.534 770.252 47.4972 767.987 45.402C765.699 43.3068 764.023 41.1534 762.859 38.9389C761.676 36.7246 760.937 34.4493 759.875 32.1132C758.828 29.7772 757.377 27.3804 755.262 24.9258C756.427 24.004 757.466 23.0529 758.426 22.0711C760.978 24.4417 763.09 26.7521 764.552 29.0012C766.038 31.2505 766.911 33.4385 767.841 35.5672C768.766 37.696 769.844 39.7654 771.6 41.7799C773.327 43.7945 775.741 45.7543 778.415 47.6662C781.08 49.5782 783.914 51.4424 786.192 53.2679C788.494 55.0935 790.189 56.8804 791.364 58.6397C792.558 60.3989 793.3 62.1305 794.353 63.8466C795.392 65.5627 796.825 67.2634 798.925 68.9614C797.753 70.4231 796.708 71.8835 795.744 73.3379ZM800 79.1687C792.751 81.4345 785.503 83.5548 778.254 84.8301C771.005 86.1224 763.756 86.5456 756.508 85.9601C755.967 84.2722 755.229 82.5844 754.613 80.8965C761.862 81.4821 769.111 81.0589 776.359 79.7666C783.608 78.4913 790.857 76.3709 798.106 74.1052C798.722 75.793 799.46 77.4809 800 79.1687Z" fill="white"/>
</svg>
